<svg xmlns="http://www.w3.org/2000/svg" width="64" height="64" viewBox="0 0 64 64"><defs/><path id="path445" fill="#000000" d="M33.348,21.518 Q35.283,21.485 38.726,20.202 Q45.042,17.849 49.467,19.814 Q51.112,20.545 50.381,22.189 Q50.225,22.541 49.938,22.798 Q43.24,28.808 43.033,37.145 Q42.817,45.785 50.039,51.68 Q51.638,52.985 50.777,54.753 Q50.321,55.689 49.021,56.462 Q47.223,57.531 43.799,58.441 Q36.376,60.414 32.414,59.613 Q28.333,60.805 21.012,58.902 Q17.605,58.016 15.756,56.811 Q14.486,55.983 14.005,54.985 Q13.244,53.407 14.323,51.986 Q20.878,43.352 21.252,38.111 Q21.745,31.192 13.482,22.715 Q12.226,21.426 13.515,20.17 Q13.747,19.943 14.045,19.812 Q19.145,17.564 27.845,20.307 Q31.77,21.544 33.348,21.518 Z M33.409,25.116 Q31.246,25.152 26.763,23.739 Q21.573,22.103 18.125,22.448 Q25.378,30.837 24.841,38.367 Q24.392,44.676 17.189,54.162 L17.721,53.796 Q19.078,54.681 21.918,55.419 Q28.648,57.169 31.722,56.056 Q32.254,55.863 32.801,56.01 Q35.853,56.829 42.875,54.963 Q45.389,54.295 46.753,53.604 Q39.192,46.826 39.435,37.055 Q39.641,28.796 45.153,22.52 Q42.889,22.491 39.983,23.574 Q35.961,25.072 33.409,25.116 Z M29.793,18.975 Q27.131,15.154 30.678,8.98 Q34.508,2.313 39.998,4.395 Q40.331,4.521 40.59,4.764 Q44.259,8.201 39.185,14.729 Q34.396,20.892 30.697,19.652 Q30.133,19.463 29.793,18.975 Z M32.407,16.235 Q33.742,15.869 36.344,12.521 Q39.116,8.953 38.331,7.639 Q35.928,7.066 33.798,10.772 Q31.774,14.296 32.407,16.235 Z"/></svg>