<svg xmlns="http://www.w3.org/2000/svg" width="64" height="64" viewBox="0 0 64 64" version="1.1">
	<path d="M 32.489 6.607 C 28.126 11.314, 27.628 19.233, 31.659 19.808 C 34.313 20.186, 40.677 14.136, 41.633 10.326 C 43.121 4.397, 36.887 1.861, 32.489 6.607 M 34.557 10.223 C 31.953 13.940, 32.721 15.889, 35.532 12.694 C 36.889 11.151, 38 9.464, 38 8.944 C 38 7.259, 36.152 7.945, 34.557 10.223 M 14 19.929 C 12.942 20.644, 12.795 21.342, 13.500 22.295 C 20.041 31.136, 21.144 33.558, 20.729 38.172 C 20.459 41.166, 19.176 44.609, 17.154 47.760 C 13.185 53.946, 13.200 55.511, 17.250 57.724 C 21.744 60.180, 40.746 60.202, 46.264 57.758 C 51.401 55.482, 51.812 53.688, 48.151 49.519 C 41.875 42.371, 41.642 34.705, 47.440 26.089 C 51.676 19.794, 50.663 18.370, 42.745 19.486 C 36.499 20.367, 30.798 20.381, 22 19.537 C 18.163 19.170, 14.885 19.330, 14 19.929 M 19 22.502 C 19 22.800, 20.192 24.844, 21.649 27.046 C 25.914 33.490, 25.922 39.112, 21.678 47.240 C 19.225 51.938, 18.508 54.196, 19.313 54.693 C 21.387 55.975, 37.398 56.244, 41.750 55.070 C 46.327 53.835, 46.884 52.979, 44.434 50.945 C 39.252 46.645, 37.886 34.248, 41.853 27.524 C 43.079 25.447, 43.861 23.528, 43.592 23.258 C 43.322 22.989, 41.662 23.271, 39.902 23.884 C 36.015 25.239, 31.291 25.314, 27.399 24.083 C 22.812 22.631, 19 21.914, 19 22.502" stroke="none" fill="#000000" fill-rule="evenodd"/>
</svg>