<svg xmlns="http://www.w3.org/2000/svg" width="64" height="64" viewBox="0 0 64 64"><defs/><path id="path446" fill="#000000" d="M32.062,55.747 Q31.393,55.784 29.824,55.95 Q23.87,56.574 21.745,55.422 Q13.178,50.775 11.823,39.474 Q10.429,27.832 18.61,21.937 Q21.152,20.105 28.178,22.287 Q31.21,23.228 32.692,23.465 Q33.63,23.295 36.077,22.502 Q44.486,19.774 47.218,21.993 Q53.751,27.299 52.058,39.59 Q50.299,52.374 40.877,56.134 Q39.513,56.678 35.076,56.049 Q32.701,55.712 32.062,55.747 Z M31.884,52.535 Q32.839,52.481 35.529,52.863 Q39.116,53.372 39.684,53.145 Q47.366,50.079 48.871,39.151 Q50.315,28.654 45.189,24.491 Q43.815,23.375 37.07,25.563 Q34.052,26.542 32.903,26.689 Q32.694,26.716 32.485,26.688 Q30.749,26.455 27.223,25.361 Q21.73,23.654 20.491,24.548 Q13.85,29.333 15.019,39.091 Q16.175,48.74 23.28,52.593 Q24.527,53.27 29.488,52.749 Q31.135,52.576 31.884,52.535 Z M40.572,8.865 Q40.665,9.292 40.587,9.627 Q40.599,16.359 39.118,19.003 Q36.937,22.896 31.115,21.865 Q29.978,21.664 29.806,20.52 Q28.357,10.904 37.982,7.734 Q38.283,7.552 38.73,7.511 Q39.354,7.376 39.781,7.605 Q39.886,7.662 39.98,7.741 Q40.501,8.073 40.572,8.865 Z M37.345,11.455 Q32.619,13.745 32.866,18.841 Q35.436,18.991 36.311,17.43 Q37.209,15.827 37.345,11.455 Z"/></svg>