<svg xmlns="http://www.w3.org/2000/svg" width="64" height="64" viewBox="0 0 64 64"><defs/><path id="path445" fill="#000000" d="M33.18,22.828 Q34.873,22.799 37.885,21.677 Q43.412,19.618 47.284,21.337 Q48.723,21.977 48.083,23.415 Q47.947,23.723 47.696,23.948 Q41.835,29.207 41.654,36.502 Q41.465,44.062 47.784,49.22 Q49.183,50.362 48.43,51.909 Q48.031,52.728 46.893,53.404 Q45.32,54.34 42.324,55.136 Q35.829,56.862 32.362,56.161 Q28.791,57.204 22.385,55.539 Q19.404,54.764 17.786,53.71 Q16.675,52.985 16.254,52.112 Q15.589,50.731 16.533,49.488 Q22.268,41.933 22.596,37.347 Q23.027,31.293 15.797,23.876 Q14.698,22.748 15.826,21.649 Q16.029,21.45 16.289,21.336 Q20.752,19.368 28.364,21.769 Q31.799,22.851 33.18,22.828 Z M33.233,25.976 Q31.34,26.008 27.418,24.772 Q22.876,23.34 19.859,23.642 Q26.206,30.982 25.736,37.571 Q25.343,43.091 19.04,51.392 L19.506,51.072 Q20.693,51.846 23.178,52.492 Q29.067,54.023 31.757,53.049 Q32.222,52.88 32.701,53.009 Q35.371,53.725 41.516,52.093 Q43.715,51.508 44.909,50.903 Q38.293,44.973 38.506,36.423 Q38.686,29.196 43.509,23.705 Q41.528,23.68 38.985,24.627 Q35.466,25.938 33.233,25.976 Z M30.069,20.603 Q27.74,17.26 30.843,11.858 Q34.194,6.024 38.998,7.846 Q39.29,7.956 39.516,8.168 Q42.727,11.176 38.287,16.888 Q34.097,22.281 30.86,21.195 Q30.366,21.03 30.069,20.603 Z M32.356,18.206 Q33.524,17.885 35.801,14.956 Q38.227,11.834 37.54,10.684 Q35.437,10.183 33.573,13.425 Q31.802,16.509 32.356,18.206 Z"/></svg>