<svg xmlns="http://www.w3.org/2000/svg" width="64" height="64" viewBox="0 0 64 64"><defs/><path id="path446" fill="#000000" d="M32.071,59.14 Q31.306,59.182 29.513,59.371 Q22.709,60.085 20.28,58.768 Q10.489,53.457 8.941,40.542 Q7.347,27.236 16.697,20.499 Q19.602,18.406 27.632,20.899 Q31.097,21.975 32.791,22.246 Q33.863,22.051 36.659,21.145 Q46.27,18.028 49.392,20.563 Q56.858,26.627 54.924,40.674 Q52.913,55.284 42.145,59.582 Q40.586,60.204 35.516,59.485 Q32.801,59.099 32.071,59.14 Z M31.867,55.468 Q32.959,55.407 36.033,55.843 Q40.133,56.425 40.782,56.166 Q49.561,52.662 51.281,40.173 Q52.932,28.176 47.073,23.418 Q45.503,22.143 37.794,24.643 Q34.345,25.762 33.032,25.93 Q32.793,25.961 32.554,25.929 Q30.57,25.663 26.541,24.412 Q20.263,22.462 18.847,23.483 Q11.257,28.952 12.593,40.104 Q13.914,51.131 22.034,55.535 Q23.459,56.308 29.129,55.713 Q31.011,55.515 31.867,55.468 Z M41.797,5.56 Q41.903,6.048 41.814,6.431 Q41.828,14.125 40.135,17.146 Q37.642,21.596 30.989,20.417 Q29.689,20.187 29.492,18.88 Q27.837,7.89 38.837,4.268 Q39.181,4.059 39.692,4.013 Q40.404,3.858 40.893,4.12 Q41.013,4.185 41.12,4.275 Q41.716,4.655 41.797,5.56 Z M38.108,8.52 Q32.707,11.137 32.99,16.961 Q35.927,17.133 36.927,15.348 Q37.953,13.517 38.108,8.52 Z"/></svg>