<svg xmlns="http://www.w3.org/2000/svg" width="64" height="64" viewBox="0 0 64 64" version="1.1">
	<path d="M 35.367 5.904 C 31.190 8.470, 29 11.778, 29 15.523 C 29 19.068, 30.520 20.966, 33.450 21.079 C 34.600 21.123, 34.931 21.386, 34.204 21.678 C 33.491 21.963, 30.034 21.419, 26.520 20.468 C 20.359 18.800, 20.017 18.806, 16.890 20.632 C 5.330 27.384, 6.986 51.288, 19.500 58.305 C 20.600 58.922, 26.364 59.518, 32.310 59.630 L 43.120 59.834 46.718 56.674 C 52.061 51.983, 54.978 44.946, 54.990 36.718 C 55.001 29.097, 53.476 24.623, 49.671 21.115 C 47.515 19.127, 46.427 18.836, 43.130 19.363 C 40.955 19.711, 38.348 20.307, 37.337 20.687 C 36.226 21.104, 36.634 20.393, 38.371 18.886 C 40.889 16.701, 41.258 15.667, 41.371 10.479 C 41.520 3.657, 40.405 2.808, 35.367 5.904 M 34.557 11.223 C 33.701 12.445, 33 14.245, 33 15.223 C 33 17.918, 35.917 17.347, 37.025 14.435 C 39.050 9.109, 37.474 7.058, 34.557 11.223 M 17.299 25.250 C 13.908 28.973, 13 31.586, 13 37.619 C 13 44.349, 15.806 51.020, 19.836 53.871 C 22.008 55.408, 24.340 55.760, 32.473 55.781 L 42.446 55.807 45.522 52.545 C 47.214 50.751, 49.139 47.480, 49.799 45.276 C 52.279 36.997, 50.477 24.888, 46.539 23.377 C 45.686 23.049, 42.127 23.555, 38.632 24.502 C 32.730 26.099, 31.880 26.107, 26.734 24.611 C 19.709 22.569, 19.744 22.566, 17.299 25.250" stroke="none" fill="#000000" fill-rule="evenodd"/>
</svg>