<svg xmlns="http://www.w3.org/2000/svg" width="64" height="64" viewBox="0 0 64 64"><defs/><path id="path142-3-5-4-5" fill="#000000" d="M35.757,9.397 Q36.507,9.79 36.932,10.575 Q37.765,12.112 36.509,13.451 Q35.783,14.429 36.315,15.16 Q36.624,15.584 36.505,16.095 Q36.195,17.433 34.873,19.621 Q34.863,19.638 34.851,19.656 Q33.13,22.288 30.749,22.237 L30.7,22.584 Q30.521,23.086 30.361,23.373 Q29.904,24.386 29.005,26.348 Q27.532,29.568 26.795,31.235 Q26.754,31.451 26.699,31.835 Q26.629,32.322 26.52,32.744 Q26.596,32.779 26.672,32.825 Q27.16,33.127 27.253,33.522 Q27.346,33.917 27.044,34.405 L24.437,38.619 Q24.414,38.656 24.388,38.691 Q23.862,39.414 23.182,39.163 Q23.164,39.202 23.151,39.232 Q23.145,39.247 23.138,39.261 L20.414,45.203 L19.351,47.548 Q19.893,47.302 20.415,47.625 Q20.903,47.927 20.996,48.322 Q21.089,48.717 20.787,49.205 L18.18,53.418 Q18.157,53.455 18.132,53.49 Q17.456,54.418 16.528,53.742 L16.334,53.601 Q15.784,53.987 14.963,53.909 Q14.306,53.846 13.142,53.237 Q12.628,52.968 12.477,52.922 Q12.282,52.863 12.12,52.741 Q11.976,52.632 11.331,52.407 Q8.838,51.534 8.938,49.733 Q8.949,49.535 9.026,49.353 Q9.388,48.49 10.166,46.803 Q10.64,45.777 10.868,45.265 Q10.881,45.236 10.895,45.208 Q11.094,44.821 11.453,43.976 Q11.729,43.326 11.987,42.806 Q10.957,42.467 11.275,41.397 Q11.287,41.356 11.302,41.316 L13.067,36.686 Q13.476,35.613 14.549,36.022 Q14.715,36.085 14.844,36.179 Q14.989,35.981 15.15,35.781 Q15.853,34.357 17.114,31.553 Q17.543,30.601 17.845,29.938 Q17.496,29.778 17.351,29.509 Q17.157,29.152 17.321,28.602 Q17.333,28.561 17.349,28.521 L19.114,23.891 Q19.318,23.354 19.688,23.188 Q20.059,23.022 20.595,23.227 Q20.631,23.241 20.665,23.255 Q20.875,22.962 21.126,22.679 Q21.635,21.66 22.522,19.684 Q22.8,19.065 23.009,18.605 Q22.682,18.261 22.487,17.888 Q22.456,17.828 22.431,17.764 Q21.711,15.861 22.747,12.816 Q22.77,12.747 22.802,12.681 Q22.866,12.55 23.019,12.115 Q23.432,10.94 23.842,10.444 Q24.536,9.606 25.464,9.635 Q25.617,9.289 25.81,8.841 Q26.217,7.89 26.442,7.415 Q26.467,7.362 26.498,7.312 Q27.368,5.871 29.269,6.558 Q29.818,5.802 30.761,4.966 L30.849,4.888 Q31.789,4.045 33.04,4.001 Q34.74,3.942 35.412,5.418 Q35.422,5.441 35.432,5.465 Q36.185,7.336 35.757,9.397 Z M54.061,20.031 Q54.717,20.565 54.976,21.419 Q55.484,23.092 53.985,24.152 Q53.078,24.965 53.453,25.788 Q53.671,26.266 53.452,26.742 Q52.88,27.99 51.147,29.87 Q51.133,29.885 51.119,29.899 Q48.905,32.134 46.583,31.607 L46.465,31.937 Q46.19,32.393 45.975,32.642 Q45.325,33.541 44.051,35.286 Q41.964,38.143 40.907,39.631 Q40.823,39.835 40.692,40.199 Q40.526,40.663 40.335,41.054 Q40.403,41.103 40.467,41.164 Q40.885,41.558 40.897,41.964 Q40.909,42.369 40.516,42.787 L37.117,46.393 Q37.088,46.424 37.056,46.453 Q36.395,47.057 35.779,46.674 Q35.754,46.709 35.735,46.736 Q35.726,46.75 35.717,46.762 L31.793,52.126 L30.346,54.123 Q30.926,53.99 31.374,54.411 Q31.791,54.804 31.803,55.21 Q31.815,55.616 31.422,56.033 L28.023,59.639 Q27.994,59.671 27.962,59.7 Q27.114,60.474 26.34,59.626 L26.178,59.449 Q25.562,59.716 24.773,59.476 Q24.142,59.283 23.124,58.453 Q22.674,58.086 22.535,58.011 Q22.357,57.914 22.222,57.762 Q22.102,57.627 21.516,57.277 Q19.249,55.922 19.707,54.178 Q19.758,53.987 19.869,53.823 Q20.396,53.05 21.496,51.555 Q22.167,50.643 22.493,50.187 Q22.511,50.161 22.531,50.137 Q22.802,49.797 23.324,49.041 Q23.725,48.459 24.081,48.002 Q23.14,47.463 23.666,46.479 Q23.686,46.441 23.709,46.405 L26.366,42.222 Q26.673,41.738 27.069,41.649 Q27.465,41.561 27.95,41.869 Q28.1,41.964 28.208,42.081 Q28.39,41.916 28.587,41.753 Q29.56,40.499 31.358,38.004 Q31.968,37.158 32.398,36.567 Q32.088,36.342 31.999,36.049 Q31.882,35.66 32.152,35.154 Q32.172,35.116 32.195,35.08 L34.852,30.897 Q35.467,29.928 36.436,30.543 Q36.469,30.564 36.499,30.585 Q36.764,30.34 37.066,30.113 Q37.769,29.215 39.033,27.459 Q39.432,26.905 39.727,26.499 Q39.475,26.096 39.359,25.692 Q39.34,25.626 39.329,25.558 Q39.005,23.55 40.629,20.774 Q40.666,20.711 40.71,20.653 Q40.8,20.537 41.036,20.142 Q41.676,19.074 42.177,18.67 Q43.025,17.987 43.928,18.202 Q44.148,17.894 44.426,17.493 Q45.017,16.643 45.331,16.223 Q45.367,16.176 45.406,16.133 Q46.548,14.896 48.273,15.949 Q48.961,15.319 50.053,14.688 L50.154,14.629 Q51.245,13.992 52.479,14.2 Q54.156,14.482 54.519,16.062 Q54.525,16.087 54.529,16.112 Q54.893,18.097 54.061,20.031 Z M44.635,30.537 L43.064,29.394 Q42.86,29.246 42.733,29.084 Q42.562,29.024 42.416,28.913 Q42.225,28.767 41.785,28.467 Q41.561,28.314 41.357,28.161 Q41.147,28.452 40.897,28.799 Q39.513,30.722 38.771,31.659 Q38.671,31.785 38.54,31.879 Q37.167,32.863 36.947,34.369 Q36.963,34.789 36.838,35.162 L36.771,37.05 Q36.729,38.197 35.582,38.156 Q35.317,38.146 35.083,38.021 L34.432,37.674 Q33.961,38.319 33.221,39.347 Q31.323,41.98 30.318,43.267 Q30.236,43.372 30.132,43.456 Q28.824,44.507 28.515,45.509 Q28.493,45.621 28.455,45.829 Q28.413,46.066 28.359,46.284 L28.284,48.375 Q28.243,49.522 27.096,49.481 Q26.831,49.472 26.596,49.347 L26.139,49.102 Q25.737,49.586 25.214,50.344 Q24.663,51.143 24.343,51.546 Q24.007,52.015 23.345,52.915 Q22.466,54.111 21.968,54.824 Q22.104,54.954 22.694,55.306 Q23.425,55.743 23.796,56.092 Q23.961,56.198 24.176,56.36 Q24.324,55.886 24.985,55.692 L26.749,55.175 L29.934,50.779 L33.845,45.433 L33.864,45.407 Q33.972,45.252 34.17,44.995 L33.554,44.321 Q33.375,44.124 33.301,43.869 Q32.978,42.768 34.079,42.445 L37.124,41.553 L37.125,41.547 Q37.213,41.151 37.697,40.843 Q38.119,40.574 38.532,39.424 Q38.726,38.882 38.851,38.601 Q38.897,38.497 38.963,38.403 Q40.027,36.903 42.197,33.932 Q43.498,32.151 44.148,31.25 Q44.192,31.19 44.242,31.137 Q44.311,31.064 44.499,30.752 Q44.566,30.64 44.635,30.537 Z M28.627,21.579 L28.409,21.48 L26.859,20.774 Q26.629,20.669 26.472,20.536 Q26.292,20.512 26.127,20.432 Q25.912,20.327 25.42,20.121 Q25.169,20.016 24.939,19.908 Q24.791,20.235 24.616,20.625 Q23.646,22.785 23.106,23.853 Q23.033,23.996 22.923,24.114 Q21.776,25.353 21.862,26.872 Q21.961,27.281 21.914,27.671 L22.226,29.535 Q22.32,30.101 22.085,30.431 Q21.849,30.762 21.283,30.856 Q21.021,30.9 20.766,30.824 L20.06,30.614 Q19.728,31.34 19.208,32.495 Q17.876,35.456 17.149,36.918 Q17.09,37.038 17.005,37.14 Q15.933,38.432 15.832,39.476 Q15.832,39.59 15.837,39.802 Q15.843,40.042 15.834,40.267 L16.18,42.33 Q16.274,42.896 16.039,43.227 Q15.803,43.557 15.237,43.652 Q14.975,43.696 14.72,43.62 L14.223,43.472 Q13.926,44.027 13.566,44.874 Q13.186,45.766 12.953,46.226 Q12.719,46.752 12.251,47.765 Q11.628,49.115 11.283,49.913 Q11.442,50.013 12.09,50.24 Q12.895,50.522 13.328,50.79 Q13.51,50.86 13.754,50.976 Q13.803,50.481 14.413,50.159 L16.037,49.299 L18.323,44.255 L21.038,38.333 L21.051,38.305 Q21.126,38.131 21.269,37.839 L20.531,37.302 Q20.316,37.146 20.192,36.911 Q19.655,35.896 20.669,35.359 L23.473,33.876 L23.473,33.87 Q23.48,33.464 23.893,33.065 Q24.252,32.717 24.427,31.508 Q24.509,30.938 24.575,30.638 Q24.599,30.526 24.645,30.422 Q25.388,28.735 26.918,25.393 Q27.84,23.379 28.293,22.375 Q28.323,22.308 28.362,22.245 Q28.414,22.16 28.536,21.816 Q28.58,21.694 28.627,21.579 Z M47.258,25.542 Q47.093,25.743 46.889,25.983 Q46.538,26.395 46.378,26.599 Q46.299,26.699 46.201,26.779 Q46.086,26.873 45.763,27.429 Q45.524,27.842 45.268,28.159 L46.841,29.303 Q46.896,29.314 46.949,29.33 Q48.099,29.678 49.474,28.297 Q50.64,27.032 51.145,26.196 Q50.679,26.123 50.001,26.029 Q48.316,25.796 47.258,25.542 Z M30.196,16.16 Q30.075,16.39 29.923,16.665 Q29.661,17.139 29.545,17.371 Q29.489,17.485 29.408,17.584 Q29.314,17.699 29.109,18.308 Q28.957,18.76 28.771,19.122 L29.361,19.391 L30.541,19.928 Q30.597,19.928 30.652,19.933 Q31.849,20.043 32.919,18.416 Q33.808,16.942 34.135,16.022 Q33.666,16.043 32.981,16.088 Q31.284,16.197 30.196,16.16 Z M43.492,20.589 Q43.312,20.811 43.006,21.321 Q42.743,21.76 42.58,21.986 Q41.442,23.949 41.585,25.117 Q41.802,25.7 43.077,26.569 Q43.301,26.722 43.474,26.844 L43.777,26.277 Q44.242,25.477 44.635,25.102 Q44.82,24.871 45.142,24.493 Q45.264,24.35 45.368,24.225 Q45.215,23.969 45.037,23.6 L44.91,23.278 Q44.747,23.135 44.646,22.943 Q44.466,22.599 44.17,21.916 Q43.791,21.044 43.492,20.589 Z M25.515,12.062 Q25.382,12.314 25.185,12.876 Q25.015,13.359 24.901,13.613 Q24.179,15.763 24.553,16.879 Q24.882,17.408 26.306,18.003 Q26.557,18.108 26.75,18.193 L26.933,17.577 Q27.228,16.7 27.538,16.254 Q27.673,15.991 27.913,15.556 Q28.003,15.392 28.081,15.247 Q27.879,15.028 27.631,14.701 L27.442,14.411 Q27.254,14.305 27.117,14.137 Q26.872,13.835 26.444,13.226 Q25.899,12.447 25.515,12.062 Z M49.879,19.87 Q50.218,19.823 50.617,19.797 Q51.37,19.749 51.709,19.623 Q52.542,18.082 52.278,16.564 Q52.25,16.489 52.098,16.463 Q51.685,16.394 51.305,16.616 L51.201,16.676 Q49.947,17.401 49.531,17.934 Q49.596,18.638 49.879,19.87 Z M31.628,10.078 Q31.95,9.964 32.336,9.859 Q33.064,9.66 33.371,9.469 Q33.879,7.793 33.316,6.358 Q33.274,6.29 33.12,6.296 Q32.702,6.31 32.373,6.604 L32.284,6.684 Q31.2,7.645 30.9,8.25 Q31.104,8.927 31.628,10.078 Z M31.919,12.444 Q31.555,12.81 31.105,13.872 Q31.847,13.86 32.833,13.797 Q33.403,13.76 33.836,13.738 Q34.045,12.889 34.722,12.007 Q34.763,11.954 34.81,11.905 Q34.959,11.753 34.913,11.668 Q34.816,11.489 34.6,11.398 Q33.957,11.796 32.94,12.074 Q32.196,12.277 31.919,12.444 Z M49.69,22.246 Q49.26,22.532 48.607,23.483 Q49.336,23.62 50.315,23.755 Q50.88,23.833 51.309,23.899 Q51.684,23.108 52.524,22.38 Q52.575,22.336 52.631,22.298 Q52.807,22.178 52.779,22.086 Q52.72,21.891 52.526,21.759 Q51.817,22.02 50.765,22.088 Q49.995,22.138 49.69,22.246 Z M28.632,8.666 L28.467,8.504 Q28.265,8.94 27.92,9.746 Q27.658,10.355 27.461,10.791 Q27.868,11.257 28.324,11.908 Q28.644,12.363 28.831,12.604 Q28.938,12.699 29.056,12.826 Q29.396,12.053 29.755,11.506 Q29.666,11.307 29.552,11.057 Q28.874,9.571 28.632,8.666 Z M47.226,17.887 L47.097,17.695 Q46.812,18.082 46.312,18.802 Q45.934,19.347 45.654,19.735 Q45.959,20.273 46.276,21.002 Q46.497,21.512 46.633,21.785 Q46.718,21.899 46.809,22.048 Q47.296,21.358 47.757,20.895 Q47.71,20.68 47.648,20.414 Q47.282,18.822 47.226,17.887 Z"/></svg>