<svg xmlns="http://www.w3.org/2000/svg" width="64" height="64" viewBox="0 0 64 64" version="1.1">
	<path d="M 33 6.786 C 20.564 12.224, 11.192 19.110, 7.387 25.603 C 1.158 36.232, 6.397 52.080, 18.115 58.059 C 25.869 62.015, 34.206 59.707, 42.252 51.378 C 55.760 37.394, 62.845 18.627, 57.379 11.306 C 51.662 3.649, 43.594 2.153, 33 6.786 M 31.427 12.357 C 21.219 17.340, 12.742 23.665, 10.523 27.955 C 6.959 34.847, 9.644 45.846, 16.322 51.709 C 25.610 59.864, 36.322 55.399, 46.961 38.939 C 56.704 23.865, 57.394 13.841, 48.989 9.494 C 44.421 7.132, 40.985 7.692, 31.427 12.357 M 27.256 24.070 C 21.232 25.323, 18 30.011, 18 37.496 C 18 45.987, 24.929 49.577, 32.001 44.750 C 36.609 41.604, 39.233 36.438, 38.643 31.672 C 37.839 25.172, 34.066 22.654, 27.256 24.070 M 24.398 30.511 C 22.377 32.532, 21.946 33.832, 22.193 37.160 C 22.372 39.570, 23.159 41.709, 24.079 42.285 C 28.448 45.021, 36.482 35.548, 34.144 30.416 C 32.625 27.082, 27.779 27.130, 24.398 30.511" stroke="none" fill="#000000" fill-rule="evenodd"/>
</svg>