<svg xmlns="http://www.w3.org/2000/svg" width="64" height="64" viewBox="0 0 64 64"><defs/><path id="path447" fill="#000000" d="M37.112,8.338 Q43.747,5.942 49.979,9.755 Q56.659,13.843 55.959,21.246 Q55.17,29.609 47.55,40.982 Q39.577,52.88 32.058,55.558 Q21.269,59.399 13.295,49.678 Q5.768,40.501 8.673,29.963 Q12.148,17.355 37.112,8.338 Z M38.294,11.61 Q15.023,20.015 12.027,30.887 Q9.601,39.689 15.985,47.472 Q22.407,55.3 30.891,52.28 Q37.326,49.989 44.66,39.045 Q51.789,28.405 52.496,20.919 Q52.991,15.677 48.164,12.723 Q43.357,9.781 38.294,11.61 Z M34.559,25.595 Q37.544,27.404 37.881,31.517 Q38.614,40.476 30.569,44.092 Q26.01,46.143 22.826,43.971 Q20.076,42.095 19.58,37.989 Q18.434,28.489 26.278,25.525 L26.283,25.524 Q31.309,23.626 34.559,25.595 Z M27.508,28.78 Q22.214,30.779 23.034,37.572 Q23.34,40.11 24.787,41.097 Q26.36,42.17 29.143,40.92 Q34.946,38.311 34.414,31.801 Q34.222,29.458 32.757,28.571 Q30.954,27.479 27.511,28.778 L27.508,28.78 Z"/></svg>