<svg xmlns="http://www.w3.org/2000/svg" width="64" height="64" viewBox="0 0 64 64"><defs/><path id="path447" fill="#000000" d="M37.842,4.958 Q45.425,2.219 52.548,6.577 Q60.182,11.249 59.382,19.71 Q58.48,29.267 49.771,42.265 Q40.659,55.863 32.066,58.923 Q19.736,63.313 10.623,52.203 Q2.021,41.716 5.341,29.672 Q9.312,15.263 37.842,4.958 Z M39.193,8.697 Q12.598,18.303 9.174,30.728 Q6.401,40.787 13.697,49.682 Q21.037,58.629 30.732,55.177 Q38.087,52.559 46.468,40.052 Q54.616,27.891 55.424,19.336 Q55.99,13.345 50.473,9.969 Q44.979,6.607 39.193,8.697 Z M34.925,24.68 Q38.336,26.747 38.721,31.448 Q39.559,41.687 30.365,45.82 Q25.154,48.163 21.515,45.681 Q18.372,43.537 17.806,38.844 Q16.496,27.987 25.461,24.6 L25.466,24.599 Q31.21,22.43 34.925,24.68 Z M26.866,28.32 Q20.816,30.605 21.753,38.368 Q22.103,41.269 23.756,42.396 Q25.554,43.623 28.735,42.194 Q35.367,39.212 34.759,31.773 Q34.539,29.095 32.865,28.081 Q30.804,26.833 26.87,28.318 L26.866,28.32 Z"/></svg>