<svg xmlns="http://www.w3.org/2000/svg" width="64" height="64" viewBox="0 0 64 64"><defs/><path id="path449" fill="#000000" d="M39.789,40.549 Q39.532,41.386 39.184,42.214 Q36.216,49.276 27.74,52.315 Q19.84,55.147 13.284,51.383 Q7.473,48.046 5.108,41.135 Q-0.758,23.998 15.71,18.245 L15.72,18.241 Q24.467,15.188 30.423,18.115 Q33.311,10.52 44.523,10.52 Q54.554,10.52 58.644,19.625 Q62.678,28.604 56.469,35.595 Q48.918,44.099 39.789,40.549 Z M29.508,22.94 Q24.694,19.783 17.174,22.407 L17.165,22.41 Q4.837,26.718 9.283,39.706 Q11.11,45.046 15.482,47.556 Q20.27,50.306 26.25,48.162 Q32.9,45.778 35.116,40.504 Q37.09,35.808 35.088,30.615 Q33.663,26.919 31.558,24.676 Q31.532,24.674 31.508,24.672 Q29.669,24.505 29.508,22.94 Z M42.417,18.196 L43.643,18.196 L43.643,16.97 Q43.643,15.377 44.793,14.934 Q44.66,14.932 44.523,14.932 Q35.84,14.932 34.221,20.866 Q37.216,23.869 39.205,29.028 Q40.588,32.614 40.517,36.059 Q47.387,39.178 53.17,32.666 Q57.483,27.808 54.619,21.434 Q52.327,16.331 47.415,15.233 Q48.055,15.781 48.055,16.97 L48.055,18.196 L49.281,18.196 Q51.487,18.196 51.487,20.402 Q51.487,22.609 49.281,22.609 L48.055,22.609 L48.055,23.834 Q48.055,26.041 45.849,26.041 Q43.643,26.041 43.643,23.834 L43.643,22.609 L42.417,22.609 Q40.211,22.609 40.211,20.402 Q40.211,18.196 42.417,18.196 Z M14.383,28.492 L16.843,28.492 L16.843,26.032 Q16.843,23.826 19.049,23.826 Q21.255,23.826 21.255,26.032 L21.255,28.492 L23.716,28.492 Q25.922,28.492 25.922,30.698 Q25.922,32.905 23.716,32.905 L21.255,32.905 L21.255,35.365 Q21.255,37.571 19.049,37.571 Q16.843,37.571 16.843,35.365 L16.843,32.905 L14.383,32.905 Q12.177,32.905 12.177,30.698 Q12.177,28.492 14.383,28.492 Z"/></svg>