<svg xmlns="http://www.w3.org/2000/svg" width="64" height="64" viewBox="0 0 64 64"><defs/><path id="path449" fill="#000000" d="M38.815,39.48 Q38.59,40.213 38.286,40.937 Q35.689,47.117 28.272,49.776 Q21.36,52.254 15.624,48.96 Q10.539,46.04 8.469,39.993 Q3.337,24.998 17.746,19.964 L17.755,19.961 Q25.409,17.289 30.62,19.851 Q33.147,13.205 42.958,13.205 Q51.735,13.205 55.313,21.172 Q58.843,29.028 53.41,35.146 Q46.803,42.587 38.815,39.48 Z M29.819,24.073 Q25.607,21.31 19.027,23.606 L19.019,23.609 Q8.232,27.378 12.123,38.743 Q13.721,43.415 17.547,45.611 Q21.736,48.018 26.969,46.142 Q32.788,44.056 34.727,39.441 Q36.454,35.332 34.702,30.788 Q33.455,27.554 31.613,25.592 Q31.59,25.59 31.569,25.588 Q29.96,25.442 29.819,24.073 Z M41.115,19.921 L42.188,19.921 L42.188,18.849 Q42.188,17.455 43.194,17.067 Q43.077,17.066 42.958,17.066 Q35.36,17.066 33.943,22.258 Q36.564,24.885 38.304,29.399 Q39.514,32.537 39.452,35.552 Q45.464,38.281 50.524,32.583 Q54.298,28.332 51.792,22.755 Q49.786,18.29 45.488,17.329 Q46.048,17.808 46.048,18.849 L46.048,19.921 L47.121,19.921 Q49.051,19.921 49.051,21.852 Q49.051,23.783 47.121,23.783 L46.048,23.783 L46.048,24.855 Q46.048,26.786 44.118,26.786 Q42.188,26.786 42.188,24.855 L42.188,23.783 L41.115,23.783 Q39.185,23.783 39.185,21.852 Q39.185,19.921 41.115,19.921 Z M16.585,28.931 L18.738,28.931 L18.738,26.778 Q18.738,24.848 20.668,24.848 Q22.598,24.848 22.598,26.778 L22.598,28.931 L24.751,28.931 Q26.682,28.931 26.682,30.861 Q26.682,32.792 24.751,32.792 L22.598,32.792 L22.598,34.944 Q22.598,36.875 20.668,36.875 Q18.738,36.875 18.738,34.944 L18.738,32.792 L16.585,32.792 Q14.655,32.792 14.655,30.861 Q14.655,28.931 16.585,28.931 Z"/></svg>