<svg xmlns="http://www.w3.org/2000/svg" width="64" height="64" viewBox="0 0 64 64" version="1.1">
	<path d="M 40.479 10.919 C 36.756 11.824, 32.357 14.628, 31.611 16.572 C 31.175 17.707, 29.878 17.886, 25.661 17.390 C 6.549 15.144, -3.149 34.910, 10.266 48.769 C 13.889 52.513, 19.207 54.284, 24.115 53.381 C 29.295 52.427, 35.586 48.407, 37.995 44.509 C 39.843 41.518, 40.711 41, 43.870 41 C 49.157 41, 55.972 37.206, 58.238 33 C 60.601 28.612, 60.144 21.011, 57.285 17.176 C 53.512 12.114, 46.423 9.475, 40.479 10.919 M 39.357 15.992 C 38.178 16.467, 36.516 17.852, 35.664 19.069 C 34.226 21.122, 34.289 21.513, 36.534 24.456 C 37.865 26.201, 39.320 29.400, 39.767 31.564 C 40.543 35.326, 40.766 35.514, 44.808 35.808 C 48.387 36.069, 49.495 35.658, 52.019 33.135 C 55.992 29.161, 56.231 22.621, 52.548 18.646 C 50.045 15.945, 48 15.205, 48 17 C 48 17.550, 48.627 18, 49.393 18 C 52.015 18, 51.816 20.680, 48.997 23.341 C 45.874 26.288, 44 26.748, 44 24.567 C 44 23.779, 43.100 22.849, 42 22.500 C 40.900 22.151, 40 21.178, 40 20.339 C 40 19.500, 40.900 18.577, 42 18.290 C 43.100 18.002, 44 17.144, 44 16.383 C 44 14.833, 42.535 14.709, 39.357 15.992 M 14.763 23.565 C 6.458 28.072, 7.301 43.002, 16.119 47.561 C 19.857 49.495, 25.755 49.046, 29.586 46.536 C 32.921 44.350, 35.992 39.165, 35.996 35.710 C 36.002 31.578, 32.393 25.255, 29.040 23.521 C 25.333 21.604, 18.337 21.626, 14.763 23.565 M 17 25.892 C 17 27.088, 16.057 28.020, 14.434 28.427 C 11.290 29.216, 11.480 32.351, 14.699 32.811 C 16.052 33.005, 16.995 33.952, 17.189 35.311 C 17.360 36.515, 18.175 37.500, 19 37.500 C 19.825 37.500, 20.640 36.515, 20.811 35.311 C 21.005 33.952, 21.948 33.005, 23.301 32.811 C 26.520 32.351, 26.710 29.216, 23.566 28.427 C 21.943 28.020, 21 27.088, 21 25.892 C 21 24.667, 20.295 24, 19 24 C 17.705 24, 17 24.667, 17 25.892" stroke="none" fill="#000000" fill-rule="evenodd"/>
</svg>