<svg xmlns="http://www.w3.org/2000/svg" width="64" height="64" viewBox="0 0 64 64"><defs/><path id="path450" fill="#000000" d="M38.819,13.901 Q38.965,14.026 40.998,13.825 Q45.989,13.335 47.809,15.49 Q49.773,17.816 49.6,21.509 Q49.538,22.834 49.726,23.264 Q50.051,24.006 51.751,25.06 Q55.747,27.536 55.747,31.284 Q55.747,35.994 50.575,37.322 Q48.655,37.814 48.076,38.381 Q47.667,38.783 47.38,40.369 Q46.565,44.879 42.73,45.916 Q41.161,46.34 39.354,45.422 Q39.567,49.772 40.768,51.434 Q41.804,52.866 42.216,54.326 Q42.281,54.554 42.281,54.791 Q42.281,56.5 40.572,56.5 L24.654,56.5 Q23.681,56.5 23.184,55.663 Q22.749,54.928 22.897,54.343 Q23.047,53.758 23.782,53.321 Q26.556,51.675 26.221,46.077 Q24.308,46.684 22.601,46.116 Q19.246,45 18.337,42.537 Q17.825,41.15 16.492,39.992 Q16.229,39.764 14.797,39.215 Q8.253,36.709 8.253,31.284 Q8.253,27.902 11.276,26.169 Q12.529,25.451 12.899,24.674 Q13.284,23.863 13.014,21.774 Q12.468,17.548 14.63,15.385 Q16.884,13.131 20.91,13.813 Q22.95,14.16 23.861,13.682 Q24.3,13.452 24.871,12.011 Q27.014,6.6 33.755,7.745 Q33.962,7.78 34.153,7.864 Q35.752,8.563 37.618,11.99 Q38.519,13.645 38.819,13.901 Z M36.604,16.505 Q35.82,15.837 34.615,13.625 Q33.452,11.487 32.908,11.072 Q29.134,10.532 28.049,13.269 Q27.011,15.89 25.448,16.709 Q23.516,17.723 20.339,17.184 Q18.053,16.795 17.048,17.801 Q16.073,18.776 16.404,21.336 Q16.803,24.423 15.986,26.142 Q15.156,27.886 12.977,29.134 Q11.671,29.882 11.671,31.284 Q11.671,34.358 16.019,36.023 Q18.015,36.787 18.734,37.412 Q20.728,39.145 21.544,41.354 Q21.883,42.275 23.68,42.873 Q24.595,43.177 25.893,42.545 Q26.061,41.553 27.321,41.35 Q27.555,41.313 27.761,41.313 Q27.912,41.191 28.068,41.061 Q31.206,38.415 33.451,38.391 Q36.123,38.362 39.27,41.194 Q41.079,42.822 41.838,42.616 Q43.586,42.144 44.017,39.761 Q44.497,37.104 45.683,35.941 Q46.917,34.732 49.726,34.011 Q52.329,33.343 52.329,31.284 Q52.329,29.439 49.951,27.965 Q47.347,26.351 46.596,24.635 Q46.087,23.473 46.186,21.349 Q46.297,18.997 45.198,17.695 Q44.536,16.911 41.332,17.227 Q37.855,17.569 36.604,16.505 Z M35.896,42.843 Q34.472,41.798 33.488,41.808 Q32.471,41.819 30.271,43.673 Q29.877,44.005 29.491,44.296 Q30.124,49.83 28.48,53.082 L37.76,53.082 Q35.84,50.026 35.89,43.026 Q35.891,42.931 35.896,42.843 Z M26.079,34.646 Q26.2,34.417 26.054,34.15 Q25.78,33.651 25.07,33.293 Q23.629,32.569 23.213,33.325 Q22.39,34.823 20.893,33.999 Q20.144,33.587 19.975,33.007 Q19.807,32.427 20.218,31.678 Q22.222,28.035 26.606,30.24 Q28.266,31.075 29.05,32.507 Q30.078,34.381 29.105,36.233 Q28.312,37.747 26.799,36.953 Q26.042,36.556 25.862,35.979 Q25.683,35.403 26.079,34.646 Z M41.02,24.006 Q41.109,23.762 40.928,23.518 Q40.589,23.06 39.837,22.802 Q38.312,22.278 38.003,23.083 Q37.695,23.881 37.143,24.126 Q36.591,24.371 35.794,24.065 Q34.199,23.45 34.812,21.856 Q36.306,17.975 40.948,19.569 Q42.705,20.173 43.675,21.484 Q44.947,23.203 44.233,25.171 Q43.652,26.777 42.044,26.194 Q41.241,25.904 40.985,25.356 Q40.729,24.809 41.02,24.006 Z M26.467,22.931 Q26.419,22.677 26.139,22.559 Q25.615,22.337 24.836,22.498 Q23.257,22.825 23.401,23.675 Q23.686,25.361 22,25.645 Q21.158,25.788 20.665,25.437 Q20.173,25.087 20.031,24.244 Q19.339,20.144 24.145,19.151 Q25.964,18.775 27.467,19.41 Q29.437,20.241 29.826,22.296 Q29.985,23.136 29.645,23.635 Q29.304,24.135 28.464,24.293 Q26.785,24.611 26.467,22.931 Z M40.596,33.522 Q40.556,33.265 40.279,33.138 Q39.761,32.901 38.979,33.039 Q37.391,33.318 37.508,34.173 Q37.625,35.019 37.261,35.501 Q36.896,35.982 36.049,36.099 Q34.356,36.333 34.123,34.64 Q33.554,30.521 38.388,29.673 Q40.218,29.351 41.701,30.03 Q43.645,30.92 43.972,32.987 Q44.106,33.831 43.75,34.32 Q43.395,34.809 42.551,34.942 Q40.863,35.209 40.596,33.522 Z"/></svg>