<svg xmlns="http://www.w3.org/2000/svg" width="64" height="64" viewBox="0 0 64 64"><defs/><path id="path450" fill="#000000" d="M39.793,11.315 Q39.96,11.458 42.283,11.229 Q47.987,10.668 50.067,13.132 Q52.312,15.79 52.114,20.01 Q52.043,21.525 52.258,22.016 Q52.63,22.864 54.573,24.068 Q59.139,26.898 59.139,31.182 Q59.139,36.565 53.229,38.082 Q51.034,38.645 50.373,39.293 Q49.905,39.752 49.577,41.565 Q48.646,46.719 44.263,47.904 Q42.47,48.389 40.404,47.339 Q40.648,52.311 42.021,54.21 Q43.205,55.847 43.676,57.516 Q43.75,57.776 43.75,58.047 Q43.75,60 41.797,60 L23.605,60 Q22.493,60 21.925,59.044 Q21.427,58.204 21.597,57.535 Q21.768,56.866 22.608,56.367 Q25.778,54.486 25.395,48.088 Q23.209,48.782 21.258,48.133 Q17.424,46.857 16.385,44.042 Q15.8,42.457 14.277,41.134 Q13.976,40.873 12.339,40.246 Q4.861,37.382 4.861,31.182 Q4.861,27.317 8.316,25.336 Q9.747,24.516 10.17,23.627 Q10.61,22.701 10.302,20.313 Q9.678,15.483 12.149,13.011 Q14.725,10.435 19.326,11.215 Q21.657,11.611 22.698,11.065 Q23.2,10.802 23.853,9.155 Q26.302,2.971 34.006,4.28 Q34.242,4.32 34.461,4.416 Q36.288,5.215 38.42,9.132 Q39.45,11.023 39.793,11.315 Z M37.262,14.291 Q36.366,13.528 34.989,11 Q33.66,8.557 33.038,8.082 Q28.724,7.465 27.484,10.593 Q26.298,13.588 24.512,14.525 Q22.304,15.683 18.673,15.067 Q16.061,14.623 14.912,15.773 Q13.798,16.887 14.176,19.813 Q14.632,23.34 13.698,25.305 Q12.75,27.298 10.259,28.725 Q8.767,29.58 8.767,31.182 Q8.767,34.695 13.736,36.598 Q16.017,37.471 16.839,38.185 Q19.118,40.166 20.05,42.69 Q20.438,43.743 22.491,44.426 Q23.537,44.774 25.021,44.051 Q25.213,42.918 26.653,42.686 Q26.92,42.643 27.155,42.643 Q27.328,42.504 27.506,42.355 Q31.093,39.331 33.658,39.304 Q36.712,39.271 40.309,42.508 Q42.376,44.368 43.243,44.133 Q45.241,43.593 45.734,40.87 Q46.282,37.833 47.638,36.504 Q49.048,35.122 52.258,34.298 Q55.233,33.535 55.233,31.182 Q55.233,29.073 52.515,27.388 Q49.54,25.544 48.681,23.583 Q48.099,22.255 48.212,19.827 Q48.339,17.139 47.083,15.652 Q46.327,14.756 42.665,15.116 Q38.692,15.507 37.262,14.291 Z M36.453,44.392 Q34.825,43.198 33.7,43.209 Q32.538,43.222 30.024,45.341 Q29.574,45.72 29.133,46.053 Q29.856,52.377 27.977,56.094 L38.583,56.094 Q36.389,52.601 36.446,44.601 Q36.447,44.493 36.453,44.392 Z M25.233,35.024 Q25.371,34.762 25.204,34.457 Q24.891,33.887 24.08,33.478 Q22.433,32.65 21.958,33.514 Q21.017,35.226 19.306,34.285 Q18.45,33.814 18.257,33.151 Q18.065,32.488 18.535,31.632 Q20.825,27.468 25.835,29.989 Q27.732,30.943 28.629,32.579 Q29.803,34.721 28.692,36.838 Q27.785,38.568 26.056,37.661 Q25.191,37.207 24.985,36.548 Q24.78,35.889 25.233,35.024 Z M42.309,22.864 Q42.41,22.585 42.203,22.306 Q41.816,21.783 40.957,21.488 Q39.214,20.889 38.86,21.809 Q38.509,22.721 37.878,23.001 Q37.247,23.281 36.336,22.931 Q34.513,22.229 35.214,20.407 Q36.921,15.971 42.226,17.793 Q44.234,18.483 45.343,19.982 Q46.796,21.946 45.981,24.195 Q45.316,26.031 43.479,25.365 Q42.561,25.033 42.269,24.407 Q41.976,23.782 42.309,22.864 Z M25.677,21.636 Q25.622,21.345 25.302,21.21 Q24.703,20.957 23.813,21.141 Q22.008,21.514 22.172,22.486 Q22.498,24.412 20.572,24.737 Q19.609,24.9 19.046,24.499 Q18.483,24.099 18.321,23.136 Q17.53,18.45 23.023,17.315 Q25.102,16.886 26.82,17.611 Q29.071,18.561 29.515,20.91 Q29.697,21.87 29.308,22.44 Q28.919,23.011 27.959,23.192 Q26.04,23.555 25.677,21.636 Z M41.824,33.739 Q41.778,33.446 41.462,33.301 Q40.87,33.03 39.976,33.187 Q38.161,33.506 38.295,34.483 Q38.429,35.45 38.012,36.001 Q37.595,36.551 36.628,36.685 Q34.693,36.952 34.426,35.017 Q33.776,30.31 39.301,29.34 Q41.392,28.973 43.087,29.749 Q45.309,30.766 45.682,33.128 Q45.835,34.093 45.429,34.651 Q45.023,35.21 44.058,35.362 Q42.129,35.668 41.824,33.739 Z"/></svg>