<svg xmlns="http://www.w3.org/2000/svg" width="64" height="64" viewBox="0 0 64 64" version="1.1">
	<path d="M 26.695 5.085 C 25.702 5.677, 24.475 7.250, 23.969 8.581 C 23.191 10.628, 22.381 11, 18.699 11 C 12.984 11, 10 13.964, 10 19.640 C 10 22.626, 9.361 24.252, 7.500 26 C 2.734 30.477, 4.948 37.684, 11.830 40.095 C 13.298 40.610, 15.269 42.378, 16.209 44.024 C 17.918 47.020, 22.359 49.514, 24.084 48.448 C 25.643 47.485, 25.091 53.680, 23.500 55 C 22.675 55.685, 22 57.090, 22 58.122 C 22 59.839, 22.894 60, 32.441 60 C 38.184 60, 43.152 59.563, 43.482 59.029 C 43.812 58.496, 43.388 56.718, 42.541 55.079 C 40.202 50.555, 40.522 48, 43.427 48 C 46.049 48, 50 43.846, 50 41.089 C 50 40.135, 51.779 38.622, 54.250 37.474 C 58.025 35.721, 58.535 35.077, 58.812 31.720 C 59.082 28.455, 58.638 27.509, 55.562 24.786 C 52.904 22.433, 52 20.834, 52 18.490 C 52 14.109, 48.476 11.011, 43.436 10.961 C 40.110 10.929, 39.188 10.426, 37.487 7.711 C 35.926 5.221, 34.691 4.445, 31.987 4.255 C 30.069 4.120, 27.688 4.494, 26.695 5.085 M 27.133 11.500 C 25.217 14.747, 24.711 15, 20.141 15 C 14.630 15, 14 15.719, 14 22.009 C 14 24.920, 13.392 26.333, 11.500 27.821 C 7.762 30.762, 8.273 33.588, 12.976 35.988 C 15.163 37.103, 17.948 39.363, 19.164 41.008 C 21.831 44.615, 23.282 44.687, 28.500 41.474 C 33.509 38.389, 34.787 38.392, 39 41.500 C 40.864 42.875, 42.748 44, 43.186 44 C 43.625 44, 44.775 42.312, 45.742 40.250 C 46.887 37.807, 48.807 35.861, 51.250 34.668 C 55.847 32.422, 56.008 30.314, 51.845 26.892 C 49.449 24.922, 48.529 23.209, 48.086 19.892 L 47.500 15.500 42.233 15 C 37.602 14.560, 36.729 14.108, 34.998 11.250 C 32.417 6.989, 29.744 7.074, 27.133 11.500 M 20 19 C 18.900 20.100, 18 21.648, 18 22.441 C 18 25.016, 20.228 25.349, 21.975 23.034 C 23.481 21.037, 23.918 20.932, 25.812 22.115 C 27.476 23.154, 28.216 23.184, 29.151 22.249 C 30.087 21.313, 29.947 20.599, 28.521 19.024 C 26.188 16.446, 22.564 16.436, 20 19 M 36.608 18.880 C 34.236 21.502, 35.344 23.081, 39.039 22.342 C 41.280 21.894, 42 22.119, 42 23.268 C 42 24.874, 44.390 26.276, 45.402 25.264 C 46.463 24.203, 46.037 20.276, 44.744 19.203 C 42.047 16.965, 38.470 16.823, 36.608 18.880 M 19.571 30.571 C 18.707 31.436, 18 32.513, 18 32.964 C 18 34.230, 20.861 35.035, 21.527 33.956 C 22.575 32.261, 24.024 32.934, 25.031 35.581 C 26.231 38.739, 28.389 38.275, 28.807 34.770 C 29.349 30.220, 22.869 27.274, 19.571 30.571 M 36 31 C 34.900 32.100, 34 33.648, 34 34.441 C 34 37.016, 36.228 37.349, 37.975 35.034 C 39.481 33.037, 39.918 32.932, 41.812 34.115 C 43.476 35.154, 44.216 35.184, 45.151 34.249 C 46.087 33.313, 45.947 32.599, 44.521 31.024 C 42.188 28.446, 38.564 28.436, 36 31 M 31.329 44.482 C 29.740 45.595, 29.106 47.257, 28.847 50.989 L 28.500 56.001 33.269 56.001 C 37.703 56, 38.001 55.842, 37.515 53.750 C 37.227 52.513, 36.643 49.733, 36.216 47.574 C 35.321 43.042, 34.304 42.398, 31.329 44.482" stroke="none" fill="#000000" fill-rule="evenodd"/>
</svg>