<svg xmlns="http://www.w3.org/2000/svg" width="64" height="64" viewBox="0 0 64 64"><defs/><path id="path105" fill="#0f0a0b" d="M27.362,59.481 Q13.943,57.358 7.709,44.868 Q3.968,37.422 4.726,29.486 Q5.769,18.671 13.598,11.48 Q20.509,5.038 29.383,4.232 Q37.561,3.338 43.162,5.973 Q43.193,5.987 43.223,6.003 Q44.833,6.827 45.801,9.268 Q48.109,9.794 50.151,11.913 Q59.228,20.194 59.368,31.243 L59.368,31.255 Q59.442,34.421 59.084,36.072 Q59.024,36.347 58.893,36.595 Q58.883,36.613 58.872,36.632 Q58.994,37.354 58.808,38.135 Q58.738,38.477 58.619,39.181 Q58.094,42.295 57.033,43.787 Q57.007,43.823 56.98,43.858 Q56.773,44.124 56.485,45.106 Q55.995,46.782 55.284,47.725 Q54.754,48.772 53.43,49.87 Q52.71,50.467 52.678,50.618 Q52.565,51.155 52.199,51.562 Q50.956,52.948 48.76,54.462 Q43.915,57.731 39.182,59.035 Q38.954,59.098 38.718,59.107 Q38.66,59.109 38.158,59.254 Q36.657,59.689 35.597,59.474 Q32.448,60.552 29.997,59.529 Q29.766,59.629 29.51,59.695 Q28.429,59.972 27.362,59.481 Z M14.344,38.871 Q15.283,39.306 17.082,40.235 Q17.393,40.396 17.679,40.542 Q16.862,37.917 16.816,36.231 Q16.15,36.044 15.427,35.703 Q15.344,35.664 15.265,35.618 L14.926,35.418 Q11.817,33.594 10.224,32.864 Q8.366,32.012 9.218,30.154 Q10.069,28.295 11.928,29.147 Q13.462,29.85 16.114,31.38 Q16.109,30.005 16.275,27.794 Q16.366,26.579 16.395,25.983 Q16.396,25.967 16.397,25.954 Q15.692,25.627 14.851,25.161 Q13.534,24.431 12.907,24.216 Q11.94,23.885 11.622,23.236 Q11.303,22.588 11.634,21.62 Q12.296,19.686 14.23,20.348 Q15.2,20.679 16.835,21.586 Q17.228,21.804 17.569,21.979 Q18.148,18.52 21.081,15.016 Q21.097,14.997 21.113,14.978 Q24.491,11.137 29.034,10.225 Q31.039,9.822 31.441,11.827 Q31.642,12.829 31.242,13.43 Q30.842,14.032 29.839,14.233 Q26.66,14.872 24.2,17.66 Q23.196,18.862 22.568,20.004 Q23.716,19.291 24.487,18.958 Q29.099,16.721 35.657,16.418 Q37.699,16.324 37.793,18.366 Q37.887,20.408 35.845,20.502 Q30.098,20.767 26.233,22.655 Q26.182,22.68 26.129,22.702 Q25.472,22.979 24.126,23.86 Q22.23,25.102 20.866,25.586 Q20.843,25.622 20.819,25.66 Q20.513,26.141 20.474,26.286 Q20.44,26.926 20.352,28.1 Q20.186,30.315 20.204,31.525 Q20.697,31.164 21.236,30.677 Q21.307,30.613 21.384,30.556 Q28.514,25.238 37.59,25.051 Q37.631,25.05 37.672,25.051 L37.894,25.055 L38.092,25.056 Q39.114,25.064 39.621,25.578 Q40.129,26.093 40.121,27.115 Q40.107,29.159 38.063,29.145 L37.815,29.143 L37.634,29.139 Q29.939,29.31 23.901,33.779 Q22.364,35.152 20.905,35.867 Q20.905,35.903 20.903,35.941 Q20.86,37.033 21.612,39.42 Q22.188,41.249 22.396,42.535 Q22.41,42.544 22.425,42.554 Q22.804,42.219 23.294,41.688 Q24.347,40.547 25.08,40.01 Q30.685,35.289 38.127,34.863 Q39.147,34.805 39.687,35.286 Q40.226,35.767 40.284,36.787 Q40.401,38.828 38.36,38.945 Q32.243,39.295 27.661,43.181 Q27.591,43.24 27.516,43.293 Q27.117,43.574 26.299,44.46 Q25.472,45.357 24.719,45.95 Q24.988,47.018 26.026,48.353 Q26.061,48.398 26.094,48.445 Q28.065,51.296 30.732,53.958 Q31.666,54.848 31.873,55.84 Q32.649,56.032 33.683,55.779 Q34.088,54.627 35.158,53.322 Q35.797,52.542 35.922,52.236 Q35.98,52.091 36.06,51.957 Q36.535,51.163 36.596,48.886 Q36.659,46.543 37.055,45.276 Q37.72,42.917 40.966,40.506 Q41.942,39.781 42.352,39.404 Q43.894,38.018 43.161,34.222 Q41.955,29.714 43.717,25.665 Q43.734,25.626 43.753,25.587 Q43.817,25.454 43.953,25.178 Q45.554,21.907 45.49,20.334 Q45.486,20.221 45.494,20.109 Q45.585,18.789 44.446,17.173 Q42.813,14.931 42.554,12.375 Q42.402,11.969 42.207,11.357 Q41.731,9.861 41.377,9.651 Q36.827,7.531 29.753,8.303 Q22.273,8.983 16.364,14.491 Q9.688,20.623 8.796,29.875 Q8.15,36.638 11.368,43.042 Q16.22,52.763 26.16,55.083 Q24.281,53.006 22.763,50.817 Q21.028,48.568 20.645,46.439 Q19.986,45.616 18.628,45.443 Q18.317,45.404 18.032,45.273 Q17.061,44.826 15.204,43.867 Q13.485,42.978 12.626,42.581 Q11.699,42.151 11.45,41.473 Q11.201,40.794 11.63,39.867 Q12.489,38.012 14.344,38.871 Z M50.883,36.02 Q51.144,36.305 51.676,36.875 Q53.282,38.598 54.304,39.88 Q54.455,39.284 54.587,38.501 Q54.725,37.685 54.812,37.267 Q54.821,37.228 54.83,37.19 L54.37,37.004 Q52.83,35.9 52.3,34.69 Q51.071,32.971 48.832,30.694 Q47.399,29.236 48.857,27.803 Q50.315,26.37 51.748,27.828 Q53.929,30.046 55.29,31.855 Q55.287,31.605 55.281,31.339 L55.28,31.305 Q55.176,22.731 48.534,16.026 Q49.691,18.178 49.579,20.281 Q49.637,22.866 47.624,26.976 Q47.523,27.182 47.45,27.334 Q46.269,30.082 47.125,33.221 Q47.145,33.292 47.159,33.363 Q47.491,35.046 47.484,36.49 Q47.674,36.19 47.994,35.896 Q48.747,35.205 49.469,35.236 Q50.191,35.267 50.883,36.02 Z M49.262,42.789 Q50.06,43.609 51.182,45.357 Q51.397,45.692 51.59,45.977 Q51.609,45.945 51.619,45.92 Q51.756,45.556 52.017,45.267 Q52.233,45.029 52.507,44.139 Q52.272,43.941 52.073,43.72 Q51.973,43.609 51.89,43.485 Q50.997,42.142 48.686,39.664 Q48.142,39.081 47.87,38.785 Q47.532,38.416 47.367,38.055 Q46.953,40.765 45.085,42.445 Q44.552,42.935 43.403,43.788 Q41.263,45.378 40.988,46.392 Q40.975,46.439 40.961,46.484 Q40.731,47.196 40.683,48.996 Q40.596,52.218 39.645,53.925 Q39.469,54.312 39.171,54.768 Q42.746,53.588 46.474,51.073 Q47.957,50.049 48.844,49.161 Q48.333,48.488 47.741,47.564 Q46.843,46.164 46.333,45.641 Q45.62,44.909 45.63,44.186 Q45.639,43.464 46.372,42.751 Q47.836,41.324 49.262,42.789 Z"/></svg>