<svg xmlns="http://www.w3.org/2000/svg" width="64" height="64" viewBox="0 0 64 64" version="1.1">
	<path d="M 39.299 5.503 C 36.767 7.277, 34.598 13.158, 35.466 15.894 C 36.017 17.629, 35.683 17.767, 32.099 17.286 C 29.911 16.993, 27.003 17.033, 25.638 17.376 C 21.777 18.345, 16.935 23.872, 13.702 31 C 9.019 41.323, 3.783 58.183, 4.910 59.310 C 6.125 60.525, 12.847 58.766, 22.424 54.726 C 38.798 47.819, 46 40.919, 46 32.140 L 46 28.181 50.568 28.250 C 54.180 28.304, 55.666 27.788, 57.672 25.783 C 60.087 23.368, 60.131 23.129, 58.590 20.778 C 56.859 18.136, 53.056 16, 50.084 16 C 48.784 16, 48.102 15.019, 47.707 12.581 C 47.068 8.642, 44.309 4, 42.607 4 C 41.968 4, 40.479 4.676, 39.299 5.503 M 40.683 9.650 C 39.656 10.677, 39.862 17.874, 40.979 19.961 C 42.665 23.111, 52.972 25.472, 54.469 23.050 C 55.420 21.511, 51.163 19.833, 47.184 20.179 L 43.500 20.500 43.414 15.714 C 43.330 11.062, 42.070 8.263, 40.683 9.650 M 25.110 22.396 C 22.987 23.572, 18.019 30.410, 18.005 32.173 C 18.002 32.544, 19.164 34.230, 20.587 35.921 C 22.902 38.672, 22.993 39.065, 21.455 39.656 C 20.509 40.019, 18.851 39.763, 17.770 39.089 C 16.689 38.414, 15.622 38.045, 15.398 38.268 C 14.875 38.791, 10 53.103, 10 54.114 C 10 54.535, 12.061 54.176, 14.579 53.318 C 17.855 52.202, 18.851 51.451, 18.079 50.679 C 16.542 49.142, 16.743 46, 18.378 46 C 19.135 46, 20.315 46.675, 21 47.500 C 21.685 48.325, 22.883 49, 23.662 49 C 25.723 49, 32.244 45.507, 35.854 42.469 L 38.976 39.843 35.488 36.553 C 31.701 32.982, 31.154 31.262, 33.517 30.355 C 34.441 30, 35.837 30.794, 37.089 32.387 C 41.128 37.521, 43.726 34.239, 40.524 28.047 C 38.766 24.646, 33.210 20.986, 29.882 21.035 C 28.572 21.055, 26.424 21.667, 25.110 22.396" stroke="none" fill="#000000" fill-rule="evenodd"/>
</svg>