<svg xmlns="http://www.w3.org/2000/svg" width="64" height="64" viewBox="0 0 64 64"><defs/><path id="path444" fill="#000000" d="M42.422,8.107 Q46.594,12.901 45.723,17.927 Q52.341,17.238 55.851,23.158 Q56.422,24.122 55.795,25.05 Q52.062,30.571 43.453,27.784 Q45.646,32.243 43.289,37.262 Q41.084,41.958 36.156,45.262 Q24.959,52.771 10.094,56.448 Q9.236,56.661 8.701,56.338 Q8.166,56.014 7.953,55.157 Q7.843,54.711 7.964,54.268 Q11.569,41.017 15.651,31.888 Q15.35,30.715 16.47,30.109 Q16.985,29.021 17.509,27.995 Q20.836,21.48 25.879,19.42 Q30.597,17.494 35.502,20.079 Q33.804,11.158 40.255,7.709 Q41.497,7.045 42.422,8.107 Z M34.187,42.326 Q36.747,40.609 38.406,38.486 Q33.926,36.054 32.312,32.577 Q31.567,30.973 33.171,30.228 Q34.774,29.484 35.518,31.087 Q36.666,33.559 40.227,35.452 Q42.448,30.277 37.332,25.709 Q36.802,25.523 36.562,25.049 Q31.555,20.923 27.216,22.694 Q23.388,24.257 20.658,29.603 Q20.08,30.736 19.51,31.95 Q21.161,35.47 22.486,35.914 Q23.324,36.195 23.603,36.755 Q23.881,37.314 23.6,38.152 Q23.037,39.829 21.362,39.266 Q19.456,38.627 17.731,36.005 Q14.849,42.996 12.202,52.234 Q16.784,50.945 20.975,49.258 Q19.475,48.073 18.776,46.567 Q18.403,45.765 18.619,45.178 Q18.833,44.591 19.635,44.219 Q21.238,43.475 21.983,45.078 Q22.625,46.461 24.927,47.541 Q29.852,45.233 34.187,42.326 Z M39.709,22.597 Q40.76,22.917 42.285,23.568 Q49.223,26.529 52.11,23.942 Q49.208,20.303 43.627,21.952 Q42.98,22.144 42.371,21.856 Q41.572,21.478 41.361,20.89 Q41.15,20.301 41.527,19.502 Q43.388,15.562 40.713,11.661 Q37.617,14.405 39.312,20.907 Q39.565,21.877 39.709,22.597 Z"/></svg>