<svg xmlns="http://www.w3.org/2000/svg" width="64" height="64" viewBox="0 0 64 64"><defs/><path id="path444" fill="#000000" d="M43.911,4.694 Q48.679,10.172 47.684,15.917 Q55.247,15.129 59.258,21.895 Q59.911,22.997 59.194,24.057 Q54.928,30.367 45.089,27.182 Q47.596,32.278 44.902,38.014 Q42.382,43.38 36.75,47.157 Q23.953,55.738 6.965,59.941 Q5.984,60.184 5.372,59.815 Q4.761,59.445 4.518,58.465 Q4.392,57.955 4.53,57.449 Q8.65,42.305 13.315,31.872 Q12.971,30.532 14.251,29.839 Q14.84,28.595 15.439,27.423 Q19.241,19.977 25.005,17.623 Q30.397,15.422 36.002,18.376 Q34.062,8.18 41.434,4.239 Q42.854,3.48 43.911,4.694 Z M34.499,43.801 Q37.425,41.839 39.321,39.413 Q34.201,36.633 32.356,32.659 Q31.505,30.826 33.338,29.975 Q35.17,29.124 36.021,30.957 Q37.333,33.782 41.402,35.945 Q43.941,30.031 38.094,24.81 Q37.488,24.598 37.214,24.056 Q31.491,19.34 26.533,21.365 Q22.158,23.151 19.038,29.261 Q18.377,30.555 17.726,31.943 Q19.613,35.966 21.127,36.473 Q22.085,36.794 22.403,37.434 Q22.721,38.073 22.4,39.031 Q21.757,40.947 19.842,40.304 Q17.664,39.574 15.693,36.577 Q12.399,44.567 9.374,55.125 Q14.61,53.651 19.4,51.724 Q17.686,50.369 16.887,48.648 Q16.461,47.732 16.707,47.061 Q16.952,46.39 17.869,45.964 Q19.701,45.114 20.552,46.946 Q21.286,48.527 23.916,49.761 Q29.545,47.123 34.499,43.801 Z M40.81,21.254 Q42.011,21.619 43.754,22.363 Q51.683,25.748 54.983,22.791 Q51.666,18.632 45.288,20.517 Q44.549,20.736 43.852,20.407 Q42.939,19.975 42.698,19.303 Q42.457,18.63 42.888,17.717 Q45.015,13.214 41.958,8.755 Q38.419,11.891 40.357,19.322 Q40.646,20.431 40.81,21.254 Z"/></svg>