<svg xmlns="http://www.w3.org/2000/svg" width="64" height="64" viewBox="0 0 64 64"><defs/><path id="path856" fill="#000000" d="M56.336,15.7 Q56.633,17.325 53.865,19.12 Q55.977,21.695 56.414,24.546 Q57.199,29.653 51.963,31.659 Q50.91,32.063 50.236,31.488 Q43.457,37.212 32.214,43.125 Q16.411,51.435 8.822,49.353 Q8.577,49.286 8.361,49.153 Q6.827,48.217 7.763,46.683 Q9.874,43.225 19.293,38.551 Q34.083,31.212 38.599,22.266 Q38.293,22.029 38.155,21.718 Q37.896,21.138 38.217,20.299 Q38.254,20.201 38.303,20.107 Q40.65,15.628 44.537,14.976 Q47.701,14.445 51.087,16.629 Q51.366,16.445 51.733,16.216 Q52.458,15.764 52.772,15.533 Q52.824,15.193 53,14.939 Q53.361,14.416 54.245,14.255 Q56.013,13.931 56.336,15.7 Z M48.459,28.278 L47.833,27.025 L43.44,28.09 Q41.693,28.513 41.27,26.767 Q41.179,26.389 41.25,26.008 L41.565,24.351 Q36.373,34.088 20.891,41.771 Q15.893,44.251 13.293,46.163 Q19.534,45.731 30.541,39.943 Q41.909,33.966 48.459,28.278 Z M50.133,20.361 Q47.318,18.154 45.133,18.521 Q43.924,18.724 42.911,19.747 Q43.042,19.969 43.078,20.236 L44.403,20.743 Q45.807,21.28 45.527,22.757 L45.302,23.94 L48.377,23.195 Q49.768,22.857 50.408,24.137 L52.08,27.482 Q53.087,26.56 52.862,25.092 Q52.491,22.679 50.133,20.361 Z M52.751,15.816 Q52.742,16.027 52.8,16.345 Q52.748,16.063 52.751,15.816 Z"/></svg>