<svg xmlns="http://www.w3.org/2000/svg" width="64" height="64" viewBox="0 0 64 64"><defs/><path id="path856" fill="#000000" d="M59.813,13.371 Q60.152,15.229 56.989,17.28 Q59.402,20.223 59.902,23.481 Q60.799,29.318 54.815,31.61 Q53.611,32.072 52.841,31.415 Q45.094,37.957 32.244,44.714 Q14.184,54.211 5.511,51.832 Q5.231,51.755 4.984,51.604 Q3.231,50.534 4.301,48.781 Q6.713,44.829 17.478,39.487 Q34.38,31.099 39.542,20.875 Q39.192,20.605 39.034,20.249 Q38.738,19.586 39.105,18.627 Q39.148,18.515 39.204,18.408 Q41.886,13.289 46.328,12.544 Q49.944,11.937 53.814,14.433 Q54.132,14.223 54.552,13.961 Q55.381,13.445 55.739,13.18 Q55.799,12.792 56,12.502 Q56.412,11.904 57.423,11.72 Q59.443,11.35 59.813,13.371 Z M50.81,27.746 L50.095,26.314 L45.074,27.531 Q43.078,28.015 42.594,26.019 Q42.49,25.588 42.572,25.152 L42.932,23.258 Q36.998,34.386 19.304,43.167 Q13.592,46.001 10.621,48.186 Q17.753,47.693 30.333,41.078 Q43.324,34.247 50.81,27.746 Z M52.723,18.698 Q49.506,16.176 47.009,16.595 Q45.627,16.827 44.47,17.997 Q44.619,18.25 44.661,18.555 L46.175,19.135 Q47.779,19.749 47.459,21.436 L47.202,22.789 L50.717,21.937 Q52.306,21.551 53.038,23.014 L54.949,26.837 Q56.1,25.783 55.842,24.105 Q55.418,21.347 52.723,18.698 Z M55.715,13.504 Q55.705,13.745 55.771,14.109 Q55.712,13.786 55.715,13.504 Z"/></svg>