<svg xmlns="http://www.w3.org/2000/svg" width="64" height="64" viewBox="0 0 64 64" version="1.1">
	<path d="M 43.775 13.559 C 40.692 15.232, 39 17.868, 39 20.999 C 39 24.750, 29.340 33.099, 18.356 38.842 C 7.510 44.513, 3.378 47.936, 4.342 50.449 C 5.201 52.688, 13.359 52.457, 20.528 49.990 C 27.291 47.664, 36.719 42.639, 46.052 36.388 C 49.655 33.975, 53.082 32, 53.667 32 C 54.252 32, 55.916 31.067, 57.365 29.927 C 60.350 27.579, 60.778 24.015, 58.580 19.801 C 57.368 17.479, 57.369 16.939, 58.586 15.929 C 59.364 15.283, 60 14.135, 60 13.378 C 60 11.720, 56.849 11.551, 55.276 13.124 C 54.443 13.957, 53.314 13.957, 50.927 13.124 C 46.985 11.750, 47.123 11.742, 43.775 13.559 M 45 17.500 C 45 18.802, 49.216 22, 50.933 22 C 51.996 22, 53.151 22.900, 53.500 24 C 54.228 26.294, 56 26.703, 56 24.577 C 56 21.728, 50.953 17, 47.911 17 C 46.310 17, 45 17.225, 45 17.500 M 36 31.936 C 32.248 35.762, 27.535 39.076, 21.171 42.361 C 16.040 45.009, 12.029 47.362, 12.257 47.590 C 12.888 48.222, 22.861 44.607, 29.022 41.515 C 36.349 37.837, 50 28.831, 50 27.675 C 50 27.166, 48.667 27.017, 47.039 27.342 C 45.410 27.668, 43.809 27.499, 43.480 26.967 C 42.559 25.478, 41.904 25.913, 36 31.936" stroke="none" fill="#000000" fill-rule="evenodd"/>
</svg>