<svg xmlns="http://www.w3.org/2000/svg" width="64" height="64" viewBox="0 0 64 64"><defs/><path id="path1029" fill="#000000" d="M38.036,44.137 Q32.547,49.242 27.336,48.131 Q22.12,47.018 20.812,40.678 Q10.043,51.034 10.022,57.577 Q10.015,60.008 7.584,60 Q5.152,59.992 5.16,57.561 Q5.186,49.465 16.692,38.001 Q12.613,34.312 12.027,30.079 Q11.221,24.25 17.354,20.585 Q18.525,19.885 19.691,20.497 Q18.99,14.777 25.038,11.163 Q26.296,10.411 27.548,11.172 Q29.177,12.163 30.414,13.245 Q29.988,7.821 35.805,4.344 Q37.063,3.592 38.315,4.354 Q42.967,7.182 44.423,10.761 Q45.128,9.105 46.267,7.821 Q50.17,3.418 56.943,5.693 Q58.332,6.16 58.568,7.606 Q59.775,15.004 55.96,18.725 Q55.151,19.514 54.244,20.027 Q56.228,21.961 57.178,25.482 Q57.56,26.897 56.487,27.895 Q51.281,32.739 46.324,31.987 Q46.368,32.142 46.411,32.301 Q46.793,33.716 45.72,34.714 Q41.613,38.535 37.661,38.874 Q38.299,40.138 38.727,41.723 Q39.108,43.138 38.036,44.137 Z M44.085,23.705 Q44.799,26.707 46.802,27.134 Q49.087,27.622 51.999,25.344 Q50.922,22.884 48.821,22.593 Q46.7,22.299 44.085,23.705 Z M33.318,30.524 Q34.032,33.525 36.035,33.953 Q38.32,34.44 41.232,32.163 Q40.155,29.703 38.054,29.411 Q35.933,29.118 33.318,30.524 Z M33.548,41.585 Q32.471,39.125 30.369,38.834 Q28.249,38.54 25.634,39.946 Q26.347,42.948 28.351,43.375 Q30.636,43.863 33.548,41.585 Z M26.313,16.185 Q24.238,17.889 24.528,19.991 Q24.821,22.111 26.885,24.246 Q29.58,22.744 29.447,20.7 Q29.295,18.368 26.313,16.185 Z M37.08,9.366 Q35.005,11.071 35.295,13.172 Q35.589,15.293 37.652,17.428 Q40.347,15.925 40.214,13.881 Q40.062,11.549 37.08,9.366 Z M19.201,33.669 Q21.896,32.166 21.763,30.122 Q21.611,27.791 18.628,25.607 Q16.553,27.312 16.844,29.413 Q17.137,31.534 19.201,33.669 Z M48.205,15.605 Q51.099,16.675 52.565,15.244 Q54.238,13.613 53.956,9.927 Q51.312,9.459 49.905,11.047 Q48.485,12.649 48.205,15.605 Z M35.65,22.204 Q35.636,22.193 35.622,22.181 Q34.924,21.584 34.319,20.972 Q34.32,22.341 33.898,23.547 Q34.805,22.855 35.65,22.204 Z M28.403,33.988 Q28.862,33.937 29.317,33.924 Q29.209,33.674 29.11,33.412 Q28.757,33.698 28.403,33.988 Z"/></svg>