<svg xmlns="http://www.w3.org/2000/svg" width="64" height="64" viewBox="0 0 64 64"><defs/><path id="path1029" fill="#000000" d="M37.281,42.62 Q32.479,47.087 27.919,46.115 Q23.355,45.141 22.211,39.593 Q12.788,48.655 12.769,54.38 Q12.763,56.507 10.636,56.5 Q8.508,56.493 8.515,54.366 Q8.538,47.282 18.605,37.251 Q15.036,34.023 14.524,30.319 Q13.818,25.219 19.185,22.012 Q20.209,21.399 21.23,21.935 Q20.616,16.93 25.908,13.768 Q27.009,13.11 28.104,13.776 Q29.53,14.643 30.612,15.589 Q30.24,10.843 35.329,7.801 Q36.43,7.143 37.526,7.81 Q41.596,10.284 42.87,13.416 Q43.487,11.967 44.484,10.843 Q47.899,6.991 53.825,8.981 Q55.041,9.39 55.247,10.655 Q56.303,17.128 52.965,20.384 Q52.257,21.075 51.464,21.524 Q53.2,23.216 54.031,26.297 Q54.365,27.535 53.426,28.408 Q48.871,32.647 44.534,31.989 Q44.572,32.124 44.61,32.263 Q44.944,33.501 44.005,34.375 Q40.411,37.718 36.953,38.015 Q37.512,39.121 37.886,40.508 Q38.22,41.746 37.281,42.62 Z M42.574,24.742 Q43.199,27.369 44.952,27.742 Q46.951,28.169 49.499,26.176 Q48.557,24.024 46.718,23.769 Q44.862,23.512 42.574,24.742 Z M33.153,30.708 Q33.778,33.334 35.531,33.709 Q37.53,34.135 40.078,32.143 Q39.136,29.99 37.297,29.735 Q35.441,29.478 33.153,30.708 Z M33.354,40.387 Q32.412,38.234 30.573,37.98 Q28.718,37.722 26.43,38.953 Q27.054,41.58 28.807,41.953 Q30.806,42.38 33.354,40.387 Z M27.024,18.162 Q25.208,19.653 25.462,21.492 Q25.718,23.347 27.524,25.215 Q29.882,23.901 29.766,22.113 Q29.633,20.072 27.024,18.162 Z M36.445,12.195 Q34.629,13.687 34.883,15.526 Q35.14,17.381 36.945,19.25 Q39.304,17.934 39.187,16.146 Q39.054,14.105 36.445,12.195 Z M20.801,33.46 Q23.159,32.145 23.043,30.357 Q22.91,28.317 20.299,26.406 Q18.484,27.898 18.738,29.736 Q18.995,31.592 20.801,33.46 Z M46.179,17.654 Q48.712,18.591 49.994,17.339 Q51.458,15.911 51.212,12.686 Q48.898,12.277 47.667,13.666 Q46.424,15.068 46.179,17.654 Z M35.194,23.429 Q35.182,23.419 35.169,23.408 Q34.559,22.886 34.029,22.351 Q34.03,23.548 33.661,24.604 Q34.454,23.998 35.194,23.429 Z M28.853,33.739 Q29.254,33.695 29.652,33.684 Q29.558,33.465 29.471,33.235 Q29.162,33.486 28.853,33.739 Z"/></svg>