<svg xmlns="http://www.w3.org/2000/svg" width="64" height="64" viewBox="0 0 64 64" version="1.1">
	<path d="M 33.323 6.250 C 32.209 7.488, 31.023 9.280, 30.687 10.233 C 30.226 11.540, 29.366 11.823, 27.186 11.387 C 24.849 10.920, 23.884 11.332, 22.148 13.539 C 20.966 15.041, 20 17.079, 20 18.067 C 20 19.056, 19.112 20.147, 18.026 20.492 C 15.187 21.393, 11.999 25.836, 12.005 28.885 C 12.008 30.323, 12.848 32.850, 13.872 34.500 L 15.734 37.500 12.323 41.722 C 5.772 49.831, 3.050 59.500, 7.319 59.500 C 8.624 59.500, 9.647 57.996, 10.942 54.173 C 11.993 51.066, 14.316 47.237, 16.514 44.985 L 20.284 41.125 22.424 44.313 C 25.598 49.039, 32.119 49.333, 36.812 44.960 C 38.293 43.581, 38.876 42.186, 38.487 40.958 C 38.020 39.487, 38.689 38.739, 41.534 37.550 C 43.540 36.712, 45.417 35.121, 45.707 34.013 C 46.026 32.791, 47.071 31.999, 48.367 31.996 C 49.540 31.994, 51.962 31.101, 53.750 30.011 C 57.202 27.906, 57.859 25.348, 55.794 22.042 C 54.805 20.458, 54.910 19.757, 56.379 18.134 C 58.692 15.578, 59.680 8.525, 58.008 6.510 C 55.949 4.029, 49.728 4.596, 46.987 7.514 L 44.625 10.028 41.515 7.014 C 37.799 3.413, 36.026 3.247, 33.323 6.250 M 35.738 11.250 C 35.004 13.181, 36.846 17.218, 38.249 16.751 C 39.999 16.168, 40.399 13.186, 38.960 11.452 C 37.481 9.670, 36.366 9.600, 35.738 11.250 M 50.200 11.200 C 48.526 12.874, 48.699 16, 50.465 16 C 51.922 16, 54 13.099, 54 11.066 C 54 9.631, 51.687 9.713, 50.200 11.200 M 25.015 19.250 C 25.024 20.488, 25.455 22.171, 25.974 22.992 C 27.428 25.292, 29.401 22.732, 28.608 19.573 C 27.805 16.377, 24.994 16.124, 25.015 19.250 M 44.570 23.887 C 43.765 25.189, 46.618 27.220, 48.690 26.821 C 49.673 26.632, 50.628 25.695, 50.812 24.739 C 51.070 23.398, 50.457 23, 48.132 23 C 46.474 23, 44.871 23.399, 44.570 23.887 M 17.527 26.956 C 16.471 28.666, 17.822 33, 19.412 33 C 20.168 33, 21.077 32.243, 21.432 31.317 C 22.236 29.220, 18.622 25.184, 17.527 26.956 M 34.187 31.750 C 34.561 33.710, 37.774 34.482, 39.878 33.118 C 41.966 31.763, 40.263 30, 36.868 30 C 34.536 30, 33.929 30.397, 34.187 31.750 M 26.482 40.030 C 26.093 40.659, 26.223 41.623, 26.772 42.172 C 28.228 43.628, 32.500 42.754, 32.500 41 C 32.500 39.186, 27.501 38.380, 26.482 40.030" stroke="none" fill="#000000" fill-rule="evenodd"/>
</svg>