<svg xmlns="http://www.w3.org/2000/svg" width="64" height="64" viewBox="0 0 64 64" version="1.1">
	<path d="M 45.500 8.176 C 44.400 8.787, 40.350 12.516, 36.500 16.462 C 32.024 21.049, 26.560 25.314, 21.347 28.289 C 7.039 36.454, 0.237 48.116, 6.402 53.908 C 11.695 58.881, 24.143 57.091, 31.666 50.275 C 37.952 44.580, 58.983 21.210, 59.122 19.765 C 59.752 13.261, 59.566 8.850, 58.637 8.276 C 56.711 7.085, 47.586 7.016, 45.500 8.176 M 43.753 15.131 C 39.829 19.249, 39.720 19.519, 41.853 19.827 C 43.336 20.042, 44.007 20.727, 43.797 21.816 C 43.406 23.844, 40.026 24.660, 38.986 22.978 C 38.450 22.110, 36.688 22.913, 32.867 25.767 C 29.915 27.971, 25.600 30.728, 23.278 31.894 C 20.956 33.059, 17.539 35.344, 15.685 36.972 C 11.574 40.581, 7.434 48.082, 8.302 50.345 C 9.198 52.681, 11 52.404, 11 49.930 C 11 48.375, 11.539 47.940, 13.172 48.180 C 16.231 48.631, 16.606 50.810, 13.834 52.027 C 11.962 52.849, 12.440 52.951, 16.253 52.544 C 23.602 51.760, 27.769 49.005, 37.330 38.605 C 44.283 31.041, 45.717 29, 44.080 29 C 42.667 29, 42 28.359, 42 27 C 42 24.657, 45.744 24.170, 46.601 26.402 C 47.446 28.604, 55.250 19.604, 55.250 16.428 C 55.250 13.317, 54.374 12.357, 50.708 11.452 C 48.299 10.857, 47.345 11.362, 43.753 15.131 M 45.481 18.030 C 45.093 18.659, 45.227 19.627, 45.781 20.181 C 47.202 21.602, 50.500 20.767, 50.500 18.986 C 50.500 17.188, 46.476 16.422, 45.481 18.030 M 33.481 27.030 C 33.093 27.659, 33.227 28.627, 33.781 29.181 C 35.202 30.602, 38.500 29.767, 38.500 27.986 C 38.500 26.188, 34.476 25.422, 33.481 27.030 M 33.481 34.030 C 33.093 34.659, 33.227 35.627, 33.781 36.181 C 35.202 37.602, 38.500 36.767, 38.500 34.986 C 38.500 33.188, 34.476 32.422, 33.481 34.030 M 22.701 34.632 C 21.130 36.203, 22.129 38, 24.573 38 C 26.479 38, 27.060 37.549, 26.812 36.261 C 26.461 34.441, 23.905 33.428, 22.701 34.632 M 29 39 C 29 40.467, 29.667 41, 31.500 41 C 33.333 41, 34 40.467, 34 39 C 34 37.533, 33.333 37, 31.500 37 C 29.667 37, 29 37.533, 29 39 M 14.190 41.750 C 14.629 44.025, 18.371 44.025, 18.810 41.750 C 19.062 40.439, 18.482 40, 16.500 40 C 14.518 40, 13.938 40.439, 14.190 41.750 M 22.190 46.750 C 22.376 47.712, 23.415 48.500, 24.500 48.500 C 25.585 48.500, 26.624 47.712, 26.810 46.750 C 27.062 45.439, 26.482 45, 24.500 45 C 22.518 45, 21.938 45.439, 22.190 46.750" stroke="none" fill="#000000" fill-rule="evenodd"/>
</svg>