<svg xmlns="http://www.w3.org/2000/svg" width="64" height="64" viewBox="0 0 64 64"><defs/><path id="path544" fill="#000000" d="M52.366,26.207 Q48.538,29.913 40.987,38.243 Q30.74,49.547 27.698,51.068 Q17.447,56.194 10.72,52.343 Q6.832,50.117 7.599,45.522 Q8.337,41.104 13.82,35.144 Q16.76,31.948 22.658,28.827 Q30.707,24.569 36.8,18.326 Q39.577,12.802 44.064,11.024 Q48.139,9.409 51.768,11.317 L52.667,10.628 Q53.879,9.701 54.95,10.786 L56.001,11.852 Q57.155,13.022 56.047,14.234 L55.408,14.933 Q56.007,16.198 56.136,17.746 Q56.506,22.196 52.366,26.207 Z M49.958,23.722 Q52.923,20.851 52.688,18.033 Q52.541,16.25 51.253,15.119 Q50.962,14.981 50.692,14.693 Q50.518,14.577 50.33,14.471 Q48.026,13.175 45.339,14.24 Q41.996,15.564 39.784,20.096 Q39.663,20.342 39.473,20.538 Q38.905,21.127 38.318,21.7 Q38.743,21.378 39.488,21.378 L40.775,21.378 Q42.505,21.378 42.505,23.108 Q42.505,24.838 40.775,24.838 L39.488,24.838 Q37.758,24.838 37.758,23.108 Q37.758,22.339 38.101,21.912 Q32.04,27.776 24.276,31.885 Q18.904,34.727 16.365,37.485 Q11.579,42.688 11.011,46.091 Q10.64,48.311 12.439,49.341 Q17.557,52.271 26.152,47.974 Q28.612,46.744 38.423,35.92 Q46.051,27.506 49.958,23.722 Z M24.805,33.924 L26.092,33.924 Q27.822,33.924 27.822,35.654 Q27.822,37.384 26.092,37.384 L24.805,37.384 Q23.075,37.384 23.075,35.654 Q23.075,33.924 24.805,33.924 Z M17.714,38.839 L19.002,38.839 Q20.731,38.839 20.731,40.568 Q20.731,42.298 19.002,42.298 L17.714,42.298 Q15.985,42.298 15.985,40.568 Q15.985,38.839 17.714,38.839 Z M24.67,43.168 L25.957,43.168 Q27.687,43.168 27.687,44.898 Q27.687,46.627 25.957,46.627 L24.67,46.627 Q22.94,46.627 22.94,44.898 Q22.94,43.168 24.67,43.168 Z M15.073,46.001 L16.36,46.001 Q18.09,46.001 18.09,47.731 Q18.09,49.46 16.36,49.46 L15.073,49.46 Q13.343,49.46 13.343,47.731 Q13.343,46.001 15.073,46.001 Z M45.415,18.738 L46.702,18.738 Q48.431,18.738 48.431,20.467 Q48.431,22.196 46.702,22.196 L45.415,22.196 Q43.685,22.196 43.685,20.467 Q43.685,18.738 45.415,18.738 Z M42.129,25.81 L43.417,25.81 Q45.146,25.81 45.146,27.54 Q45.146,29.27 43.417,29.27 L42.129,29.27 Q40.4,29.27 40.4,27.54 Q40.4,25.81 42.129,25.81 Z M30.92,36.403 L32.208,36.403 Q33.937,36.403 33.937,38.133 Q33.937,39.863 32.208,39.863 L30.92,39.863 Q29.191,39.863 29.191,38.133 Q29.191,36.403 30.92,36.403 Z M34.849,26.604 L36.136,26.604 Q37.866,26.604 37.866,28.333 Q37.866,30.063 36.136,30.063 L34.849,30.063 Q33.12,30.063 33.12,28.333 Q33.12,26.604 34.849,26.604 Z M34.849,32.873 L36.136,32.873 Q37.866,32.873 37.866,34.603 Q37.866,36.332 36.136,36.332 L34.849,36.332 Q33.12,36.332 33.12,34.603 Q33.12,32.873 34.849,32.873 Z"/></svg>