<svg xmlns="http://www.w3.org/2000/svg" width="64" height="64" viewBox="0 0 64 64"><defs/><path id="path544" fill="#000000" d="M55.275,25.379 Q50.9,29.615 42.271,39.135 Q30.56,52.054 27.084,53.792 Q15.368,59.65 7.68,55.249 Q3.237,52.705 4.113,47.454 Q4.956,42.404 11.223,35.593 Q14.583,31.94 21.323,28.374 Q30.522,23.507 37.486,16.372 Q40.659,10.059 45.788,8.027 Q50.445,6.182 54.592,8.362 L55.62,7.575 Q57.004,6.516 58.228,7.756 L59.43,8.974 Q60.749,10.311 59.482,11.696 L58.752,12.495 Q59.437,13.941 59.584,15.71 Q60.007,20.796 55.275,25.379 Z M52.524,22.539 Q55.912,19.258 55.644,16.038 Q55.475,14 54.003,12.707 Q53.671,12.55 53.362,12.22 Q53.163,12.088 52.948,11.967 Q50.315,10.486 47.244,11.703 Q43.424,13.216 40.896,18.395 Q40.758,18.676 40.541,18.901 Q39.891,19.574 39.221,20.228 Q39.706,19.861 40.558,19.861 L42.029,19.861 Q44.006,19.861 44.006,21.838 Q44.006,23.815 42.029,23.815 L40.558,23.815 Q38.581,23.815 38.581,21.838 Q38.581,20.959 38.972,20.471 Q32.046,27.173 23.172,31.869 Q17.033,35.117 14.132,38.269 Q8.662,44.215 8.013,48.104 Q7.589,50.641 9.645,51.818 Q15.494,55.167 25.316,50.256 Q28.128,48.85 39.341,36.48 Q48.058,26.864 52.524,22.539 Z M23.777,34.199 L25.248,34.199 Q27.225,34.199 27.225,36.176 Q27.225,38.153 25.248,38.153 L23.777,38.153 Q21.8,38.153 21.8,36.176 Q21.8,34.199 23.777,34.199 Z M15.673,39.816 L17.145,39.816 Q19.121,39.816 19.121,41.792 Q19.121,43.769 17.145,43.769 L15.673,43.769 Q13.697,43.769 13.697,41.792 Q13.697,39.816 15.673,39.816 Z M23.623,44.764 L25.094,44.764 Q27.071,44.764 27.071,46.741 Q27.071,48.717 25.094,48.717 L23.623,48.717 Q21.646,48.717 21.646,46.741 Q21.646,44.764 23.623,44.764 Z M12.655,48.001 L14.126,48.001 Q16.103,48.001 16.103,49.978 Q16.103,51.954 14.126,51.954 L12.655,51.954 Q10.678,51.954 10.678,49.978 Q10.678,48.001 12.655,48.001 Z M47.331,16.843 L48.802,16.843 Q50.778,16.843 50.778,18.819 Q50.778,20.796 48.802,20.796 L47.331,20.796 Q45.354,20.796 45.354,18.819 Q45.354,16.843 47.331,16.843 Z M43.576,24.926 L45.048,24.926 Q47.024,24.926 47.024,26.903 Q47.024,28.88 45.048,28.88 L43.576,28.88 Q41.6,28.88 41.6,26.903 Q41.6,24.926 43.576,24.926 Z M30.766,37.032 L32.238,37.032 Q34.214,37.032 34.214,39.009 Q34.214,40.986 32.238,40.986 L30.766,40.986 Q28.79,40.986 28.79,39.009 Q28.79,37.032 30.766,37.032 Z M35.256,25.833 L36.727,25.833 Q38.704,25.833 38.704,27.809 Q38.704,29.786 36.727,29.786 L35.256,29.786 Q33.28,29.786 33.28,27.809 Q33.28,25.833 35.256,25.833 Z M35.256,32.998 L36.727,32.998 Q38.704,32.998 38.704,34.975 Q38.704,36.951 36.727,36.951 L35.256,36.951 Q33.28,36.951 33.28,34.975 Q33.28,32.998 35.256,32.998 Z"/></svg>