<svg xmlns="http://www.w3.org/2000/svg" width="64" height="64" viewBox="0 0 64 64"><defs/><path id="path9" fill="#000000" d="M47.683,7.236 Q52.767,12.715 49.084,18.36 Q48.087,19.888 46.754,21.055 Q54.574,29.123 47.73,37.084 Q42.811,42.807 36.226,39.333 Q34.974,38.672 33.879,37.827 Q33.858,39.704 33.716,42.27 Q33.588,44.582 33.775,46.266 Q44.825,38.193 53.628,41.9 Q55.134,42.534 54.718,44.114 Q51.164,57.621 38.739,59.691 Q36.58,60.051 34.15,58.956 Q32.867,58.377 32,58.377 Q30.98,58.377 29.709,59.02 Q27.508,60.134 25.431,59.98 Q14.023,59.135 9.307,44.202 Q8.791,42.566 10.372,41.9 Q18.503,38.476 25.479,42.877 Q28.147,44.56 30.072,46.958 Q29.803,44.834 29.957,42.062 Q30.064,40.117 30.1,38.596 Q29.718,38.818 29.316,39.021 Q23.104,42.164 17.697,37.25 Q12.168,32.226 15.612,25.716 Q16.628,23.795 18.072,22.259 Q16.756,20.972 15.762,19.321 Q12.24,13.469 16.765,8.184 Q21.295,2.892 28.32,5.803 Q30.574,6.737 32.433,8.146 Q34.042,6.509 36.102,5.363 Q42.594,1.753 47.683,7.236 Z M44.923,9.797 Q41.843,6.479 37.932,8.654 Q35.673,9.91 34.127,11.927 Q34.066,12.006 33.998,12.078 Q32.701,13.443 31.336,12.146 Q29.437,10.342 26.878,9.282 Q22.378,7.416 19.625,10.632 Q16.867,13.854 18.988,17.379 Q20.193,19.379 22.003,20.643 Q22.229,20.801 22.401,21.017 Q23.571,22.492 22.096,23.662 Q20.135,25.217 18.94,27.477 Q16.862,31.404 20.229,34.464 Q23.717,37.634 27.616,35.661 Q29.771,34.571 31.152,32.812 Q31.287,32.64 31.458,32.503 Q32.929,31.328 34.104,32.799 Q35.701,34.799 37.983,36.003 Q41.913,38.076 44.875,34.63 Q49.962,28.712 42.575,22.284 Q42.344,22.083 42.188,21.818 Q41.234,20.195 42.857,19.241 Q44.733,18.139 45.931,16.302 Q48.007,13.121 44.923,9.797 Z M32.761,51.447 Q33.364,52.829 33.808,54.364 Q33.887,54.635 33.913,54.878 Q34.769,55.105 35.698,55.523 Q37.087,56.15 38.12,55.977 Q47.36,54.438 50.575,44.839 Q43.704,43.127 34.519,50.433 Q34.037,50.817 33.799,51.004 Q33.599,51.163 33.363,51.262 Q33.045,51.396 32.761,51.447 Z M30.03,54.878 Q28.171,49.027 23.47,46.062 Q18.854,43.15 13.479,44.773 Q17.471,55.615 25.709,56.225 Q26.742,56.301 28.009,55.661 Q29.039,55.14 30.03,54.878 Z M34.515,22.187 Q34.515,24.069 32.633,24.069 Q30.75,24.069 30.75,22.187 Q30.75,20.304 32.633,20.304 Q34.515,20.304 34.515,22.187 Z"/></svg>