<svg xmlns="http://www.w3.org/2000/svg" width="64" height="64" viewBox="0 0 64 64" version="1.1">
	<path d="M 50.540 5.956 C 49.412 7.202, 47.443 8, 45.494 8 C 39.891 8, 36.153 9.854, 35.809 12.805 C 35.546 15.060, 34.456 15.878, 28.500 18.289 C 12.445 24.788, 9.312 26.724, 6.946 31.611 C 0.997 43.901, 10.676 60, 24.016 60 C 32.528 60, 46.147 48.892, 52.492 36.772 C 54.121 33.660, 56.252 30.906, 57.227 30.651 C 59.274 30.116, 59.470 25.941, 57.869 17 C 57.328 13.975, 56.798 9.925, 56.692 8 C 56.460 3.770, 53.429 2.763, 50.540 5.956 M 47.750 12.784 C 44.620 13.181, 43.976 15, 46.965 15 C 48.045 15, 49.411 15.900, 50 17 C 51.334 19.492, 53 19.598, 53 17.191 C 53 14.293, 50.749 12.404, 47.750 12.784 M 36 20.481 C 34.625 21.285, 29.392 23.557, 24.371 25.528 C 19.351 27.500, 14.251 30.168, 13.039 31.458 C 9.834 34.870, 9.342 40.724, 11.795 46.268 C 15.331 54.263, 22.508 56.869, 30.430 53.034 C 36.304 50.191, 44.913 40.651, 48.883 32.586 C 52.568 25.101, 52.582 25, 49.979 25 C 48.793 25, 47.486 23.967, 46.818 22.500 C 46.192 21.125, 44.964 19.994, 44.089 19.986 C 43.215 19.979, 41.600 19.758, 40.500 19.495 C 39.400 19.232, 37.375 19.676, 36 20.481" stroke="none" fill="#000000" fill-rule="evenodd"/>
</svg>