<svg xmlns="http://www.w3.org/2000/svg" width="64" height="64" viewBox="0 0 64 64"><defs/><path id="path545" fill="#000000" d="M55.476,30.499 Q51.933,39.854 44.254,48.414 Q33.444,60.464 23.266,59.982 Q12.899,59.491 7.592,49.608 Q2.385,39.911 7.063,30.824 Q9.672,25.756 21.635,21.324 Q31.055,17.835 37.191,14.055 Q35.152,12.987 36.192,10.864 Q36.661,9.906 37.685,9.603 Q39.148,9.17 40.842,8.606 Q43.402,7.753 48.491,7.659 L49.259,7.644 L49.848,6.752 Q52.36,4.067 54.46,4.001 Q55.674,3.963 56.3,4.551 Q56.926,5.139 56.964,6.353 Q56.995,7.373 56.289,8.11 Q55.3,9.14 55.366,9.845 Q55.445,10.676 56.794,11.827 Q57.543,12.466 57.635,13.447 L59.01,28.064 Q59.238,30.482 56.82,30.71 Q56.049,30.782 55.476,30.499 Z M51.853,24.244 L50.373,24.969 Q49.282,25.504 48.47,25.225 Q47.657,24.947 47.124,23.856 Q47.033,23.672 46.975,23.475 L45.889,19.789 L42.017,19.789 Q40.067,19.789 39.683,18.223 Q33.134,22.244 23.322,25.879 Q13.128,29.655 11.382,33.047 Q7.872,39.863 11.871,47.31 Q15.877,54.77 23.495,55.131 Q31.369,55.503 40.638,45.171 Q49.297,35.518 52.19,24.917 L51.853,24.244 Z M53.23,18.474 L52.887,14.826 Q51.548,13.489 50.962,12.045 Q50.116,12.486 49.351,12.501 L48.581,12.515 Q46.005,12.563 44.304,12.799 Q44.781,13.716 44.446,14.516 L44.446,14.932 L47.705,14.932 Q49.521,14.932 50.035,16.674 L50.821,19.342 L51.88,18.823 Q52.618,18.462 53.23,18.474 Z"/></svg>