<svg xmlns="http://www.w3.org/2000/svg" width="64" height="64" viewBox="0 0 64 64"><defs/><path id="path545" fill="#000000" d="M52.542,30.687 Q49.441,38.872 42.722,46.362 Q33.264,56.906 24.358,56.484 Q15.287,56.055 10.643,47.407 Q6.087,38.922 10.18,30.971 Q12.463,26.537 22.931,22.658 Q31.173,19.606 36.542,16.298 Q34.758,15.364 35.668,13.506 Q36.078,12.668 36.974,12.403 Q38.254,12.024 39.737,11.53 Q41.977,10.784 46.43,10.702 L47.102,10.688 L47.617,9.908 Q49.815,7.559 51.653,7.501 Q52.715,7.468 53.263,7.982 Q53.81,8.497 53.844,9.559 Q53.871,10.451 53.253,11.096 Q52.388,11.998 52.445,12.614 Q52.514,13.341 53.695,14.349 Q54.35,14.908 54.431,15.766 L55.634,28.556 Q55.833,30.672 53.717,30.871 Q53.043,30.934 52.542,30.687 Z M49.371,25.213 L48.076,25.848 Q47.122,26.316 46.411,26.072 Q45.7,25.829 45.234,24.874 Q45.154,24.713 45.103,24.541 L44.153,21.315 L40.765,21.315 Q39.059,21.315 38.723,19.945 Q32.992,23.463 24.407,26.644 Q15.487,29.948 13.959,32.916 Q10.888,38.88 14.387,45.396 Q17.892,51.924 24.558,52.24 Q31.448,52.565 39.558,43.525 Q47.135,35.078 49.666,25.802 L49.371,25.213 Z M50.576,20.165 L50.276,16.973 Q49.104,15.803 48.592,14.539 Q47.852,14.925 47.182,14.938 L46.508,14.951 Q44.254,14.993 42.766,15.199 Q43.183,16.001 42.89,16.701 L42.89,17.066 L45.742,17.066 Q47.331,17.066 47.781,18.59 L48.468,20.924 L49.395,20.47 Q50.041,20.154 50.576,20.165 Z"/></svg>