<svg xmlns="http://www.w3.org/2000/svg" width="64" height="64" viewBox="0 0 64 64"><defs/><path id="path12" fill="#000000" d="M32.168,8.263 Q46.818,-0.209 55.545,8.514 Q65.678,18.641 55.741,31.432 Q64.88,48.296 55.214,56.328 Q45.49,64.407 32.476,54.858 Q16.646,63.877 8.772,54.699 Q1.039,45.684 9.321,31.9 Q-1.748,21.524 7.607,10.054 Q17.084,-1.567 32.168,8.263 Z M33.251,12.741 Q32.022,13.499 30.838,12.674 Q18.285,3.922 11.017,12.835 Q3.832,21.645 13.589,29.801 Q15.091,31.057 14.018,32.695 Q6.083,44.806 12.112,51.833 Q17.879,58.556 31.496,50.331 Q32.799,49.544 33.994,50.485 Q44.968,59.119 52.401,52.943 Q59.598,46.964 51.187,32.3 Q50.422,30.965 51.412,29.788 Q60.18,19.367 52.435,11.627 Q45.805,5 33.251,12.741 Z M27.98,23.631 Q31.461,21.805 34.819,23.043 Q37.844,24.159 39.381,27.175 Q43.148,34.564 35.557,38.982 Q32.186,40.945 28.865,39.478 Q26.055,38.238 24.575,35.132 Q20.875,27.366 27.967,23.638 Q27.974,23.634 27.98,23.631 Z M30.024,27.528 Q26.666,29.289 28.548,33.239 Q29.325,34.872 30.642,35.453 Q31.911,36.013 33.343,35.179 Q37.337,32.854 35.461,29.173 Q34.705,27.692 33.296,27.172 Q31.777,26.611 30.032,27.524 L30.024,27.528 Z"/></svg>