<svg xmlns="http://www.w3.org/2000/svg" width="64" height="64" viewBox="0 0 64 64"><defs/><path id="path653" fill="#000000" d="M23.916,56.078 Q10.734,58.88 5.732,49.281 Q0.685,39.595 7.694,32.334 Q8.247,31.761 10.547,29.942 Q21.206,21.514 22.43,16.746 Q22.415,16.704 22.398,16.658 Q20.854,12.509 20.854,9.712 Q20.854,7.983 22.583,7.983 Q23.4,7.983 26.227,7.783 Q38.194,6.933 42.652,8.412 Q43.091,8.558 43.399,8.903 Q44.517,10.158 43.882,14.272 Q43.054,19.634 44.651,20.862 Q66.003,37.284 57.508,49.493 Q52.966,56.02 35.779,55.269 Q34.835,55.227 34.049,55.205 Q33.957,55.252 33.863,55.299 Q32.727,55.867 32.008,55.183 Q30.993,55.197 30.526,55.278 Q30.302,55.383 30.014,55.437 Q29.567,55.581 29.2,55.531 L23.916,56.078 Z M31.438,10.967 Q29.168,11.04 26.472,11.232 Q25.315,11.314 24.468,11.364 Q24.766,13.107 25.639,15.453 Q27.425,20.254 26.217,22.941 Q24.721,26.271 21.236,30.713 Q16.352,36.938 17.287,42.981 Q18.196,48.853 26.052,51.886 Q26.5,52.059 26.71,52.14 Q26.867,52.201 27.003,52.282 L29.234,52.051 Q30.381,51.731 33.201,51.742 Q41.176,47.348 40.56,39.686 Q39.942,31.987 31.997,25.503 Q30.056,23.919 31.044,15.593 Q31.411,12.494 31.438,10.967 Z M39.026,51.892 Q51.58,51.958 54.669,47.518 Q61.282,38.015 42.543,23.603 Q39.325,21.127 40.464,13.745 Q40.728,12.04 40.796,11.478 Q38.672,10.972 34.884,10.926 Q34.861,12.767 34.477,16 Q33.714,22.441 34.183,22.824 Q43.271,30.241 44.007,39.409 Q44.612,46.937 39.026,51.892 Z M21.039,25.105 Q17.872,28.558 12.692,32.654 Q10.573,34.329 10.182,34.735 Q4.902,40.205 8.799,47.683 Q11.927,53.686 19.773,53.177 Q20.057,53.025 20.454,52.964 Q14.779,49.384 13.87,43.51 Q12.705,35.984 18.515,28.579 Q19.971,26.723 21.039,25.105 Z"/></svg>