<svg xmlns="http://www.w3.org/2000/svg" width="64" height="64" viewBox="0 0 64 64"><defs/><path id="path653" fill="#000000" d="M24.927,53.068 Q13.392,55.52 9.016,47.121 Q4.599,38.646 10.732,32.292 Q11.216,31.791 13.229,30.199 Q22.555,22.825 23.626,18.653 Q23.613,18.616 23.598,18.576 Q22.247,14.945 22.247,12.498 Q22.247,10.985 23.76,10.985 Q24.475,10.985 26.949,10.81 Q37.42,10.066 41.32,11.361 Q41.705,11.488 41.974,11.79 Q42.952,12.888 42.397,16.488 Q41.672,21.18 43.07,22.254 Q61.753,36.624 54.319,47.306 Q50.345,53.018 35.307,52.36 Q34.481,52.324 33.793,52.304 Q33.712,52.345 33.63,52.387 Q32.636,52.884 32.007,52.285 Q31.119,52.297 30.71,52.368 Q30.514,52.46 30.262,52.507 Q29.871,52.633 29.55,52.59 L24.927,53.068 Z M31.508,13.596 Q29.522,13.66 27.163,13.828 Q26.151,13.9 25.41,13.944 Q25.67,15.469 26.434,17.521 Q27.997,21.722 26.94,24.073 Q25.631,26.987 22.582,30.874 Q18.308,36.321 19.126,41.608 Q19.921,46.746 26.795,49.4 Q27.188,49.552 27.371,49.622 Q27.509,49.676 27.628,49.747 L29.58,49.545 Q30.583,49.265 33.051,49.274 Q40.029,45.43 39.49,38.725 Q38.949,31.989 31.997,26.315 Q30.299,24.929 31.163,17.644 Q31.485,14.932 31.508,13.596 Z M38.148,49.405 Q49.132,49.463 51.835,45.578 Q57.622,37.263 41.225,24.653 Q38.409,22.486 39.406,16.027 Q39.637,14.535 39.697,14.043 Q37.838,13.601 34.523,13.56 Q34.503,15.171 34.167,18 Q33.5,23.636 33.91,23.971 Q41.862,30.461 42.506,38.483 Q43.035,45.07 38.148,49.405 Z M22.409,25.967 Q19.638,28.988 15.106,32.572 Q13.251,34.038 12.909,34.393 Q8.289,39.179 11.699,45.723 Q14.436,50.975 21.301,50.53 Q21.55,50.397 21.897,50.344 Q16.932,47.211 16.136,42.071 Q15.117,35.486 20.201,29.007 Q21.475,27.383 22.409,25.967 Z"/></svg>