<svg xmlns="http://www.w3.org/2000/svg" width="64" height="64" viewBox="0 0 64 64" version="1.1">
	<path d="M 25.143 7.678 L 20.785 8.125 21.454 13.481 C 22.118 18.793, 22.089 18.871, 17.799 23.168 C 15.421 25.551, 11.584 29.210, 9.273 31.300 C 2.969 37.003, 2.235 45.561, 7.513 51.833 C 10.333 55.184, 17.564 57.579, 21.709 56.534 C 23.244 56.148, 30.101 55.623, 36.947 55.369 C 50.954 54.849, 55.103 53.518, 58.114 48.580 C 62.242 41.811, 59.986 35.185, 50.429 26.007 C 44.092 19.922, 44 19.757, 44 14.476 C 44 11.529, 43.568 8.851, 43.041 8.525 C 41.680 7.684, 30.317 7.146, 25.143 7.678 M 25.545 14.250 C 27.130 20.726, 26.501 23.357, 21.684 30.391 C 17.038 37.177, 16.401 39.631, 17.892 44.989 C 18.882 48.544, 24.479 52, 29.248 52 C 34.920 52, 40 46.881, 40 41.165 C 40 35.719, 38.778 32.867, 34.342 27.957 C 30.753 23.984, 30.606 23.541, 30.832 17.405 L 31.069 11 27.909 11 C 24.848 11, 24.775 11.101, 25.545 14.250 M 34.545 16.489 C 33.864 21.938, 33.943 22.194, 37.520 26.154 C 44.468 33.845, 45.921 41.890, 41.530 48.360 L 39.060 52 41.780 51.994 C 46.082 51.986, 51.955 50.045, 54.065 47.935 C 56.370 45.630, 56.622 40.103, 54.600 36.194 C 53.830 34.705, 50.198 30.647, 46.529 27.177 C 39.968 20.972, 39.862 20.789, 40.150 16.183 C 40.425 11.796, 40.279 11.481, 37.844 11.195 C 35.386 10.907, 35.206 11.196, 34.545 16.489 M 12.368 33.368 C 8.598 37.139, 8 38.312, 8 41.934 C 8 44.243, 8.463 46.997, 9.030 48.055 C 10.231 50.299, 15.105 53.035, 17.700 52.921 C 18.785 52.873, 18.995 52.639, 18.229 52.331 C 13.943 50.606, 12.528 37.926, 15.989 32.250 C 18.688 27.823, 17.567 28.169, 12.368 33.368" stroke="none" fill="#000000" fill-rule="evenodd"/>
</svg>