<svg xmlns="http://www.w3.org/2000/svg" width="64" height="64" viewBox="0 0 64 64"><defs/><path id="path658" fill="#000000" d="M43.776,44.562 Q37.444,50.951 26.483,48.396 Q22.535,47.475 19.878,45.727 Q16.603,49.966 17.464,54.694 Q17.738,56.201 16.232,56.476 Q14.725,56.749 14.451,55.243 Q13.331,49.095 17.529,43.756 Q14.67,40.671 14.428,35.906 Q13.88,25.128 27.008,20.985 Q40.031,16.875 45.192,8.245 Q45.978,6.931 47.292,7.717 Q47.828,8.037 47.987,8.64 Q51.205,20.823 49.272,31.671 Q47.675,40.628 43.776,44.562 Z M41.601,42.406 Q44.827,39.151 46.256,31.133 Q47.81,22.419 45.803,12.717 Q39.84,20.146 27.93,23.905 Q17.059,27.335 17.486,35.75 Q17.677,39.499 20.103,41.916 Q20.229,41.955 20.356,42.023 Q24.118,42.492 29.589,38.7 Q36.034,34.234 37.371,27.858 Q37.685,26.359 39.184,26.673 Q40.682,26.987 40.368,28.486 Q38.781,36.056 31.334,41.217 Q27.707,43.731 24.559,44.632 Q25.766,45.084 27.178,45.413 Q36.473,47.579 41.601,42.406 Z"/></svg>