<svg xmlns="http://www.w3.org/2000/svg" width="64" height="64" viewBox="0 0 64 64" version="1.1">
	<path d="M 44.782 7.656 C 40.743 12.982, 36.644 15.605, 26.925 19.081 C 15.781 23.067, 12.837 25.918, 12.224 33.314 C 11.916 37.025, 12.276 39.633, 13.395 41.796 C 14.917 44.740, 14.891 45.148, 12.945 48.881 C 11.415 51.816, 11.054 53.771, 11.551 56.421 C 12.488 61.416, 15 61.190, 15 56.111 C 15 53.848, 15.757 51.287, 16.810 49.987 C 18.564 47.820, 18.718 47.803, 21.861 49.428 C 25.905 51.519, 35.462 51.670, 40.137 49.716 C 48.161 46.364, 52.409 36.534, 52.332 21.500 C 52.283 11.800, 50.661 3.978, 48.711 4.036 C 48.045 4.056, 46.277 5.685, 44.782 7.656 M 45.481 13.021 C 42.600 16.205, 36.533 19.511, 28 22.547 C 17.830 26.166, 16 27.987, 16 34.483 C 16 41.383, 17.607 43.484, 22.222 42.618 C 27.806 41.571, 33.891 36.543, 36.349 30.946 C 38.401 26.271, 40.189 24.879, 41.473 26.956 C 42.326 28.336, 39.753 33.966, 36.513 37.809 C 34.979 39.629, 31.471 42.404, 28.718 43.976 L 23.713 46.834 28.178 47.504 C 33.746 48.339, 39.962 46.734, 42.781 43.733 C 43.964 42.473, 45.658 39.431, 46.546 36.972 C 48.525 31.486, 49.533 18.683, 48.340 14.167 L 47.460 10.835 45.481 13.021" stroke="none" fill="#000000" fill-rule="evenodd"/>
</svg>