<svg xmlns="http://www.w3.org/2000/svg" width="64" height="64" viewBox="0 0 64 64"><defs/><path id="path658" fill="#000000" d="M45.458,46.357 Q38.222,53.658 25.695,50.738 Q21.183,49.686 18.146,47.688 Q14.403,52.533 15.387,57.936 Q15.701,59.658 13.979,59.972 Q12.257,60.285 11.944,58.564 Q10.664,51.537 15.462,45.435 Q12.194,41.91 11.918,36.464 Q11.292,24.146 26.295,19.411 Q41.178,14.714 47.077,4.851 Q47.975,3.35 49.477,4.248 Q50.089,4.614 50.271,5.303 Q53.949,19.226 51.739,31.624 Q49.914,41.861 45.458,46.357 Z M42.972,43.893 Q46.66,40.172 48.293,31.009 Q50.069,21.05 47.775,9.962 Q40.96,18.453 27.348,22.749 Q14.925,26.669 15.413,36.286 Q15.631,40.57 18.403,43.332 Q18.548,43.377 18.693,43.455 Q22.992,43.991 29.245,39.657 Q36.61,34.553 38.138,27.266 Q38.497,25.553 40.21,25.912 Q41.922,26.271 41.563,27.984 Q39.75,36.635 31.239,42.534 Q27.094,45.407 23.496,46.437 Q24.875,46.953 26.489,47.329 Q37.112,49.805 42.972,43.893 Z"/></svg>