<svg xmlns="http://www.w3.org/2000/svg" width="64" height="64" viewBox="0 0 64 64"><defs/><path id="path7" fill="#000000" d="M32.622,4.1 Q34.568,3.741 36.39,4.616 Q36.986,4.902 37.623,5.441 Q39.918,4.59 42.026,5.038 Q45.012,5.671 46.503,8.242 Q46.599,8.407 46.685,8.599 Q46.839,8.598 46.956,8.602 Q51.531,8.773 53.128,12.604 Q53.904,14.467 53.656,16.288 Q53.497,17.463 52.775,18.817 Q52.813,18.903 52.869,19.025 Q53.292,19.942 53.4,20.597 Q53.451,20.905 53.474,21.466 Q53.481,21.619 53.485,21.703 Q53.601,21.8 53.665,21.855 Q55.962,23.837 56.754,26.436 Q57.728,29.633 57.066,32.171 Q56.935,32.674 56.557,33.565 Q56.348,34.059 56.262,34.298 Q57.041,35.23 57.476,35.949 Q59.834,39.848 58.455,44.363 Q57.31,48.111 54.144,50.176 Q53.369,50.682 52.539,51.043 Q51.66,51.424 50.967,51.616 Q50.917,51.63 50.858,51.645 L50.878,51.763 Q50.712,52.417 50.568,52.771 Q49.853,54.527 48.042,56.127 Q46.804,57.222 44.899,57.918 Q43.923,58.275 42.494,58.412 Q41.98,58.461 41.425,58.423 Q41.109,58.673 40.752,58.848 Q39.728,59.349 36.939,59.665 Q36.269,59.74 36.013,59.777 Q31.705,60.402 26.927,59.394 Q22.529,58.466 17.732,55.722 Q9.779,51.171 6.61,42.47 Q5.905,40.536 5.494,37.832 Q4.58,31.819 5.664,27.374 Q6.041,25.828 6.885,24.577 Q6.917,24.529 6.976,24.443 L7.042,24.39 Q7.049,24.365 6.982,23.79 Q6.951,23.523 6.937,23.38 Q6.629,20.237 8.324,17.572 Q9.689,15.425 11.913,14.414 Q12.099,14.33 12.359,14.244 Q12.373,14.158 12.385,14.091 Q12.56,13.147 13.071,12.188 Q13.812,10.797 14.724,9.91 Q17.667,7.047 21.437,7.593 Q21.766,7.641 22.343,7.767 Q23.04,7.918 23.164,7.899 Q23.169,7.898 23.643,7.634 Q24.61,7.095 25.23,6.948 Q26.088,6.745 28.443,6.822 Q28.488,6.753 28.535,6.686 Q29.359,5.5 30.69,4.764 Q31.527,4.302 32.622,4.1 Z M36.606,55.444 Q35.87,54.823 35.316,54.196 Q31.699,50.104 31.713,42.565 Q31.715,41.542 31.884,40.384 Q31.888,40.351 31.897,40.291 Q32.059,39.091 32.597,38.387 Q33.402,37.333 35.02,37.217 Q35.217,37.203 35.231,37.199 Q36.973,36.687 37.751,35.376 Q38.229,34.572 38.051,33.352 Q38.036,33.248 37.797,32.701 Q37.159,31.246 37.185,30.288 Q37.209,29.359 37.832,28.35 L37.866,28.297 Q38.211,27.734 38.344,27.331 Q38.568,26.653 38.331,24.877 L38.314,24.744 Q38.306,24.687 38.299,24.623 Q37.796,24.17 37.503,23.693 Q36.609,22.238 37.334,20.166 Q37.467,19.788 37.472,19.716 Q37.625,17.781 36.904,16.735 Q35.993,15.414 34.037,15.057 Q33.985,15.048 33.834,15.031 Q32.613,14.894 31.875,14.23 Q31.433,13.833 30.925,12.971 Q30.749,12.672 30.701,12.611 Q30.456,12.301 29.854,11.899 Q29.227,11.481 28.791,11.07 Q28.742,11.067 28.699,11.065 L28.538,11.059 Q26.549,10.984 26.206,11.066 Q26.157,11.077 25.703,11.33 Q24.563,11.965 23.805,12.082 Q22.907,12.219 21.445,11.901 Q21.012,11.807 20.83,11.781 Q19.123,11.533 17.674,12.943 Q17.236,13.369 16.805,14.177 Q16.602,14.559 16.546,14.86 Q16.535,14.923 16.512,15.083 Q16.339,16.298 15.759,17.044 Q15.136,17.843 13.841,18.214 L13.663,18.266 Q12.584,18.757 11.894,19.842 Q10.982,21.277 11.148,22.967 Q11.158,23.073 11.185,23.3 Q11.345,24.678 11.13,25.484 Q10.96,26.118 10.463,26.841 Q10.418,26.906 10.393,26.943 Q9.972,27.567 9.775,28.377 Q8.889,32.009 9.678,37.196 Q10.025,39.484 10.586,41.022 Q13.225,48.268 19.833,52.049 Q24.053,54.463 27.8,55.254 Q31.842,56.107 35.406,55.59 Q35.726,55.544 36.464,55.46 Q36.541,55.451 36.606,55.444 Z M42.564,24.625 Q42.86,27.148 42.363,28.656 Q42.075,29.528 41.471,30.511 L41.464,30.523 Q41.528,30.674 41.672,31.003 Q42.141,32.074 42.239,32.743 Q42.632,35.445 41.39,37.537 Q39.762,40.278 36.423,41.258 Q36.24,41.312 36.023,41.352 Q35.945,42.006 35.944,42.573 Q35.933,48.505 38.486,51.394 Q39.298,52.312 40.857,53.326 Q41.275,53.598 41.787,54.206 Q41.95,54.213 42.09,54.2 Q42.979,54.115 43.446,53.944 Q44.601,53.522 45.24,52.957 Q46.308,52.013 46.65,51.174 Q46.683,51.092 46.777,50.723 Q47.187,49.104 47.965,48.387 Q48.605,47.797 49.7,47.569 Q49.814,47.545 49.838,47.539 Q50.246,47.426 50.852,47.162 Q51.356,46.943 51.833,46.632 Q53.712,45.406 54.408,43.126 Q55.235,40.42 53.855,38.139 Q53.583,37.689 52.999,36.992 Q52.981,36.97 52.932,36.913 Q52.078,35.92 51.988,34.876 Q51.889,33.736 52.662,31.914 Q52.918,31.308 52.972,31.103 Q53.332,29.722 52.706,27.67 Q52.271,26.241 50.901,25.059 Q50.855,25.02 50.76,24.94 Q50.355,24.598 50.063,24.232 Q49.744,24.17 49.442,24.08 Q49.335,24.048 49.085,23.97 Q47.8,23.571 47.441,23.527 Q45.525,23.292 43.957,23.864 Q43.651,23.975 42.962,24.392 Q42.758,24.516 42.564,24.625 Z M24.655,22.153 L24.596,22.267 Q24.024,23.364 23.663,24.078 L25.695,26.416 Q24.008,27.883 22.925,28.44 Q22.872,28.468 22.765,28.524 Q22.43,28.703 22.088,28.814 Q21.882,29.13 21.733,29.309 Q21.577,29.496 21.409,29.653 Q21.417,30.496 21.343,31.256 Q21.251,32.191 21.251,32.695 Q21.251,33.427 21.271,34.05 Q21.397,33.908 21.509,33.794 L24.52,36.768 Q24.041,37.253 22.893,38.938 Q22.692,39.234 22.437,39.507 Q22.429,39.678 22.412,39.83 Q23.237,42.225 25.001,44.598 L25.112,44.747 Q25.605,45.412 25.854,45.728 Q27.093,47.305 30.055,49.915 L27.258,53.09 Q24.006,50.224 22.527,48.343 Q22.243,47.982 21.714,47.269 L21.605,47.122 Q19.763,44.645 18.737,42.083 Q18.332,41.983 17.933,41.801 Q17.795,41.737 17.723,41.707 Q17.18,41.477 15.996,40.785 Q15.286,40.369 14.992,40.218 L16.931,36.457 Q17.059,36.523 17.231,36.617 Q17.02,35.064 17.02,32.695 Q17.02,31.984 17.132,30.843 Q17.191,30.237 17.176,29.53 Q16.697,29.007 16.371,28.192 Q16.083,27.473 14.808,25.124 L18.526,23.105 Q18.794,23.598 19.026,24.034 Q19.151,23.693 19.309,23.35 Q19.668,22.567 20.845,20.31 L20.903,20.198 Z M32.522,8.6 Q33.458,9.273 34.025,9.993 Q34.25,10.278 34.57,10.822 L34.591,10.862 Q34.704,10.878 34.796,10.895 Q38.479,11.567 40.387,14.332 Q41.962,16.616 41.69,20.049 Q41.682,20.154 41.666,20.267 Q42.137,20.023 42.508,19.888 Q45.031,18.968 47.956,19.327 Q48.2,19.357 48.544,19.433 Q48.526,19.35 48.514,19.271 Q48.333,18.122 48.98,16.939 L49.015,16.875 Q49.404,16.159 49.464,15.719 Q49.557,15.034 49.222,14.231 Q48.667,12.9 46.797,12.83 Q46.706,12.827 46.44,12.837 Q45.068,12.891 44.289,12.43 Q43.264,11.823 42.878,10.491 L42.843,10.365 Q42.295,9.42 41.148,9.177 Q40.186,8.973 38.958,9.46 Q38.926,9.473 38.846,9.506 Q37.516,10.056 36.493,9.738 Q35.764,9.512 35.101,8.864 Q35.028,8.792 34.999,8.766 Q34.703,8.5 34.558,8.43 Q33.979,8.152 33.389,8.261 L33.006,6.18 L33.389,8.261 Q32.971,8.338 32.736,8.468 Q32.623,8.531 32.522,8.6 Z"/></svg>