<svg xmlns="http://www.w3.org/2000/svg" width="64" height="64" viewBox="0 0 64 64"><defs/><path id="path154" fill="#000000" d="M56.811,21.82 Q56.823,21.828 56.834,21.837 Q59.494,23.802 58.581,27.268 Q57.529,32.598 51.709,33.938 Q50.803,34.244 48.756,34.401 Q48.4,34.428 48.09,34.455 Q47.078,34.731 46.11,34.866 Q45.964,35.08 45.807,35.234 Q44.679,37.577 44.736,39.308 Q44.808,43.084 44.132,46.288 Q44.034,48.155 42.738,50.334 Q42.721,50.362 42.707,50.386 Q42.208,51.525 40.682,52.733 Q39.975,53.293 39.739,53.59 Q36.941,57.737 33.45,57.496 Q30.768,57.262 28.578,53.664 Q28.392,53.362 27.819,52.848 Q26.69,51.833 26.243,50.813 Q26.199,50.746 26.141,50.658 Q24.82,48.654 24.507,47.246 Q23.971,45.716 23.564,42.802 Q23.229,40.403 22.882,39.316 Q22.865,39.263 22.852,39.209 Q22.216,36.665 19.808,34.677 Q19.714,34.599 19.631,34.509 Q19.457,34.318 19.219,34.025 Q18.923,34.035 18.585,33.965 Q18.564,33.961 18.544,33.957 L18.05,34.18 Q17.444,34.366 15.871,34.937 Q10.23,36.985 9.057,35.526 Q8.463,34.787 8.766,33.89 Q9.136,32.792 7.616,30.193 Q6.216,27.797 5.688,27.764 Q5.388,27.745 5.112,27.626 Q3.998,27.146 3.999,25.926 Q4,25.445 4.242,24.957 Q4.442,24.553 4.9,23.99 Q5.361,23.423 6.729,21.964 Q9.58,18.923 9.647,18.552 Q9.713,18.182 9.846,17.907 Q10.024,16.846 11.163,16.132 Q11.67,15.815 12.616,15.556 Q12.707,12.665 14.561,12.147 Q14.905,12.051 15.271,12.068 Q15.275,12.059 15.28,12.051 Q15.489,11.67 15.825,11.41 Q18.533,6.553 22.346,7.645 Q24.08,8.141 26.382,10.539 Q26.825,8.926 27.726,7.368 Q28.167,6.605 29.043,6.513 Q30.391,6.371 32.409,7.966 Q32.552,8.078 32.674,8.173 Q33.823,7.257 35.087,7.473 Q36.003,7.629 37.028,8.606 Q40.644,5.993 44.289,9.055 Q48.024,8.011 49.813,8.536 Q53.039,9.485 52.859,13.862 Q53.486,13.865 54.537,13.851 Q56.778,13.82 57.549,13.882 Q58.563,13.964 59.09,14.328 Q60.196,15.092 59.879,16.2 Q60.71,18.839 57.924,21.055 Q57.425,21.452 56.811,21.82 Z M49.391,14.047 Q49.57,12.071 48.838,11.856 Q47.845,11.564 44.429,12.621 Q43.644,12.863 42.961,12.409 Q42.653,12.205 42.091,11.727 Q40.219,10.139 38.215,12.134 Q37.313,13.033 36.187,12.438 Q35.616,12.137 34.837,11.308 L34.504,10.883 L34.374,11.376 Q33.723,12.236 32.664,12.03 Q31.747,11.852 30.264,10.68 Q30.146,10.586 30.042,10.507 Q28.839,13.6 29.999,17.005 Q30.108,17.189 30.15,17.388 Q30.157,17.422 30.163,17.456 Q31.496,20.942 33.503,21.735 Q33.606,21.76 33.714,21.797 Q34.056,21.841 34.399,21.879 Q35.835,21.446 42.096,17.781 Q47.01,14.903 49.391,14.047 Z M34.792,25.397 Q35.048,26.394 35.492,26.574 Q36.076,26.404 36.582,26.722 Q37.214,26.949 37.422,27.636 Q40.647,31.887 45.301,31.462 Q46.178,31.209 47.386,31.06 Q47.804,30.95 48.145,30.98 Q48.317,30.964 48.493,30.951 Q50.307,30.812 50.329,30.799 Q50.577,30.646 50.861,30.583 Q54.584,29.752 55.195,26.555 Q55.208,26.49 55.225,26.426 Q55.559,25.196 54.778,24.619 Q53.957,24.012 53.394,23.349 Q52.366,23.699 51.181,24.009 Q42.936,26.164 34.792,25.397 Z M30.99,36.432 Q31.426,39.331 31.116,43.956 Q31.05,44.941 31.022,45.425 Q31.017,45.518 31.002,45.61 Q30.979,45.749 30.923,46.173 Q30.593,48.663 29.893,50.05 Q30.001,50.157 30.131,50.274 Q31.076,51.123 31.533,51.865 Q32.813,53.968 33.688,54.045 Q35.201,54.149 36.897,51.617 Q36.923,51.578 36.951,51.54 Q37.443,50.886 38.534,50.021 Q38.704,49.887 38.846,49.766 Q37.8,48.293 37.424,45.724 Q37.419,45.689 37.415,45.654 Q37.333,44.866 36.836,43.173 Q35.907,40.011 36.154,38.196 Q36.176,38.014 36.215,37.817 Q35.514,37.976 34.756,37.931 Q32.949,37.824 30.99,36.432 Z M16.687,28.109 L17.223,27.65 L17.516,26.171 Q16.641,26.008 15.71,25.46 Q14.185,24.562 11.68,21.543 L11.679,21.541 Q10.765,22.718 9.253,24.331 Q8.656,24.966 8.253,25.41 Q9.433,26.444 10.603,28.447 Q11.932,30.721 12.21,32.543 Q13.079,32.27 14.691,31.685 Q15.969,31.221 16.918,30.948 Q16.706,30.789 16.499,30.548 Q15.936,29.892 15.983,29.282 Q16.03,28.672 16.687,28.109 Z M28.223,21.362 Q27.58,20.315 27.052,19 Q24.269,17.363 20.049,17.235 Q19.332,17.213 18.805,17.177 Q17.589,18.119 16.514,16.893 Q16.292,16.64 16.091,16.428 Q16.102,16.573 16.117,16.73 Q16.246,18.092 14.951,18.532 Q14.652,18.633 14.011,18.775 L13.702,18.571 Q13.988,18.907 14.342,19.334 Q16.461,21.888 17.465,22.478 Q17.978,22.78 18.449,22.603 Q18.671,22.342 18.991,22.228 Q19.057,22.16 19.122,22.081 Q21.889,18.718 24.273,20.188 Q25.297,20.82 26.474,23.319 Q27.477,22.002 28.223,21.362 Z M27.046,30.293 Q27.527,30.057 27.982,29.684 Q28.494,29.263 28.692,28.872 Q28.614,28.709 28.569,28.512 Q28.377,28.112 28.417,27.736 Q28.45,27.435 28.63,27.151 Q28.881,26.434 29.661,26.258 Q30.258,25.972 30.799,26.202 Q30.923,26.202 31.08,26.201 Q31.256,26.199 31.427,26.2 Q31.392,26.059 31.36,25.913 Q31.077,24.614 30.873,24.481 Q30.632,24.324 30.454,24.096 L30.515,23.981 Q30.505,23.973 30.495,23.966 Q30.045,24.292 28.948,25.787 Q27.829,27.312 27.199,27.868 Q25.903,29.014 24.758,27.717 Q24.606,27.545 24.504,27.34 Q24.169,26.664 23.615,25.392 Q22.958,23.886 22.649,23.379 Q22.305,23.658 21.794,24.279 Q21.557,24.565 21.314,24.808 L20.625,28.278 Q21.903,30.565 22.61,30.457 Q23.719,30.287 24.537,30.617 Q25.513,30.802 26.407,30.542 Q26.675,30.386 27.046,30.293 Z M50.887,17.15 Q49.781,17.29 43.844,20.766 Q42.639,21.472 41.554,22.066 Q45.911,21.811 50.307,20.662 Q54.112,19.667 55.771,18.348 Q56.472,17.79 56.514,17.303 Q55.802,17.293 54.584,17.31 Q52.05,17.344 50.887,17.15 Z M37.383,32.559 Q36.066,31.513 34.892,30.02 Q34.445,29.951 34.05,29.795 Q33.778,29.815 33.454,29.764 Q33.014,29.695 32.253,29.672 Q31.945,30.674 30.896,31.712 Q33.319,34.381 34.96,34.477 Q36.225,34.552 37.383,32.559 Z M24.036,34.043 Q25.601,35.989 26.195,38.318 Q26.622,39.684 26.99,42.323 Q27.252,44.197 27.545,45.339 Q27.561,45.226 27.573,45.143 Q27.602,44.644 27.664,43.724 Q28.027,38.305 27.331,35.786 Q27.108,35.26 26.774,34.727 Q26.581,34.42 26.417,34.092 Q25.266,34.259 24.036,34.043 Z M41.262,34.582 Q40.962,35.377 40.477,36.321 Q39.677,37.88 39.588,38.615 Q39.435,39.744 40.155,42.198 Q40.698,44.045 40.837,45.125 Q41.336,42.493 41.279,39.422 Q41.208,37.3 42.215,34.806 Q41.732,34.716 41.262,34.582 Z M19.221,13.738 Q19.613,13.761 20.154,13.777 Q23.075,13.866 25.485,14.586 Q25.001,14.16 24.448,13.542 Q22.406,11.261 21.394,10.971 Q20.202,10.63 18.825,13.134 Q19.051,13.443 19.221,13.738 Z"/></svg>