<svg xmlns="http://www.w3.org/2000/svg" width="64" height="64" viewBox="0 0 64 64"><defs/><path id="path206" fill="#000000" d="M43.278,4.764 L46.309,8.958 L51.87,8.958 Q53.714,8.958 53.714,10.801 Q53.714,12.645 51.87,12.645 L46.374,12.645 L44.532,15.518 Q46.688,16.944 48.619,18.928 Q51.703,22.096 53.4,25.852 Q53.536,26.066 53.592,26.29 Q55.478,30.71 55.478,35.93 Q55.478,40.081 54.286,43.726 Q54.252,43.997 54.104,44.259 Q52.408,49.04 48.619,52.932 Q41.74,60 32,60 Q29.744,60 27.642,59.621 Q27.318,59.635 26.975,59.49 Q20.413,58.102 15.381,52.932 Q8.753,46.123 8.53,36.598 Q8.344,36.134 8.524,35.561 Q8.536,34.629 8.609,33.723 Q8.475,33.177 8.709,32.724 Q9.654,24.812 15.381,18.928 Q20.291,13.884 26.657,12.44 Q27,12.286 27.33,12.298 Q29.576,11.861 32,11.861 Q37.026,11.861 41.29,13.742 L43.136,10.863 L40.289,6.924 Q39.209,5.429 40.704,4.349 Q42.198,3.269 43.278,4.764 Z M12.247,34.588 Q12.239,34.716 12.233,34.847 L23.087,40.749 L29.07,35.159 L22.101,28.69 L12.247,34.588 Z M23.661,45.259 L18.108,50.447 Q21.918,54.321 26.755,55.636 L31.519,49.531 L23.661,45.259 Z M25.396,26.718 L31.771,32.635 L36.659,28.068 L32.072,22.723 L25.396,26.718 Z M31.779,37.674 L26.501,42.606 L33.818,46.584 L36.994,42.514 L31.779,37.674 Z M29.635,19.884 L26.545,16.283 Q22.315,17.487 18.877,20.667 L22.581,24.105 L29.635,19.884 Z M44.847,20.417 Q43.309,19.042 41.615,18.055 Q41.284,17.961 40.923,17.729 Q40.798,17.649 40.689,17.565 L35.282,20.802 L39.355,25.549 L44.847,20.417 Z M48.112,47.814 Q49.426,45.972 50.27,43.931 L45.188,38.008 L41.983,42.114 L47.944,47.647 Q48.034,47.73 48.112,47.814 Z M39.271,39.597 L42.738,35.153 L39.062,30.869 L34.48,35.15 L39.271,39.597 Z M41.759,28.349 L45.052,32.187 L49.561,26.409 Q48.657,24.671 47.387,23.091 L41.759,28.349 Z M12.433,39.153 Q13.099,43.804 15.745,47.61 L20.247,43.402 L12.433,39.153 Z M44.031,52.138 Q44.91,51.429 45.74,50.6 Q45.588,50.491 45.435,50.349 L39.707,45.032 L37.102,48.37 L44.031,52.138 Z M34.803,51.317 L30.925,56.286 Q31.457,56.313 32,56.313 Q36.627,56.313 40.49,54.41 L34.803,51.317 Z M51.791,35.93 Q51.791,33.03 51.107,30.422 L47.502,35.042 L51.484,39.683 Q51.791,37.872 51.791,35.93 Z M19.286,26.078 L16.383,23.383 Q14.101,26.325 13.067,29.799 L19.286,26.078 Z M36.178,15.968 Q34.173,15.548 32,15.548 Q31.394,15.548 30.802,15.581 L32.845,17.962 L36.178,15.968 Z"/></svg>