<svg xmlns="http://www.w3.org/2000/svg" width="64" height="64" viewBox="0 0 64 64"><defs/><path id="path756" fill="#000000" d="M60,34.695 Q60,42.755 45.903,46.799 Q45.485,46.919 45.072,47.034 Q44.067,57.339 31.81,57.823 Q26.481,58.034 22.748,55.161 Q19.066,52.329 18.535,47.611 Q7.996,45.499 5.014,39.317 Q1.411,31.849 8.614,19.983 Q16.224,7.448 27.773,6.411 Q42.399,5.098 50.408,10.918 Q60,17.888 60,34.695 Z M56.021,34.695 Q56.021,19.915 48.069,14.138 Q41.267,9.195 28.128,10.375 Q18.582,11.232 12.016,22.048 Q5.934,32.066 8.598,37.588 Q11.44,43.479 25.52,44.521 Q28.674,44.754 29.875,44.971 Q34.012,45.718 41.829,43.773 Q42.325,43.397 43.199,43.409 Q43.217,43.41 43.235,43.41 Q44.003,43.204 44.805,42.974 Q56.021,39.757 56.021,34.695 Z M40.823,48.092 Q33.541,49.676 29.168,48.887 Q28.172,48.708 25.226,48.49 Q23.922,48.393 22.696,48.254 Q23.288,50.556 25.174,52.007 Q27.765,54.001 31.653,53.847 Q39.332,53.544 40.823,48.092 Z"/></svg>