<svg xmlns="http://www.w3.org/2000/svg" width="64" height="64" viewBox="0 0 64 64" version="1.1">
	<path d="M 23.747 7.139 C 18.696 8.567, 10.459 16.161, 7.388 22.220 C 1.180 34.472, 4.101 43.990, 15 47.024 C 17.496 47.718, 18.930 48.930, 20 51.249 C 24.161 60.268, 39.245 59.844, 43.661 50.585 C 44.849 48.093, 46.583 46.712, 50.625 45.036 C 57.615 42.139, 60 39.089, 60 33.047 C 60 22.311, 54.890 13.025, 46.677 8.835 C 41.953 6.425, 29.524 5.506, 23.747 7.139 M 24.684 11.385 C 18.058 13.859, 12.887 19.291, 10.021 26.788 C 7.491 33.407, 7.478 36.067, 9.962 39.225 C 15.830 46.685, 46.002 46.089, 53.731 38.359 C 56.034 36.057, 56.199 35.337, 55.610 30.167 C 54.657 21.815, 51.367 16.065, 45.942 13.273 C 40.199 10.318, 29.976 9.410, 24.684 11.385 M 23.002 49.095 C 22.997 50.431, 26.819 53.012, 29.566 53.527 C 32.541 54.086, 39.074 51.488, 39.691 49.500 C 39.882 48.887, 36.709 48.500, 31.503 48.500 C 26.829 48.500, 23.003 48.768, 23.002 49.095" stroke="none" fill="#000000" fill-rule="evenodd"/>
</svg>