<svg xmlns="http://www.w3.org/2000/svg" width="64" height="64" viewBox="0 0 64 64"><defs/><path id="path756" fill="#000000" d="M56.5,34.358 Q56.5,41.411 44.165,44.949 Q43.799,45.054 43.438,45.155 Q42.559,54.172 31.834,54.595 Q27.171,54.78 23.904,52.266 Q20.683,49.788 20.218,45.66 Q10.997,43.812 8.387,38.402 Q5.235,31.868 11.537,21.485 Q18.196,10.517 28.301,9.61 Q41.099,8.461 48.107,13.553 Q56.5,19.652 56.5,34.358 Z M53.018,34.358 Q53.018,21.426 46.06,16.371 Q40.109,12.046 28.612,13.078 Q20.259,13.828 14.514,23.292 Q9.192,32.058 11.523,36.889 Q14.01,42.044 26.33,42.956 Q29.09,43.16 30.141,43.35 Q33.761,44.003 40.6,42.301 Q41.034,41.972 41.799,41.983 Q41.815,41.984 41.831,41.984 Q42.503,41.803 43.204,41.602 Q53.018,38.787 53.018,34.358 Z M39.72,46.08 Q33.348,47.466 29.522,46.776 Q28.651,46.619 26.073,46.429 Q24.932,46.344 23.859,46.222 Q24.377,48.236 26.027,49.506 Q28.294,51.251 31.696,51.116 Q38.416,50.851 39.72,46.08 Z"/></svg>