<svg xmlns="http://www.w3.org/2000/svg" width="64" height="64" viewBox="0 0 64 64"><defs/><path id="path761" fill="#000000" d="M29.083,51.219 Q25.009,51.064 22.729,51.385 Q22.402,51.43 22.078,51.366 Q11.069,49.174 8.163,40.875 Q5.26,32.584 12.31,27.99 Q22.771,21.174 23.938,14.415 Q24.289,12.382 26.587,12.576 Q27.066,12.616 28.053,12.869 Q28.264,12.923 28.428,12.963 Q28.927,12.673 29.667,12.803 L35.829,12.803 Q36.427,12.716 36.861,12.884 Q36.946,12.858 37.05,12.824 Q40.089,11.85 41.29,13.68 Q42.065,14.862 42.902,18.193 Q43.931,22.291 44.898,23.135 Q45.804,23.927 47.716,25.495 Q55.118,31.568 56.21,35.293 Q58.143,41.876 48.327,48.383 Q43.896,51.321 35.826,51.456 Q35.149,51.728 34.611,51.559 Q34.487,51.52 34.369,51.457 Q33.006,51.438 31.548,51.346 Q30.806,51.299 30.112,51.265 Q29.997,51.303 29.88,51.32 Q29.497,51.378 29.083,51.219 Z M31.599,16.688 Q31.944,23.737 27.442,27.401 Q21.626,32.134 22.315,36.942 Q23.022,41.887 30.279,47.383 Q31.013,47.419 31.793,47.469 Q33.403,47.571 34.87,47.578 Q41.047,44.111 41.49,37.978 Q41.93,31.906 36.965,27.321 Q34.167,24.738 34.213,17.752 Q34.217,17.158 34.208,16.688 L31.599,16.688 Z M24.247,47.346 Q19.176,42.434 18.468,37.492 Q17.468,30.508 24.99,24.387 Q27.985,21.951 27.712,16.773 Q27.552,16.743 27.385,16.705 Q25.158,24.255 14.432,31.245 Q9.934,34.175 11.83,39.591 Q13.964,45.688 22.529,47.493 Q23.313,47.397 24.247,47.346 Z M38.09,16.569 Q38.102,17.122 38.098,17.777 Q38.064,23.048 39.6,24.467 Q45.94,30.321 45.366,38.258 Q45.003,43.277 41.888,46.9 Q44.449,46.294 46.18,45.145 Q53.608,40.222 52.483,36.387 Q51.727,33.811 45.252,28.499 Q43.294,26.893 42.342,26.061 Q40.459,24.417 39.134,19.14 Q38.476,16.52 38.065,15.848 Q38.066,15.877 38.067,15.907 L38.236,16.524 Q38.163,16.548 38.09,16.569 Z"/></svg>