<svg xmlns="http://www.w3.org/2000/svg" width="64" height="64" viewBox="0 0 64 64" version="1.1">
	<path d="M 21.133 15.419 C 19.161 18.912, 16.005 22.441, 12.457 25.120 C 4.283 31.292, 2.018 37.290, 5.405 43.800 C 9.544 51.755, 15.321 54, 31.652 54 C 46.104 54, 50.481 52.633, 55.942 46.414 C 62.080 39.423, 61.329 35.102, 52.503 26.640 C 47.944 22.268, 45.574 19.060, 44.271 15.500 L 42.442 10.500 33.337 10.214 L 24.232 9.928 21.133 15.419 M 25.029 17.930 C 23.911 20.628, 19.199 25.512, 11.700 31.743 C 5.858 36.597, 9.554 45.993, 18.369 48.698 C 20.366 49.311, 22 49.620, 22 49.385 C 22 49.150, 20.902 47.279, 19.561 45.229 C 14.711 37.815, 15.306 32.081, 21.595 25.605 C 24.911 22.190, 27.805 16.472, 26.750 15.417 C 26.486 15.152, 25.711 16.283, 25.029 17.930 M 31.552 16.250 C 31.340 16.938, 30.893 18.749, 30.558 20.275 C 30.223 21.802, 28.451 24.727, 26.619 26.775 C 19.414 34.833, 19.387 39.337, 26.504 45.897 C 32.060 51.018, 34.778 51.156, 38.847 46.521 C 44.213 40.411, 43.990 34.679, 38.098 27.197 C 36.488 25.153, 34.882 21.600, 34.505 19.250 C 33.850 15.162, 32.355 13.643, 31.552 16.250 M 39.070 17.673 C 39.027 19.622, 39.910 21.937, 41.359 23.673 C 47.008 30.441, 48.686 39.244, 45.494 45.364 C 44.672 46.940, 44 48.414, 44 48.640 C 44 49.583, 49.745 45.982, 52.271 43.456 C 56.807 38.920, 56.031 36.040, 48.471 29.361 C 43.442 24.918, 41.620 22.549, 40.541 19.047 C 39.230 14.794, 39.135 14.706, 39.070 17.673" stroke="none" fill="#000000" fill-rule="evenodd"/>
</svg>