<svg xmlns="http://www.w3.org/2000/svg" width="64" height="64" viewBox="0 0 64 64"><defs/><path id="path761" fill="#000000" d="M28.666,53.965 Q24.01,53.788 21.404,54.154 Q21.031,54.206 20.661,54.133 Q8.079,51.627 4.758,42.143 Q1.44,32.667 9.497,27.417 Q21.452,19.627 22.786,11.903 Q23.187,9.58 25.814,9.801 Q26.361,9.847 27.489,10.136 Q27.73,10.198 27.918,10.243 Q28.488,9.912 29.334,10.061 L36.376,10.061 Q37.059,9.961 37.555,10.153 Q37.653,10.123 37.771,10.085 Q41.244,8.971 42.617,11.063 Q43.503,12.414 44.459,16.221 Q45.635,20.904 46.74,21.868 Q47.776,22.774 49.961,24.566 Q58.42,31.506 59.669,35.763 Q61.878,43.287 50.66,50.724 Q45.596,54.081 36.372,54.235 Q35.599,54.546 34.984,54.353 Q34.842,54.308 34.708,54.237 Q33.15,54.215 31.483,54.11 Q30.635,54.056 29.842,54.017 Q29.711,54.06 29.577,54.08 Q29.14,54.146 28.666,53.965 Z M31.542,14.501 Q31.936,22.557 26.791,26.744 Q20.144,32.153 20.931,37.648 Q21.74,43.299 30.033,49.581 Q30.872,49.622 31.764,49.679 Q33.604,49.795 35.28,49.804 Q42.339,45.841 42.846,38.832 Q43.348,31.892 37.674,26.653 Q34.477,23.701 34.529,15.717 Q34.534,15.038 34.524,14.501 L31.542,14.501 Z M23.14,49.538 Q17.344,43.925 16.535,38.277 Q15.392,30.295 23.988,23.3 Q27.411,20.515 27.099,14.598 Q26.917,14.563 26.726,14.52 Q24.181,23.148 11.922,31.137 Q6.782,34.486 8.949,40.676 Q11.388,47.643 21.176,49.706 Q22.072,49.597 23.14,49.538 Z M38.96,14.365 Q38.974,14.996 38.969,15.745 Q38.93,21.769 40.686,23.391 Q47.931,30.081 47.275,39.152 Q46.86,44.888 43.3,49.029 Q46.227,48.336 48.206,47.023 Q56.695,41.396 55.409,37.014 Q54.545,34.07 47.145,27.999 Q44.907,26.163 43.819,25.213 Q41.667,23.334 40.153,17.303 Q39.401,14.308 38.931,13.541 Q38.933,13.574 38.934,13.608 L39.127,14.313 Q39.043,14.34 38.96,14.365 Z"/></svg>