<svg xmlns="http://www.w3.org/2000/svg" width="64" height="64" viewBox="0 0 64 64" version="1.1">
	<path d="M 50.516 6.949 C 50.176 8.021, 49.031 9.173, 47.971 9.509 C 46.911 9.846, 43.237 13.279, 39.807 17.138 C 36.083 21.328, 29.087 27.315, 22.441 31.999 C 9.767 40.931, 5.270 45.075, 4.373 48.651 C 2.873 54.625, 8.998 59.100, 18.988 59.330 C 27.019 59.515, 37.776 54.023, 46.970 45.045 C 58.767 33.525, 62.667 21.126, 57.915 10.244 C 56.130 6.156, 55.130 5, 53.380 5 C 52.033 5, 50.887 5.779, 50.516 6.949 M 49.905 12.701 C 46.621 14.894, 42 19.215, 42 20.093 C 42 20.489, 42.915 20.574, 44.033 20.281 C 48.782 19.039, 52.372 27.660, 48.066 29.965 C 43.523 32.396, 38.750 30.685, 38.750 26.624 L 38.750 24.021 35.593 26.761 C 32.580 29.375, 32.537 29.514, 34.645 29.809 C 37.551 30.216, 39.250 32.380, 39.250 35.675 C 39.250 38.829, 36.674 41, 32.931 41 C 29.461 41, 27.661 38.765, 28.196 35.120 L 28.621 32.222 24.632 34.861 L 20.643 37.500 23.535 38.004 C 25.359 38.321, 26.995 39.544, 27.964 41.312 C 29.438 44.003, 29.386 44.216, 26.694 46.558 C 25.151 47.901, 23.046 49, 22.016 49 C 17.876 49, 15.432 43.158, 18.250 39.998 C 20.369 37.622, 16.046 40.881, 11.750 44.899 C 5.487 50.756, 7.334 54.277, 17.377 55.628 C 28.578 57.135, 48.716 42.496, 54.506 28.640 C 55.328 26.673, 56 22.366, 56 19.067 C 56 11.959, 54.056 9.929, 49.905 12.701 M 42.446 25.087 C 42.077 25.685, 42.256 26.656, 42.845 27.245 C 44.093 28.493, 47.339 26.357, 46.430 24.887 C 45.669 23.655, 43.256 23.777, 42.446 25.087 M 31.638 35.500 C 31.223 36.584, 31.748 37, 33.531 37 C 35.059 37, 36 36.428, 36 35.500 C 36 34.675, 35.148 34, 34.107 34 C 33.066 34, 31.955 34.675, 31.638 35.500 M 21.688 41.646 C 20.314 43.020, 21.026 45.142, 22.750 44.810 C 23.712 44.624, 24.500 43.841, 24.500 43.070 C 24.500 41.491, 22.736 40.598, 21.688 41.646" stroke="none" fill="#000000" fill-rule="evenodd"/>
</svg>