<svg xmlns="http://www.w3.org/2000/svg" width="64" height="64" viewBox="0 0 64 64"><defs/><path id="path850" fill="#000000" d="M56.044,16.574 Q59,31.014 44.154,44.52 Q31.421,56.104 22.162,56.104 Q8.864,56.104 7.592,49.16 Q6.716,44.379 16.593,37.05 Q17.319,36.511 17.619,36.281 Q20.51,34.079 25.442,30.813 Q35.177,24.37 39.669,17.727 Q42.562,13.449 47.709,11.477 Q48.241,9.817 48.975,8.937 Q50.354,7.284 51.996,8.132 Q53.985,9.159 53.677,12.259 Q55.42,13.527 56.044,16.574 Z M53.059,17.185 Q52.592,14.907 51.509,14.531 Q50.248,14.094 50.515,12.787 Q50.537,12.682 50.555,12.586 Q50.491,12.8 50.428,13.038 Q50.219,13.827 49.446,14.09 Q44.722,15.696 42.194,19.435 Q37.364,26.578 27.125,33.355 Q22.276,36.565 19.467,38.706 Q19.15,38.947 18.41,39.497 Q10.057,45.695 10.59,48.61 Q11.405,53.056 22.162,53.056 Q30.242,53.056 42.103,42.265 Q55.666,29.926 53.059,17.185 Z M21.81,46.389 Q18.071,45.502 18.927,41.398 Q19.705,37.678 23.764,36.978 Q25.98,36.62 27.582,38.276 Q28.993,39.735 29.013,41.76 Q29.034,44.071 27.184,45.407 Q25.284,46.78 21.995,46.42 Q21.902,46.41 21.81,46.389 Z M31.339,39.706 Q27.601,38.821 28.457,34.716 Q29.234,30.996 33.293,30.296 Q35.51,29.938 37.112,31.594 Q38.523,33.053 38.542,35.078 Q38.563,37.388 36.715,38.725 Q34.814,40.098 31.526,39.739 Q31.431,39.728 31.339,39.706 Z M40.714,31.199 Q36.974,30.313 37.832,26.208 Q38.608,22.49 42.668,21.789 Q44.884,21.431 46.486,23.087 Q47.898,24.546 47.916,26.571 Q47.938,28.882 46.088,30.218 Q44.188,31.591 40.9,31.232 Q40.806,31.221 40.714,31.199 Z M22.437,43.402 Q24.474,43.604 25.399,42.936 Q25.971,42.523 25.964,41.788 Q25.957,40.979 25.392,40.396 Q24.896,39.883 24.282,39.982 Q22.264,40.329 21.911,42.021 Q21.672,43.166 22.437,43.402 Z M41.341,28.213 Q43.379,28.416 44.303,27.747 Q44.875,27.334 44.869,26.599 Q44.861,25.791 44.295,25.207 Q43.799,24.694 43.186,24.793 Q41.168,25.141 40.815,26.831 Q40.576,27.977 41.341,28.213 Z M31.967,36.72 Q34.004,36.923 34.929,36.254 Q35.501,35.841 35.494,35.106 Q35.487,34.298 34.922,33.713 Q34.425,33.201 33.811,33.299 Q31.794,33.648 31.441,35.338 Q31.202,36.484 31.967,36.72 Z"/></svg>