<svg xmlns="http://www.w3.org/2000/svg" width="64" height="64" viewBox="0 0 64 64"><defs/><path id="path850" fill="#000000" d="M59.479,14.37 Q62.857,30.873 45.89,46.309 Q31.338,59.548 20.756,59.548 Q5.559,59.548 4.105,51.611 Q3.104,46.147 14.392,37.771 Q15.222,37.155 15.565,36.893 Q18.868,34.376 24.505,30.644 Q35.631,23.28 40.765,15.688 Q44.071,10.799 49.953,8.545 Q50.561,6.648 51.4,5.642 Q52.976,3.753 54.853,4.722 Q57.126,5.896 56.774,9.439 Q58.766,10.888 59.479,14.37 Z M56.067,15.069 Q55.534,12.465 54.296,12.035 Q52.855,11.536 53.16,10.042 Q53.185,9.922 53.206,9.813 Q53.133,10.057 53.061,10.329 Q52.822,11.231 51.938,11.531 Q46.539,13.367 43.65,17.64 Q38.13,25.803 26.428,33.549 Q20.887,37.217 17.677,39.664 Q17.314,39.94 16.468,40.568 Q6.922,47.652 7.532,50.983 Q8.463,56.064 20.756,56.064 Q29.991,56.064 43.546,43.732 Q59.047,29.63 56.067,15.069 Z M20.354,48.444 Q16.081,47.431 17.06,42.74 Q17.948,38.489 22.587,37.689 Q25.12,37.28 26.951,39.172 Q28.564,40.84 28.586,43.154 Q28.61,45.795 26.496,47.322 Q24.325,48.891 20.566,48.48 Q20.459,48.468 20.354,48.444 Z M31.245,40.807 Q26.972,39.795 27.951,35.104 Q28.839,30.853 33.478,30.053 Q36.011,29.644 37.842,31.536 Q39.455,33.203 39.477,35.518 Q39.501,38.158 37.388,39.686 Q35.216,41.255 31.458,40.844 Q31.35,40.832 31.245,40.807 Z M41.959,31.085 Q37.685,30.072 38.665,25.381 Q39.552,21.131 44.192,20.33 Q46.725,19.921 48.556,21.814 Q50.169,23.481 50.19,25.795 Q50.215,28.436 48.101,29.963 Q45.929,31.533 42.171,31.122 Q42.064,31.11 41.959,31.085 Z M21.071,45.031 Q23.399,45.262 24.456,44.498 Q25.11,44.026 25.102,43.186 Q25.094,42.262 24.448,41.595 Q23.881,41.009 23.179,41.122 Q20.873,41.519 20.47,43.452 Q20.197,44.761 21.071,45.031 Z M42.676,27.672 Q45.004,27.904 46.06,27.14 Q46.714,26.667 46.707,25.828 Q46.698,24.904 46.052,24.236 Q45.485,23.65 44.784,23.763 Q42.478,24.161 42.074,26.093 Q41.801,27.402 42.676,27.672 Z M31.962,37.394 Q34.29,37.626 35.347,36.862 Q36.001,36.39 35.993,35.55 Q35.985,34.626 35.339,33.958 Q34.772,33.372 34.07,33.485 Q31.765,33.883 31.361,35.815 Q31.088,37.124 31.962,37.394 Z"/></svg>