<svg xmlns="http://www.w3.org/2000/svg" width="64" height="64" viewBox="0 0 64 64"><defs/><path id="path853" fill="#000000" d="M53.066,21.587 Q58.971,38.877 51.172,49.145 Q42.268,60.868 20.631,54.139 Q8.347,50.32 8.554,35.359 Q8.658,27.802 17.332,20.155 Q19.116,18.582 19.929,17.786 Q21.142,16.597 23.213,14.15 Q29.684,6.502 36.361,7.719 Q47.909,6.491 53.066,21.587 Z M49.038,22.962 Q44.924,10.919 36.541,11.982 Q36.178,12.028 35.819,11.95 Q31.456,10.997 26.462,16.898 Q24.262,19.498 22.906,20.826 Q22.014,21.7 20.146,23.347 Q12.887,29.747 12.809,35.418 Q12.646,47.2 21.895,50.076 Q40.683,55.918 47.783,46.57 Q54.212,38.107 49.038,22.962 Z M23.327,25.997 L24.785,25.997 Q26.913,25.997 26.913,28.125 Q26.913,30.253 24.785,30.253 L23.327,30.253 Q21.199,30.253 21.199,28.125 Q21.199,25.997 23.327,25.997 Z M37.226,31.045 L38.684,31.045 Q40.812,31.045 40.812,33.173 Q40.812,35.3 38.684,35.3 L37.226,35.3 Q35.098,35.3 35.098,33.173 Q35.098,31.045 37.226,31.045 Z M41.267,38.955 L42.724,38.955 Q44.852,38.955 44.852,41.083 Q44.852,43.21 42.724,43.21 L41.267,43.21 Q39.139,43.21 39.139,41.083 Q39.139,38.955 41.267,38.955 Z M39.357,20.168 L40.814,20.168 Q42.942,20.168 42.942,22.296 Q42.942,24.424 40.814,24.424 L39.357,24.424 Q37.229,24.424 37.229,22.296 Q37.229,20.168 39.357,20.168 Z M20.412,40.57 L21.87,40.57 Q23.998,40.57 23.998,42.698 Q23.998,44.826 21.87,44.826 L20.412,44.826 Q18.285,44.826 18.285,42.698 Q18.285,40.57 20.412,40.57 Z"/></svg>