<svg xmlns="http://www.w3.org/2000/svg" width="64" height="64" viewBox="0 0 64 64" version="1.1">
	<path d="M 19.231 14.250 C 8.145 25.095, 5.054 29.935, 5.028 36.500 C 4.977 48.737, 11.434 56.044, 24.799 58.877 C 40.067 62.113, 50.628 58.327, 56.270 47.595 C 60.796 38.985, 58.163 19.212, 51.283 10.144 C 47.971 5.778, 43.514 4, 35.887 4 L 29.710 4 19.231 14.250 M 21.313 19.250 C 10.397 30.366, 9.266 32.617, 10.490 40.782 C 11.790 49.448, 18.295 53.539, 32.500 54.622 C 38.516 55.080, 40.131 54.828, 43.992 52.828 C 49.631 49.906, 52.685 45.375, 53.516 38.700 C 54.662 29.500, 49.900 14.145, 44.791 10.566 C 43.409 9.598, 40.420 9, 36.967 9 L 31.380 9 21.313 19.250 M 39.104 18.914 C 37.019 20.235, 38.579 23, 41.410 23 C 44.438 23, 45.584 21.409, 43.964 19.456 C 42.589 17.799, 41.123 17.636, 39.104 18.914 M 20.363 26.497 C 20.017 27.398, 20.196 28.596, 20.761 29.161 C 22.391 30.791, 25.500 29.692, 25.500 27.486 C 25.500 24.943, 21.272 24.128, 20.363 26.497 M 35.687 32.373 C 35.375 33.187, 35.746 34.374, 36.511 35.009 C 38.548 36.699, 41.500 35.798, 41.500 33.486 C 41.500 31.019, 36.569 30.075, 35.687 32.373 M 40.380 41.452 C 39.564 43.579, 40.794 45, 43.452 45 C 45.780 45, 47.510 42.635, 46.444 40.910 C 45.544 39.453, 40.991 39.861, 40.380 41.452 M 16.476 43.039 C 16.084 43.673, 16.441 44.870, 17.270 45.699 C 19.203 47.631, 23.243 46.510, 22.798 44.165 C 22.428 42.210, 17.527 41.338, 16.476 43.039" stroke="none" fill="#000000" fill-rule="evenodd"/>
</svg>