<svg xmlns="http://www.w3.org/2000/svg" width="64" height="64" viewBox="0 0 64 64"><defs/><path id="path853" fill="#000000" d="M56.075,20.099 Q62.824,39.859 53.911,51.594 Q43.735,64.992 19.007,57.302 Q4.968,52.937 5.204,35.839 Q5.323,27.202 15.236,18.463 Q17.275,16.665 18.204,15.755 Q19.591,14.397 21.958,11.6 Q29.353,2.859 36.984,4.25 Q50.182,2.847 56.075,20.099 Z M51.472,21.671 Q46.77,7.907 37.19,9.122 Q36.775,9.175 36.365,9.086 Q31.378,7.996 25.671,14.741 Q23.157,17.712 21.607,19.23 Q20.587,20.229 18.452,22.111 Q10.156,29.425 10.067,35.906 Q9.881,49.371 20.451,52.658 Q41.924,59.335 50.038,48.652 Q57.385,38.98 51.472,21.671 Z M22.088,25.14 L23.754,25.14 Q26.186,25.14 26.186,27.572 Q26.186,30.003 23.754,30.003 L22.088,30.003 Q19.656,30.003 19.656,27.572 Q19.656,25.14 22.088,25.14 Z M37.973,30.908 L39.639,30.908 Q42.071,30.908 42.071,33.34 Q42.071,35.771 39.639,35.771 L37.973,35.771 Q35.541,35.771 35.541,33.34 Q35.541,30.908 37.973,30.908 Z M42.591,39.949 L44.256,39.949 Q46.688,39.949 46.688,42.381 Q46.688,44.812 44.256,44.812 L42.591,44.812 Q40.159,44.812 40.159,42.381 Q40.159,39.949 42.591,39.949 Z M40.408,18.478 L42.073,18.478 Q44.505,18.478 44.505,20.91 Q44.505,23.342 42.073,23.342 L40.408,23.342 Q37.976,23.342 37.976,20.91 Q37.976,18.478 40.408,18.478 Z M18.757,41.794 L20.423,41.794 Q22.855,41.794 22.855,44.226 Q22.855,46.658 20.423,46.658 L18.757,46.658 Q16.326,46.658 16.326,44.226 Q16.326,41.794 18.757,41.794 Z"/></svg>