<svg xmlns="http://www.w3.org/2000/svg" width="64" height="64" viewBox="0 0 64 64"><defs/><path id="path1023" fill="#000000" d="M23.769,19.865 Q24.086,19.718 24.417,19.585 Q26.423,17.717 26.758,12.355 Q26.864,10.664 28.558,10.627 L37.729,10.428 Q39.515,10.39 39.61,12.173 Q39.914,17.898 40.84,18.704 Q43.893,17.343 47.276,17.343 Q57.309,17.343 59.602,30.081 Q61.788,42.219 54.01,51.244 Q52.128,53.428 47.166,53.325 Q43.191,53.242 40.521,51.678 Q37.549,53.498 32.271,53.562 Q31.89,53.567 31.697,53.57 Q26.949,53.646 23.419,51.653 Q21.087,52.68 17.941,52.884 Q17.238,52.929 16.93,52.963 Q6.7,54.094 4.313,37.938 Q1.943,21.899 12.821,18.757 Q19.677,16.776 23.769,19.865 Z M22.202,23.383 Q19.521,20.659 13.845,22.299 Q6.061,24.547 7.96,37.399 Q9.827,50.039 16.525,49.299 Q16.916,49.256 17.703,49.205 Q20.713,49.01 22.612,47.941 Q23.604,47.382 24.548,48.02 Q27.407,49.952 31.638,49.884 Q31.83,49.881 32.227,49.876 Q37.281,49.815 39.258,48.046 Q40.43,46.997 41.65,47.989 Q43.587,49.563 47.243,49.639 Q50.469,49.706 51.217,48.838 Q57.848,41.143 55.974,30.734 Q54.227,21.03 47.276,21.03 Q43.811,21.03 40.777,22.901 Q39.82,23.49 39.295,23.747 Q38.501,24.135 37.701,23.758 Q37.637,23.728 37.469,23.648 Q34.076,22.023 31.988,22.023 Q28.598,22.023 26.284,22.82 Q25.719,23.232 25.209,23.262 Q24.828,23.446 24.485,23.659 Q23.233,24.431 22.202,23.383 Z M29.333,18.458 Q30.594,18.336 31.988,18.336 Q34.259,18.336 37.266,19.533 Q36.395,17.524 36.062,14.152 L30.284,14.277 Q29.995,16.645 29.333,18.458 Z"/></svg>