<svg xmlns="http://www.w3.org/2000/svg" width="64" height="64" viewBox="0 0 64 64" version="1.1">
	<path d="M 27.620 11.523 C 26.729 12.414, 26 14.181, 26 15.449 C 26 18.399, 23.930 20.200, 21.966 18.958 C 19.535 17.420, 13.694 17.889, 10.420 19.886 C 2.211 24.891, 1.734 41.334, 9.557 49.629 C 12.971 53.250, 11.926 53.092, 32.500 53.089 C 47.785 53.087, 50.416 53.003, 52.122 52.461 C 55.395 51.423, 59.187 43.545, 59.741 36.633 C 60.701 24.680, 54.585 16.626, 45 17.221 C 40.552 17.497, 40.494 17.460, 40 14 C 39.510 10.569, 39.399 10.494, 34.370 10.202 C 30.669 9.987, 28.788 10.355, 27.620 11.523 M 30.345 15.543 C 29.609 17.463, 29.777 17.612, 33.621 18.434 C 36.552 19.062, 36.712 18.947, 36.255 16.551 C 35.892 14.655, 35.147 14, 33.352 14 C 32.024 14, 30.671 14.694, 30.345 15.543 M 41.740 22.577 C 39.459 23.814, 38.287 23.867, 34.990 22.879 C 31.894 21.951, 30.105 21.952, 27.006 22.880 C 24.188 23.724, 22.440 23.771, 21.072 23.038 C 17.933 21.359, 14.301 21.837, 11.427 24.309 C 6.712 28.365, 7.070 41.478, 12.043 46.816 C 13.804 48.706, 15.064 49.019, 20.310 48.871 C 23.715 48.775, 28.339 49.039, 30.587 49.458 C 33.529 50.006, 35.500 49.793, 37.618 48.697 C 39.678 47.632, 41.083 47.467, 42.298 48.147 C 43.253 48.681, 45.714 48.979, 47.767 48.809 C 51.067 48.536, 51.761 47.983, 53.750 44.038 C 58.906 33.814, 54.648 20.841, 46.203 21.040 C 45.266 21.062, 43.258 21.754, 41.740 22.577" stroke="none" fill="#000000" fill-rule="evenodd"/>
</svg>