<svg xmlns="http://www.w3.org/2000/svg" width="64" height="64" viewBox="0 0 64 64"><defs/><path id="path1023" fill="#000000" d="M24.798,21.382 Q25.075,21.253 25.365,21.137 Q27.12,19.502 27.413,14.811 Q27.506,13.331 28.988,13.299 L37.013,13.125 Q38.576,13.091 38.659,14.651 Q38.925,19.661 39.735,20.366 Q42.406,19.175 45.367,19.175 Q54.145,19.175 56.152,30.321 Q58.064,40.942 51.259,48.839 Q49.612,50.75 45.27,50.659 Q41.792,50.587 39.456,49.218 Q36.855,50.811 32.237,50.867 Q31.904,50.871 31.735,50.874 Q27.58,50.94 24.492,49.196 Q22.451,50.095 19.698,50.273 Q19.083,50.313 18.814,50.343 Q9.862,51.332 7.774,37.196 Q5.7,23.162 15.218,20.412 Q21.217,18.679 24.798,21.382 Z M23.427,24.46 Q21.081,22.077 16.114,23.512 Q9.303,25.479 10.965,36.724 Q12.599,47.784 18.459,47.137 Q18.802,47.099 19.49,47.054 Q22.124,46.884 23.785,45.948 Q24.653,45.459 25.479,46.018 Q27.981,47.708 31.683,47.648 Q31.851,47.646 32.199,47.641 Q36.621,47.588 38.351,46.04 Q39.376,45.122 40.444,45.99 Q42.139,47.368 45.338,47.434 Q48.16,47.493 48.815,46.733 Q54.617,40 52.977,30.892 Q51.449,22.401 45.367,22.401 Q42.335,22.401 39.68,24.038 Q38.842,24.554 38.383,24.779 Q37.688,25.118 36.988,24.788 Q36.932,24.762 36.785,24.692 Q33.816,23.27 31.99,23.27 Q29.023,23.27 26.999,23.967 Q26.504,24.328 26.058,24.354 Q25.724,24.515 25.424,24.702 Q24.329,25.377 23.427,24.46 Z M29.666,20.151 Q30.77,20.044 31.99,20.044 Q33.977,20.044 36.608,21.091 Q35.846,19.333 35.554,16.383 L30.499,16.492 Q30.246,18.564 29.666,20.151 Z"/></svg>