<svg xmlns="http://www.w3.org/2000/svg" width="64" height="64" viewBox="0 0 64 64"><defs/><path id="path1" fill="#000000" d="M53.611,38.509 Q53.381,38.648 53.163,38.73 Q49.213,40.621 44.346,41.441 Q44.971,44.656 44.075,47.73 Q44.068,47.752 44.062,47.773 Q42.237,53.523 39.245,57.03 Q39.189,57.094 39.129,57.154 Q33.415,62.731 26.798,58.481 Q23.137,56.455 23.672,52.589 Q23.849,50.949 24.781,48.03 Q25.537,45.666 25.699,44.511 Q25.706,44.465 25.714,44.42 Q25.861,43.653 26.116,42.852 Q26.136,42.789 26.064,42.563 Q25.49,42.389 24.537,42.249 Q24.095,42.185 23.829,42.141 Q23.487,42.112 22.802,42.059 Q11.317,41.159 8.139,37.62 Q8.13,37.611 8.122,37.601 Q5.311,34.54 7.639,23.879 Q9.152,15.696 16.226,10.284 Q24.203,4.32 34.028,4.011 Q43.961,3.685 51.182,11.359 Q57.066,17.648 57.397,23.807 Q57.398,23.826 57.401,23.863 Q58.269,34.879 54.166,38.121 Q53.942,38.333 53.611,38.509 Z M42.246,37.976 Q47.616,37.29 51.755,35.261 Q54.415,33.414 53.673,24.104 Q53.671,24.076 53.669,24.048 Q53.43,19.229 48.461,13.919 Q42.397,7.474 34.145,7.745 Q25.497,8.017 18.496,13.251 Q12.553,17.797 11.308,24.583 Q11.302,24.614 11.295,24.645 Q9.367,33.456 10.874,35.076 Q10.891,35.094 10.907,35.112 Q13.057,37.548 23.094,38.334 Q23.862,38.394 24.219,38.425 Q24.299,38.431 24.377,38.445 Q24.605,38.484 25.078,38.553 Q26.687,38.789 27.738,39.197 Q29.995,38.785 33.854,38.711 Q35.79,38.687 41.687,38.043 Q41.986,37.975 42.246,37.976 Z M40.629,41.913 Q35.753,42.424 33.925,42.446 Q31.496,42.492 29.825,42.671 Q29.866,43.384 29.676,43.984 Q29.496,44.55 29.392,45.08 Q29.178,46.544 28.34,49.167 Q27.514,51.751 27.384,53.011 Q27.38,53.047 27.375,53.082 Q27.181,54.438 28.647,55.235 Q28.71,55.269 28.771,55.308 Q32.882,57.974 36.459,54.539 Q38.912,51.63 40.488,46.685 Q40.494,46.664 40.501,46.643 Q41.156,44.353 40.629,41.913 Z M19.81,17.042 Q20.26,18.948 21.153,19.592 Q23.586,21.423 28.434,21.885 Q28.603,21.894 28.903,21.911 Q31.644,22.065 32.875,21.83 Q33.793,21.655 34.339,22.027 Q34.885,22.398 35.06,23.315 Q35.41,25.15 33.575,25.5 Q31.892,25.821 28.693,25.641 Q28.371,25.622 28.198,25.613 Q28.16,25.611 28.122,25.608 Q22.193,25.05 18.969,22.622 Q16.944,21.163 16.174,17.899 Q15.746,16.081 17.564,15.652 Q18.473,15.438 19.035,15.785 Q19.596,16.133 19.81,17.042 Z M48.417,15.545 Q49.839,20.239 45.458,22.892 Q44.243,23.703 41.753,24.572 Q41.372,24.705 41.184,24.772 Q39.426,25.401 38.797,23.642 Q38.482,22.763 38.765,22.166 Q39.047,21.569 39.927,21.254 Q40.128,21.182 40.522,21.045 Q42.596,20.321 43.405,19.771 Q43.449,19.741 43.495,19.714 Q45.426,18.556 44.842,16.628 Q44.301,14.84 46.088,14.299 Q46.982,14.028 47.564,14.339 Q48.146,14.651 48.417,15.545 Z M34.591,30.155 L34.855,32.653 Q35.051,34.511 33.194,34.707 Q32.265,34.805 31.752,34.39 Q31.238,33.975 31.14,33.046 L31.008,31.797 L30.876,30.547 Q30.778,29.618 31.193,29.105 Q31.609,28.591 32.537,28.493 Q34.395,28.297 34.591,30.155 Z M25.62,30.299 L25.672,32.153 Q25.698,33.087 25.244,33.566 Q24.79,34.046 23.856,34.072 Q21.989,34.124 21.937,32.257 L21.913,31.375 L21.886,30.403 Q21.834,28.536 23.701,28.484 Q24.634,28.458 25.114,28.911 Q25.594,29.365 25.62,30.299 Z M18.027,28.654 Q17.94,28.926 17.759,29.291 Q17.94,29.849 17.795,30.302 Q17.594,30.931 16.763,31.358 Q15.103,32.213 14.248,30.552 Q13.577,29.25 14.379,27.696 Q14.463,27.534 14.469,27.518 Q15.037,25.738 16.816,26.306 Q17.706,26.59 18.008,27.177 Q18.311,27.764 18.027,28.654 Z M50.366,26.041 L51.393,27.331 Q52.557,28.793 51.095,29.956 Q50.364,30.537 49.708,30.463 Q49.052,30.388 48.47,29.657 L48.214,29.335 L47.444,28.368 Q46.281,26.906 47.742,25.743 Q48.473,25.161 49.129,25.236 Q49.785,25.31 50.366,26.041 Z M43.85,29.989 L44.157,31.544 Q44.338,32.46 43.971,33.008 Q43.603,33.557 42.687,33.738 Q40.855,34.101 40.492,32.268 L40.185,30.713 Q40.004,29.797 40.371,29.248 Q40.739,28.7 41.655,28.519 Q43.487,28.156 43.85,29.989 Z"/></svg>