<svg xmlns="http://www.w3.org/2000/svg" width="64" height="64" viewBox="0 0 64 64"><defs/><path id="path655" fill="#000000" d="M12.913,43.879 L12.397,43.581 Q11.905,42.606 10.166,39.917 Q2.785,28.499 4.372,22.467 Q6.405,14.739 12.314,10.729 Q19.195,6.059 25.976,10.968 Q32.021,6.422 41.289,5.228 Q52.462,3.789 57.519,8.846 Q63.128,14.455 58.174,34.119 Q56.11,42.307 39.217,46.941 Q38.184,47.224 37.687,47.363 Q33.908,48.416 26.723,49.38 Q19.284,50.377 16.293,51.573 Q14.671,54.407 11.719,57.79 Q11.457,58.09 11.342,58.223 Q9.708,60.103 7.828,58.47 Q6.887,57.653 6.826,56.774 Q6.764,55.896 7.581,54.955 Q7.716,54.8 7.965,54.514 Q12.106,49.769 13.063,46.705 Q13.087,46.631 13.112,46.546 Q12.118,45.524 12.913,43.879 Z M50.228,15.141 Q46.648,20.357 41.521,26.391 Q41.156,27.146 40.597,27.472 Q40.575,27.497 40.506,27.577 Q44.333,26.902 47.269,28.012 Q49.599,28.893 48.719,31.223 Q48.278,32.388 47.475,32.751 Q46.673,33.113 45.507,32.673 Q42.526,31.546 37.115,33.79 Q34.962,34.683 33.805,35.047 Q33.781,35.055 33.754,35.062 Q29.673,39.414 24.918,44.121 Q24.539,44.497 24.16,44.711 Q25.077,44.574 26.061,44.442 Q32.903,43.524 36.35,42.564 Q36.863,42.42 37.898,42.136 Q51.989,38.271 53.342,32.901 Q57.606,15.979 53.996,12.369 Q50.67,9.043 41.925,10.17 Q32.946,11.326 27.73,15.965 Q27.573,16.129 27.414,16.261 Q24.147,19.518 22.032,30.508 Q21.08,35.458 20.397,37.567 Q19.856,39.24 19.19,42.519 Q27.075,35.271 26.948,26.259 Q26.931,25.013 27.545,24.382 Q28.159,23.75 29.404,23.733 Q31.895,23.698 31.93,26.189 Q31.957,28.108 31.703,29.954 Q34.647,26.762 37.2,23.782 Q37.292,23.54 37.352,23.383 Q38.773,19.646 37.765,16.438 Q37.392,15.249 37.799,14.468 Q38.207,13.688 39.395,13.314 Q41.772,12.567 42.518,14.944 Q42.791,15.811 42.95,16.694 Q44.669,14.435 46.12,12.321 Q47.53,10.267 49.583,11.677 Q50.611,12.382 50.772,13.248 Q50.933,14.114 50.228,15.141 Z M17.533,24.435 Q17.689,24.932 18.015,25.551 Q19.784,18.383 22.38,14.591 Q18.682,12.429 15.112,14.851 Q10.748,17.813 9.19,23.734 Q8.162,27.64 14.351,37.212 Q14.708,37.765 15.027,38.289 Q15.353,36.972 15.657,36.034 Q15.681,35.958 15.707,35.874 Q15.709,35.347 15.949,34.713 Q16.746,32.605 15.086,30.249 Q13.372,27.816 12.779,25.929 Q12.033,23.552 14.409,22.805 Q15.598,22.432 16.378,22.839 Q17.159,23.247 17.533,24.435 Z"/></svg>