<svg xmlns="http://www.w3.org/2000/svg" width="64" height="64" viewBox="0 0 64 64" version="1.1">
	<path d="M 35.224 6.469 C 32.872 7.204, 29.804 8.554, 28.407 9.469 C 26.398 10.786, 25.563 10.882, 24.416 9.931 C 23.619 9.269, 21.184 8.727, 19.006 8.727 C 13.863 8.727, 8.933 12.442, 5.980 18.541 C 3.019 24.658, 3.704 29.203, 8.910 37.966 C 11.160 41.752, 13 45.491, 13 46.275 C 13 47.059, 11.618 49.608, 9.928 51.941 C 4.664 59.208, 8.417 61.908, 14.167 54.991 C 17.377 51.130, 17.852 50.925, 27 49.467 C 45.303 46.548, 54.793 42.132, 57.697 35.182 C 59.777 30.204, 60.502 14.229, 58.795 11 C 55.878 5.486, 45.042 3.403, 35.224 6.469 M 37.500 11.346 C 26.654 14.920, 25.141 16.851, 22.034 31.088 C 19.601 42.233, 19.638 41.546, 21.566 39.945 C 23.871 38.032, 26.034 33.413, 26.843 28.674 C 27.391 25.466, 28.001 24.500, 29.483 24.500 C 30.696 24.500, 31.621 25.394, 31.979 26.912 L 32.549 29.325 35.274 26.086 C 37.331 23.642, 38 21.775, 38 18.482 C 38 13.601, 39.425 11.996, 41.721 14.292 C 43.093 15.664, 43.487 15.548, 45.562 13.161 C 47.751 10.641, 47.967 10.591, 49.621 12.220 C 51.281 13.854, 51.130 14.245, 46.612 20.064 C 43.996 23.433, 42 26.277, 42.178 26.385 C 42.355 26.492, 43.850 27.023, 45.500 27.564 C 47.489 28.217, 48.500 29.214, 48.500 30.524 C 48.500 32.156, 47.804 32.507, 44.500 32.539 C 38.549 32.596, 33.971 34.822, 29.500 39.832 L 25.500 44.315 30 43.707 C 36.715 42.799, 47.382 39.274, 50.258 37.012 C 52.178 35.502, 53.059 33.482, 53.896 28.678 C 55.371 20.206, 55.288 14.776, 53.650 12.536 C 51.914 10.162, 43.069 9.510, 37.500 11.346 M 14.778 15.250 C 12.546 16.990, 9.008 23.136, 9.004 25.283 C 8.998 27.991, 13.937 37.157, 15.036 36.478 C 16.461 35.597, 16.148 31.780, 14.468 29.559 C 13.661 28.491, 13 26.526, 13 25.192 C 13 23.126, 13.381 22.840, 15.572 23.259 C 17.662 23.658, 18.319 23.258, 19.073 21.125 C 19.583 19.681, 20.451 17.719, 21 16.764 C 21.550 15.809, 22 14.796, 22 14.514 C 22 13.465, 16.326 14.044, 14.778 15.250" stroke="none" fill="#000000" fill-rule="evenodd"/>
</svg>