<svg xmlns="http://www.w3.org/2000/svg" width="64" height="64" viewBox="0 0 64 64"><defs/><path id="path655" fill="#000000" d="M15.299,42.394 L14.847,42.133 Q14.417,41.28 12.895,38.927 Q6.437,28.937 7.826,23.659 Q9.604,16.897 14.775,13.388 Q20.796,9.302 26.729,13.597 Q32.018,9.619 40.128,8.575 Q49.904,7.315 54.329,11.74 Q59.237,16.648 54.902,33.854 Q53.096,41.019 38.315,45.073 Q37.411,45.321 36.976,45.443 Q33.67,46.364 27.383,47.208 Q20.874,48.08 18.256,49.126 Q16.837,51.606 14.254,54.566 Q14.025,54.829 13.924,54.945 Q12.495,56.59 10.85,55.161 Q10.026,54.446 9.973,53.677 Q9.918,52.909 10.633,52.086 Q10.752,51.95 10.969,51.7 Q14.593,47.548 15.43,44.867 Q15.451,44.802 15.473,44.728 Q14.603,43.833 15.299,42.394 Z M47.95,17.248 Q44.817,21.812 40.331,27.092 Q40.011,27.753 39.522,28.038 Q39.503,28.06 39.443,28.13 Q42.791,27.539 45.36,28.51 Q47.399,29.281 46.629,31.32 Q46.243,32.34 45.541,32.657 Q44.839,32.974 43.819,32.589 Q41.21,31.603 36.476,33.566 Q34.592,34.348 33.579,34.666 Q33.558,34.673 33.535,34.679 Q29.964,38.487 25.803,42.606 Q25.472,42.935 25.14,43.122 Q25.942,43.002 26.803,42.887 Q32.79,42.083 35.806,41.243 Q36.255,41.118 37.161,40.869 Q49.49,37.487 50.674,32.788 Q54.405,17.982 51.246,14.823 Q48.336,11.913 40.684,12.899 Q32.828,13.91 28.264,17.969 Q28.126,18.113 27.987,18.228 Q25.129,21.078 23.278,30.694 Q22.445,35.026 21.847,36.871 Q21.374,38.335 20.791,41.204 Q27.691,34.862 27.58,26.977 Q27.565,25.886 28.102,25.334 Q28.639,24.781 29.729,24.766 Q31.908,24.736 31.939,26.915 Q31.962,28.594 31.74,30.21 Q34.316,27.417 36.55,24.809 Q36.631,24.597 36.683,24.46 Q37.926,21.19 37.044,18.383 Q36.718,17.343 37.074,16.66 Q37.431,15.977 38.471,15.65 Q40.55,14.996 41.203,17.076 Q41.442,17.835 41.581,18.607 Q43.085,16.631 44.355,14.781 Q45.589,12.984 47.385,14.217 Q48.285,14.834 48.425,15.592 Q48.566,16.35 47.95,17.248 Z M19.341,25.381 Q19.478,25.815 19.763,26.357 Q21.311,20.085 23.582,16.767 Q20.347,14.875 17.223,16.995 Q13.405,19.586 12.041,24.767 Q11.142,28.185 16.557,36.561 Q16.869,37.044 17.149,37.503 Q17.434,36.351 17.7,35.53 Q17.721,35.463 17.744,35.39 Q17.745,34.929 17.955,34.374 Q18.653,32.529 17.2,30.468 Q15.7,28.339 15.182,26.688 Q14.529,24.608 16.608,23.954 Q17.648,23.628 18.331,23.984 Q19.014,24.341 19.341,25.381 Z"/></svg>