<svg xmlns="http://www.w3.org/2000/svg" width="64" height="64" viewBox="0 0 64 64" version="1.1">
	<path d="M 50.559 5.125 C 42.018 7.126, 34.527 15.110, 32.531 24.339 L 31.917 27.178 29.086 22.962 C 27.528 20.643, 24.425 17.517, 22.188 16.015 C 18.140 13.296, 6.873 10.342, 4.989 11.507 C 3.639 12.341, 3.742 18.953, 5.170 23.101 C 8.600 33.063, 16.170 39.411, 24.914 39.657 L 30.500 39.813 31.500 49.333 C 32.050 54.569, 32.801 59.150, 33.169 59.512 C 33.537 59.875, 34.361 59.193, 35.001 57.998 C 35.879 56.357, 35.888 53.745, 35.036 47.345 C 33.802 38.069, 34.244 35, 36.817 34.999 C 39.898 34.998, 50.456 29.289, 53.699 25.872 C 59.236 20.036, 61.640 10.934, 58.965 5.934 C 57.842 3.836, 56.577 3.714, 50.559 5.125 M 49.808 9.406 C 45.429 10.970, 40.016 15.283, 38.198 18.658 C 36.340 22.108, 35.400 31, 36.893 31 C 38.993 31, 45.315 27.997, 48.781 25.353 C 53.529 21.732, 55.992 17.259, 55.996 12.250 C 56 7.551, 55.564 7.351, 49.808 9.406 M 8 17.453 C 8 23.391, 13.307 31.510, 19.200 34.589 C 20.686 35.365, 23.723 36, 25.950 36 C 30.571 36, 30.903 35.098, 28.447 29.218 C 25.634 22.485, 19.011 17.218, 11.250 15.543 C 8.234 14.892, 8 15.029, 8 17.453" stroke="none" fill="#000000" fill-rule="evenodd"/>
</svg>