<svg xmlns="http://www.w3.org/2000/svg" width="64" height="64" viewBox="0 0 64 64"><defs/><path id="path940" fill="#000000" d="M30.777,38.997 Q21.153,42.651 12.19,34.226 Q2.516,25.133 4.2,12.873 Q4.416,11.3 6.002,11.365 Q25.642,12.159 32.219,28.529 Q33.644,15.982 39.214,11.723 Q39.857,11.231 41.061,10.241 Q48.05,4.494 57.448,4.494 Q58.757,4.494 59.125,5.751 Q62.993,18.96 51.106,28.27 Q42.588,34.942 34.648,35.427 Q34.547,35.807 34.471,36.245 Q34.497,36.566 34.382,36.846 Q33.945,40.365 34.892,47.047 Q36.066,55.324 35.064,58.313 Q34.509,59.97 32.852,59.415 Q32.023,59.138 31.748,58.584 Q31.472,58.031 31.75,57.203 Q32.489,54.997 31.431,47.538 Q30.722,42.536 30.777,38.997 Z M30.653,35.253 Q26.291,16.481 7.499,14.956 Q6.872,24.431 14.584,31.679 Q22.407,39.032 30.653,35.253 Z M35.389,31.853 Q41.822,31.102 48.95,25.519 Q58.376,18.136 56.105,8.024 Q48.801,8.402 43.281,12.941 Q42.029,13.97 41.337,14.499 Q36.754,18.004 35.591,29.877 Q35.483,30.978 35.389,31.853 Z"/></svg>