<svg xmlns="http://www.w3.org/2000/svg" width="64" height="64" viewBox="0 0 64 64"><defs/><path id="path940" fill="#000000" d="M30.93,38.122 Q22.509,41.32 14.666,33.948 Q6.201,25.991 7.675,15.264 Q7.864,13.887 9.252,13.944 Q26.437,14.639 32.192,28.963 Q33.438,17.984 38.312,14.258 Q38.875,13.827 39.928,12.961 Q46.044,7.932 54.267,7.932 Q55.412,7.932 55.734,9.032 Q59.119,20.59 48.718,28.736 Q41.264,34.574 34.317,34.999 Q34.229,35.331 34.162,35.714 Q34.185,35.995 34.084,36.24 Q33.702,39.319 34.53,45.166 Q35.558,52.409 34.681,55.024 Q34.195,56.474 32.745,55.988 Q32.02,55.746 31.779,55.261 Q31.538,54.777 31.781,54.053 Q32.428,52.122 31.502,45.596 Q30.882,41.219 30.93,38.122 Z M30.821,34.846 Q27.005,18.421 10.562,17.087 Q10.013,25.377 16.761,31.719 Q23.606,38.153 30.821,34.846 Z M34.965,31.871 Q40.594,31.214 46.831,26.329 Q55.079,19.869 53.092,11.021 Q46.701,11.352 41.871,15.323 Q40.775,16.224 40.17,16.687 Q36.16,19.753 35.142,30.142 Q35.048,31.106 34.965,31.871 Z"/></svg>