<svg xmlns="http://www.w3.org/2000/svg" width="64" height="64" viewBox="0 0 64 64"><defs/><path id="path941" fill="#000000" d="M42.964,9.257 Q46.626,14.696 46.432,17.775 Q46.402,18.264 46.289,18.743 Q47.221,18.516 47.956,18.465 Q53.808,18.05 56.365,24.455 Q56.96,25.945 55.588,26.777 Q51.718,29.126 44.595,27.174 Q50.558,35.778 47.902,42.786 Q44.988,50.48 33.559,53.053 Q15.4,57.142 10.642,54.021 Q6.963,51.608 7.577,40.506 Q8.157,30.023 11.62,23.704 Q16.795,14.263 26.997,14.185 Q31.336,14.152 35.714,17.506 Q35.274,15.257 35.443,13.979 Q35.979,9.925 40.859,8.497 Q42.189,8.108 42.964,9.257 Z M27.026,17.976 Q19.049,18.036 14.944,25.526 Q11.894,31.092 11.361,40.715 Q10.868,49.636 12.721,50.852 Q16.135,53.091 32.727,49.356 Q42.166,47.23 44.358,41.443 Q46.86,34.84 38.253,25.302 Q38.173,25.242 38.098,25.17 Q37.612,24.885 37.44,24.409 Q37.223,24.169 36.941,23.854 Q31.656,17.941 27.026,17.976 Z M13.093,40.495 L15.675,38.542 Q17.186,37.398 18.33,38.91 Q19.473,40.421 17.962,41.565 L15.38,43.518 Q13.869,44.661 12.726,43.15 Q11.582,41.639 13.093,40.495 Z M17.682,31.477 L19.531,29.605 Q20.863,28.257 22.211,29.588 Q23.56,30.92 22.228,32.269 L20.379,34.14 Q19.047,35.489 17.699,34.157 Q16.351,32.825 17.682,31.477 Z M20.626,23.215 L22.475,21.343 Q23.806,19.995 25.155,21.327 Q26.503,22.658 25.171,24.007 L23.323,25.878 Q21.991,27.227 20.642,25.895 Q19.294,24.563 20.626,23.215 Z M21.672,38.545 L23.522,36.673 Q24.854,35.324 26.202,36.657 Q27.551,37.989 26.218,39.337 L24.369,41.208 Q23.037,42.557 21.689,41.225 Q20.341,39.893 21.672,38.545 Z M37.106,40.131 L38.797,38.482 Q40.153,37.158 41.477,38.515 Q42.139,39.193 42.131,39.864 Q42.122,40.533 41.444,41.195 L39.753,42.844 Q38.397,44.168 37.073,42.812 Q36.412,42.132 36.42,41.463 Q36.428,40.793 37.106,40.131 Z M27.063,28.386 L28.754,26.737 Q30.111,25.414 31.434,26.77 Q32.758,28.127 31.401,29.45 L29.71,31.1 Q28.354,32.423 27.031,31.066 Q25.707,29.709 27.063,28.386 Z M29.998,41.614 L31.492,39.905 Q32.116,39.191 32.784,39.146 Q33.452,39.102 34.167,39.725 Q35.593,40.972 34.346,42.399 L32.851,44.108 Q31.604,45.535 30.177,44.288 Q28.75,43.041 29.998,41.614 Z M33.288,33.77 L34.783,32.06 Q36.029,30.634 37.457,31.881 Q38.884,33.129 37.636,34.556 L36.142,36.265 Q34.895,37.692 33.467,36.444 Q32.041,35.197 33.288,33.77 Z M20.666,47.252 L22.352,45.99 Q23.869,44.855 25.005,46.372 Q26.141,47.889 24.624,49.025 L22.937,50.287 Q21.42,51.422 20.285,49.905 Q19.149,48.388 20.666,47.252 Z M40.424,20.607 Q42.558,18.982 42.65,17.536 Q42.745,16.016 40.643,12.644 Q39.351,13.343 39.2,14.477 Q39.022,15.829 40.233,19.951 Q40.333,20.292 40.424,20.607 Z M44.653,23.244 Q49.268,24.67 51.953,24.154 Q50.518,22.083 48.223,22.245 Q46.961,22.335 44.653,23.244 Z"/></svg>