<svg xmlns="http://www.w3.org/2000/svg" width="64" height="64" viewBox="0 0 64 64" version="1.1">
	<path d="M 38.635 7.073 C 36.852 8.475, 36 10.099, 36 12.096 C 36 15.014, 35.972 15.028, 33.498 13.407 C 29.827 11.001, 19.468 11.819, 15.211 14.850 C 8.137 19.887, 3.555 32.857, 4.158 46.138 C 4.605 55.978, 6.311 58.122, 14.191 58.746 C 20.787 59.269, 36.638 55.902, 42.303 52.774 C 50.593 48.197, 53.078 40.175, 48.993 31.174 L 47.030 26.848 50.011 27.502 C 53.708 28.314, 60 26.352, 60 24.387 C 60 20.543, 52.683 14.842, 49.932 16.542 C 49.471 16.827, 48.633 15.359, 48.071 13.280 C 46.841 8.727, 44.368 5, 42.578 5 C 41.859 5, 40.084 5.933, 38.635 7.073 M 40.657 10.746 C 39.673 12.338, 41.108 18.130, 42.383 17.711 C 42.997 17.509, 43.629 16.475, 43.788 15.414 C 44.140 13.050, 41.587 9.242, 40.657 10.746 M 20.445 16.905 C 14.577 19.435, 9 30.374, 9 39.356 L 9 43.349 11.449 41.048 C 12.861 39.721, 14.555 38.999, 15.449 39.342 C 17.613 40.172, 17.392 41.283, 14.529 43.972 C 12.616 45.770, 11.749 46.037, 10.687 45.155 C 8.694 43.501, 8.290 44.437, 8.931 49.236 L 9.500 53.500 15.348 53.803 C 21.751 54.134, 34.435 51.865, 38.761 49.615 C 49.646 43.952, 48.718 33.888, 36.181 21.639 C 32.054 17.606, 30.463 16.713, 26.853 16.399 C 24.459 16.190, 21.575 16.418, 20.445 16.905 M 19.560 21.218 C 18.179 23.189, 18.173 23.602, 19.507 24.936 C 20.841 26.270, 21.245 26.200, 23.143 24.302 C 25.422 22.022, 25.106 19, 22.588 19 C 21.777 19, 20.414 19.998, 19.560 21.218 M 48.500 22 C 48.840 22.550, 50.243 23, 51.618 23 C 53.030 23, 53.849 22.565, 53.500 22 C 53.160 21.450, 51.757 21, 50.382 21 C 48.970 21, 48.151 21.435, 48.500 22 M 27.534 26.963 C 25.825 28.851, 26 32, 27.814 32 C 29.479 32, 32.241 28.070, 31.653 26.537 C 30.862 24.478, 29.671 24.601, 27.534 26.963 M 16.011 30.487 C 14.522 32.281, 15.366 35, 17.412 35 C 19.126 35, 22.161 31.070, 21.399 29.837 C 20.565 28.487, 17.349 28.875, 16.011 30.487 M 34.534 32.963 C 32.825 34.851, 33 38, 34.814 38 C 36.479 38, 39.241 34.070, 38.653 32.537 C 37.862 30.478, 36.671 30.601, 34.534 32.963 M 21.200 38.200 C 19.580 39.820, 19.676 43, 21.345 43 C 22.946 43, 26 39.832, 26 38.171 C 26 36.642, 22.739 36.661, 21.200 38.200 M 38.479 41.024 C 37.051 42.601, 36.913 43.313, 37.851 44.251 C 39.465 45.865, 42.389 44.039, 42.820 41.148 C 43.230 38.392, 40.920 38.325, 38.479 41.024 M 30.655 41.829 C 28.630 44.067, 28.544 45.611, 30.406 46.326 C 32.263 47.038, 35.404 43.496, 34.653 41.537 C 33.874 39.509, 32.675 39.596, 30.655 41.829 M 19.879 48.914 C 18.080 50.384, 17.780 51.143, 18.649 52.028 C 20.022 53.426, 23.598 52.489, 24.348 50.535 C 24.641 49.771, 24.291 48.657, 23.570 48.058 C 22.595 47.249, 21.648 47.469, 19.879 48.914" stroke="none" fill="#000000" fill-rule="evenodd"/>
</svg>