<svg xmlns="http://www.w3.org/2000/svg" width="64" height="64" viewBox="0 0 64 64"><defs/><path id="path941" fill="#000000" d="M44.53,6.008 Q48.716,12.224 48.494,15.743 Q48.459,16.302 48.33,16.849 Q49.395,16.59 50.235,16.531 Q56.923,16.057 59.846,23.377 Q60.526,25.08 58.958,26.031 Q54.535,28.716 46.394,26.484 Q53.209,36.318 50.174,44.327 Q46.843,53.12 33.782,56.061 Q13.029,60.734 7.591,57.167 Q3.386,54.409 4.088,41.721 Q4.751,29.741 8.709,22.519 Q14.623,11.729 26.282,11.64 Q31.241,11.602 36.245,15.435 Q35.742,12.865 35.935,11.405 Q36.548,6.771 42.125,5.14 Q43.645,4.695 44.53,6.008 Z M26.315,15.972 Q17.199,16.041 12.508,24.601 Q9.022,30.962 8.413,41.96 Q7.849,52.156 9.967,53.545 Q13.869,56.104 32.831,51.835 Q43.618,49.406 46.123,42.792 Q48.983,35.246 39.146,24.345 Q39.055,24.277 38.969,24.194 Q38.414,23.868 38.217,23.325 Q37.969,23.05 37.647,22.69 Q31.607,15.932 26.315,15.972 Z M10.392,41.709 L13.343,39.476 Q15.07,38.169 16.377,39.897 Q17.684,41.624 15.957,42.931 L13.006,45.163 Q11.279,46.47 9.972,44.743 Q8.665,43.016 10.392,41.709 Z M15.637,31.402 L17.75,29.263 Q19.272,27.722 20.813,29.244 Q22.354,30.766 20.832,32.307 L18.719,34.446 Q17.197,35.987 15.656,34.465 Q14.115,32.943 15.637,31.402 Z M19.001,21.96 L21.114,19.821 Q22.636,18.28 24.177,19.802 Q25.718,21.324 24.196,22.865 L22.083,25.004 Q20.561,26.545 19.02,25.023 Q17.479,23.501 19.001,21.96 Z M20.197,39.48 L22.311,37.34 Q23.833,35.799 25.374,37.322 Q26.915,38.844 25.392,40.385 L23.279,42.524 Q21.757,44.065 20.216,42.543 Q18.675,41.021 20.197,39.48 Z M37.836,41.293 L39.768,39.408 Q41.318,37.895 42.831,39.446 Q43.587,40.221 43.578,40.987 Q43.568,41.752 42.793,42.509 L40.861,44.393 Q39.311,45.906 37.798,44.356 Q37.042,43.58 37.051,42.815 Q37.061,42.049 37.836,41.293 Z M26.358,27.87 L28.29,25.985 Q29.841,24.473 31.353,26.023 Q32.866,27.574 31.315,29.086 L29.383,30.971 Q27.833,32.483 26.321,30.933 Q24.808,29.382 26.358,27.87 Z M29.712,42.987 L31.419,41.034 Q32.132,40.218 32.896,40.167 Q33.66,40.116 34.476,40.829 Q36.106,42.254 34.681,43.885 L32.973,45.838 Q31.547,47.469 29.917,46.043 Q28.286,44.618 29.712,42.987 Z M33.472,34.023 L35.18,32.069 Q36.605,30.439 38.236,31.864 Q39.867,33.29 38.441,34.921 L36.734,36.874 Q35.308,38.505 33.677,37.079 Q32.047,35.654 33.472,34.023 Z M19.047,49.431 L20.974,47.989 Q22.708,46.691 24.006,48.425 Q25.304,50.159 23.57,51.457 L21.642,52.899 Q19.908,54.197 18.611,52.463 Q17.313,50.729 19.047,49.431 Z M41.627,18.979 Q44.066,17.122 44.171,15.47 Q44.28,13.733 41.878,9.879 Q40.401,10.678 40.229,11.974 Q40.025,13.519 41.409,18.23 Q41.523,18.619 41.627,18.979 Z M46.461,21.993 Q51.735,23.623 54.803,23.033 Q53.163,20.666 50.541,20.852 Q49.098,20.954 46.461,21.993 Z"/></svg>