<svg xmlns="http://www.w3.org/2000/svg" width="64" height="64" viewBox="0 0 64 64"><defs/><path id="path1022" fill="#000000" d="M33.134,9.813 Q36.398,8.465 38.422,8.717 Q39.487,8.85 41.444,9.914 Q43.363,10.959 43.942,10.887 Q44.628,10.802 45.894,10.15 Q48.392,8.861 50.268,9.183 Q53.446,9.729 56.66,14.043 Q57.38,15.009 57.731,15.42 Q61.726,20.106 56.912,33.558 Q55.884,36.432 55.327,38.048 Q54.945,39.156 54.417,43.249 Q52.956,54.575 49.3,56.926 Q46.878,58.483 40.426,57.533 Q38.49,57.248 38.051,57.273 Q37.55,57.3 35.906,58.057 Q32.537,59.606 30.539,59.245 Q28.991,58.966 27.292,57.742 Q26.651,57.281 26.484,57.275 Q24.908,57.215 21.854,57.884 Q14.077,59.589 11.119,54.136 Q2.202,37.698 4.238,21.151 Q5.417,11.562 11.144,9.231 Q13.697,8.192 16.736,10.81 L16.953,11.265 Q17.064,11.265 17.393,10.84 Q19.129,8.604 21.63,8.469 Q23.468,8.37 26.117,10.099 Q27.415,10.946 27.833,11.004 Q28.245,11.061 28.88,10.818 Q28.105,8.111 29.387,6.34 Q30.496,4.807 32.364,4.667 Q34.566,4.501 34.731,6.702 Q34.814,7.803 34.305,8.394 Q33.852,8.922 32.929,9.045 Q32.915,9.273 33.134,9.813 Z M31.538,14.503 Q31.309,14.575 30.964,14.73 Q28.983,15.62 27.227,15.377 Q25.83,15.184 23.704,13.796 Q22.264,12.856 21.868,12.877 Q21.38,12.904 20.88,13.547 Q19.225,15.679 16.953,15.679 Q15.624,15.679 13.854,14.155 Q12.861,13.299 12.808,13.32 Q9.482,14.674 8.619,21.69 Q6.756,36.835 15,52.031 Q16.375,54.566 20.909,53.572 Q24.512,52.782 26.651,52.863 Q28.15,52.92 29.872,54.16 Q30.76,54.799 31.323,54.901 Q31.954,55.015 34.062,54.046 Q36.468,52.939 37.807,52.865 Q38.692,52.816 41.068,53.166 Q45.883,53.874 46.913,53.212 Q48.841,51.973 50.039,42.684 Q50.624,38.144 51.153,36.609 Q51.721,34.962 52.756,32.07 Q56.708,21.025 54.371,18.284 Q53.927,17.763 53.12,16.68 Q50.96,13.782 49.521,13.534 Q49.102,13.462 47.917,14.073 Q45.951,15.087 44.483,15.269 Q42.498,15.514 39.334,13.792 Q38.111,13.127 37.876,13.098 Q36.989,12.987 34.744,13.924 Q32.784,14.743 31.538,14.503 Z M48.02,16.998 Q49.664,20.329 46.897,29.217 Q43.666,39.599 44.652,45.293 Q45.029,47.468 42.854,47.844 Q40.679,48.221 40.302,46.046 Q39.134,39.304 42.682,27.905 Q44.925,20.701 44.061,18.953 Q43.084,16.974 45.063,15.996 Q46.053,15.508 46.792,15.758 Q47.531,16.009 48.02,16.998 Z M20.334,19.462 Q22.015,25.881 21.805,35.656 Q21.643,43.198 22.908,46.489 Q23.304,47.519 22.987,48.232 Q22.67,48.945 21.639,49.341 Q19.579,50.133 18.787,48.072 Q17.211,43.972 17.391,35.561 Q17.588,26.403 16.064,20.58 Q15.505,18.445 17.64,17.886 Q18.708,17.606 19.381,18.001 Q20.055,18.395 20.334,19.462 Z M34.544,23.287 Q33.347,25.959 34.372,33.475 Q35.414,41.117 34.704,45.131 Q34.319,47.304 32.146,46.92 Q29.972,46.535 30.357,44.362 Q30.946,41.029 29.997,34.071 Q28.802,25.305 30.516,21.481 Q30.967,20.474 31.697,20.196 Q32.426,19.918 33.433,20.369 Q35.447,21.272 34.544,23.287 Z"/></svg>