<svg xmlns="http://www.w3.org/2000/svg" width="64" height="64" viewBox="0 0 64 64" version="1.1">
	<path d="M 29.709 5.624 C 29.319 6.014, 29 7.383, 29 8.667 C 29 11.430, 28.803 11.467, 24.874 9.435 C 22.275 8.091, 21.540 8.064, 19.674 9.246 C 18.045 10.278, 16.797 10.366, 14.697 9.600 C 11.473 8.423, 9.645 9.255, 6.654 13.261 C 2.246 19.165, 3.898 39.311, 9.748 51 C 13.073 57.646, 15.739 59.171, 22 58.009 C 24.884 57.474, 26.952 57.549, 27.760 58.218 C 28.508 58.838, 30.740 58.983, 33.260 58.577 C 35.592 58.200, 39.626 57.938, 42.225 57.995 C 50.419 58.172, 53.007 55.240, 54.506 44.081 C 54.907 41.100, 56.307 35.509, 57.617 31.656 C 60.792 22.322, 60.670 19.305, 56.911 14.194 C 53.490 9.542, 50.127 8.165, 46.369 9.878 C 44.666 10.653, 43.296 10.693, 42.009 10.005 C 40.976 9.452, 38.802 9, 37.177 9 C 34.977 9, 34.258 8.553, 34.361 7.250 C 34.503 5.465, 31.069 4.264, 29.709 5.624 M 19.769 14.659 C 18.359 16.070, 17.639 16.157, 15.490 15.177 C 11.905 13.544, 11.479 13.654, 10.161 16.547 C 7.468 22.457, 9.327 39.049, 13.842 49.393 L 15.634 53.500 22.567 53.657 C 26.380 53.743, 30.400 53.840, 31.500 53.871 C 32.600 53.903, 36.542 53.681, 40.261 53.378 C 48.082 52.742, 48.222 52.587, 49.916 42.683 C 50.557 38.934, 51.963 33.630, 53.041 30.896 C 55.517 24.616, 55.532 19.879, 53.088 16.861 C 50.913 14.176, 47.401 13.790, 29.750 14.292 C 26.862 14.375, 23.817 14.109, 22.982 13.703 C 22.061 13.255, 20.798 13.631, 19.769 14.659 M 43.760 20.750 C 43.521 23.363, 42.553 28.308, 41.608 31.740 C 40.663 35.172, 40.027 40.122, 40.195 42.740 C 40.451 46.732, 40.823 47.500, 42.500 47.500 C 44.252 47.500, 44.576 46.630, 45.109 40.500 C 45.444 36.650, 46.517 30.735, 47.494 27.355 C 49.515 20.359, 48.972 16, 46.077 16 C 44.557 16, 44.109 16.917, 43.760 20.750 M 16.688 18.750 C 16.451 19.163, 16.593 25.727, 17.003 33.338 C 17.743 47.086, 18.872 50.975, 21.610 49.214 C 22.808 48.443, 21.851 23.064, 20.500 19.750 C 19.777 17.978, 17.477 17.374, 16.688 18.750 M 30.343 21.195 C 29.252 22.884, 29.815 45.215, 30.979 46.379 C 31.467 46.867, 32.572 46.995, 33.435 46.663 C 35.711 45.790, 35.009 20.663, 32.696 20.195 C 31.866 20.027, 30.807 20.477, 30.343 21.195" stroke="none" fill="#000000" fill-rule="evenodd"/>
</svg>