<svg xmlns="http://www.w3.org/2000/svg" width="64" height="64" viewBox="0 0 64 64"><defs/><path id="path1022" fill="#000000" d="M32.992,12.586 Q35.848,11.407 37.619,11.627 Q38.551,11.744 40.264,12.675 Q41.943,13.589 42.449,13.526 Q43.049,13.452 44.157,12.881 Q46.343,11.753 47.985,12.035 Q50.765,12.513 53.577,16.288 Q54.208,17.133 54.515,17.493 Q58.01,21.593 53.798,33.363 Q52.898,35.878 52.411,37.292 Q52.077,38.261 51.615,41.843 Q50.337,51.753 47.138,53.81 Q45.018,55.173 39.373,54.341 Q37.679,54.092 37.295,54.114 Q36.856,54.138 35.418,54.8 Q32.47,56.155 30.722,55.839 Q29.367,55.595 27.881,54.524 Q27.32,54.121 27.174,54.116 Q25.795,54.063 23.122,54.648 Q16.317,56.14 13.729,51.369 Q5.927,36.986 7.708,22.507 Q8.74,14.117 13.751,12.077 Q15.985,11.168 18.644,13.459 L18.834,13.857 Q18.931,13.857 19.219,13.485 Q20.738,11.528 22.926,11.41 Q24.535,11.324 26.852,12.837 Q27.988,13.578 28.354,13.628 Q28.714,13.678 29.27,13.466 Q28.592,11.097 29.714,9.548 Q30.684,8.206 32.318,8.084 Q34.245,7.938 34.39,9.864 Q34.462,10.828 34.017,11.345 Q33.62,11.807 32.813,11.914 Q32.801,12.114 32.992,12.586 Z M31.596,16.69 Q31.395,16.753 31.094,16.889 Q29.36,17.667 27.824,17.455 Q26.601,17.286 24.741,16.071 Q23.481,15.249 23.135,15.267 Q22.707,15.291 22.27,15.854 Q20.822,17.719 18.834,17.719 Q17.671,17.719 16.122,16.386 Q15.253,15.637 15.207,15.655 Q12.297,16.84 11.542,22.979 Q9.911,36.231 17.125,49.527 Q18.328,51.745 22.295,50.875 Q25.448,50.184 27.32,50.255 Q28.631,50.305 30.138,51.39 Q30.915,51.949 31.408,52.038 Q31.96,52.138 33.804,51.29 Q35.91,50.322 37.081,50.257 Q37.855,50.214 39.935,50.52 Q44.148,51.14 45.049,50.561 Q46.736,49.476 47.784,41.348 Q48.296,37.376 48.759,36.033 Q49.256,34.592 50.161,32.061 Q53.619,22.397 51.575,19.999 Q51.186,19.543 50.48,18.595 Q48.59,16.059 47.331,15.842 Q46.964,15.779 45.927,16.314 Q44.207,17.201 42.923,17.36 Q41.186,17.575 38.417,16.068 Q37.347,15.486 37.141,15.461 Q36.365,15.364 34.401,16.184 Q32.686,16.9 31.596,16.69 Z M46.018,18.873 Q47.456,21.788 45.035,29.565 Q42.208,38.649 43.07,43.631 Q43.4,45.535 41.497,45.864 Q39.594,46.193 39.264,44.29 Q38.242,38.391 41.347,28.417 Q43.309,22.113 42.553,20.584 Q41.699,18.852 43.43,17.997 Q44.296,17.569 44.943,17.788 Q45.59,18.008 46.018,18.873 Z M21.792,21.029 Q23.263,26.646 23.079,35.199 Q22.938,41.798 24.045,44.678 Q24.391,45.579 24.114,46.203 Q23.836,46.827 22.934,47.173 Q21.132,47.866 20.439,46.063 Q19.06,42.476 19.217,35.116 Q19.389,27.103 18.056,22.007 Q17.567,20.139 19.435,19.65 Q20.369,19.405 20.958,19.751 Q21.548,20.096 21.792,21.029 Z M34.226,24.376 Q33.179,26.714 34.076,33.291 Q34.987,39.977 34.366,43.49 Q34.029,45.391 32.128,45.055 Q30.226,44.718 30.562,42.817 Q31.078,39.9 30.247,33.812 Q29.202,26.142 30.701,22.796 Q31.096,21.915 31.735,21.671 Q32.373,21.428 33.254,21.823 Q35.016,22.613 34.226,24.376 Z"/></svg>