<svg xmlns="http://www.w3.org/2000/svg" width="64" height="64" viewBox="0 0 64 64" version="1.1">
	<path d="M 21.750 9.708 C 20.237 9.942, 18.534 11.003, 17.964 12.066 C 17.395 13.130, 16.425 14, 15.809 14 C 13.446 14, 7.700 19.448, 5.913 23.384 C 0.882 34.463, 6.840 48.490, 18.504 53.028 C 23.078 54.808, 37.621 54.620, 44.092 52.697 C 51.393 50.528, 54.723 47.790, 57.616 41.579 C 60.504 35.375, 60.689 28.114, 58.104 22.421 C 56.219 18.272, 51.806 14, 49.404 14 C 48.675 14, 47.209 13.068, 46.147 11.928 C 44.278 9.921, 41.504 9.556, 33 10.198 C 31.625 10.302, 29.150 10.139, 27.500 9.835 C 25.850 9.531, 23.262 9.474, 21.750 9.708 M 25.813 14.683 C 26.534 14.972, 27.397 14.936, 27.729 14.604 C 28.061 14.272, 27.471 14.036, 26.417 14.079 C 25.252 14.127, 25.015 14.364, 25.813 14.683 M 36.813 14.683 C 37.534 14.972, 38.397 14.936, 38.729 14.604 C 39.061 14.272, 38.471 14.036, 37.417 14.079 C 36.252 14.127, 36.015 14.364, 36.813 14.683 M 14.206 20.480 C 10.194 23.856, 8.652 28.029, 9.223 33.969 C 9.801 39.979, 13.661 45.508, 18.882 47.802 C 23.418 49.795, 37.893 49.964, 43.500 48.090 C 51.115 45.546, 55 39.935, 55 31.482 C 55 24.315, 50.664 18, 45.742 18 C 44.217 18, 44.106 18.329, 45.042 20.078 C 47.323 24.341, 45.986 24.828, 32 24.828 C 18.014 24.828, 16.677 24.341, 18.958 20.078 C 20.556 17.092, 17.973 17.311, 14.206 20.480" stroke="none" fill="#000000" fill-rule="evenodd"/>
</svg>