<svg xmlns="http://www.w3.org/2000/svg" width="64" height="64" viewBox="0 0 64 64"><defs/><path id="path942-3-2" fill="#000000" d="M44.049,10.034 Q44.274,10.069 44.489,10.148 Q45.561,10.545 45.899,11.279 Q46.228,11.995 45.861,13.03 Q59.017,14.198 59.956,29.861 Q60.976,46.883 47.278,51.827 Q35.313,56.146 22.094,53.752 Q4.769,50.614 4.02,32.867 Q3.323,16.345 18.501,13.106 Q18.497,13.096 18.494,13.087 Q18.097,12.014 18.435,11.279 Q18.773,10.545 19.846,10.148 Q20.06,10.069 20.286,10.034 Q26.038,9.133 29.001,9.913 Q30.923,10.418 32.167,11.499 Q33.412,10.418 35.333,9.913 Q38.296,9.133 44.049,10.034 Z M44.049,24.844 Q38.296,25.744 35.333,24.965 Q33.412,24.459 32.167,23.378 Q30.923,24.459 29.001,24.965 Q26.038,25.744 20.286,24.844 Q20.06,24.808 19.846,24.729 Q18.773,24.332 18.435,23.598 Q18.097,22.863 18.494,21.79 Q19.508,19.047 21.645,17.439 Q21.517,17.342 21.393,17.241 Q8.02,19.157 8.59,32.674 Q9.185,46.764 22.91,49.25 Q34.917,51.425 45.725,47.524 Q56.205,43.742 55.389,30.135 Q54.61,17.147 42.805,17.527 Q44.854,19.122 45.841,21.79 Q46.237,22.863 45.899,23.598 Q45.561,24.332 44.489,24.729 Q44.274,24.808 44.049,24.844 Z M29.178,15.126 Q28.683,14.559 27.838,14.337 Q26.802,14.065 25.052,14.125 Q26.642,15.009 29.178,15.126 Z M39.283,14.125 Q37.532,14.065 36.497,14.337 Q35.652,14.559 35.156,15.126 Q37.693,15.009 39.283,14.125 Z M35.156,19.751 Q35.652,20.318 36.497,20.54 Q37.532,20.813 39.283,20.752 Q37.693,19.868 35.156,19.751 Z M29.178,19.751 Q26.642,19.868 25.052,20.752 Q26.802,20.813 27.838,20.54 Q28.683,20.318 29.178,19.751 Z"/></svg>