<svg xmlns="http://www.w3.org/2000/svg" width="64" height="64" viewBox="0 0 64 64"><defs/><path id="path942-3-2" fill="#000000" d="M42.543,12.78 Q42.74,12.81 42.928,12.879 Q43.866,13.227 44.162,13.869 Q44.45,14.496 44.128,15.401 Q55.64,16.423 56.462,30.128 Q57.354,45.023 45.368,49.349 Q34.899,53.128 23.332,51.033 Q8.173,48.287 7.517,32.759 Q6.908,18.302 20.188,15.468 Q20.185,15.459 20.182,15.451 Q19.835,14.512 20.131,13.869 Q20.426,13.227 21.365,12.879 Q21.552,12.81 21.75,12.78 Q26.783,11.991 29.376,12.674 Q31.058,13.116 32.146,14.062 Q33.235,13.116 34.916,12.674 Q37.509,11.991 42.543,12.78 Z M42.543,25.739 Q37.509,26.526 34.916,25.844 Q33.235,25.402 32.146,24.456 Q31.058,25.402 29.376,25.844 Q26.783,26.526 21.75,25.739 Q21.552,25.707 21.365,25.638 Q20.426,25.291 20.131,24.648 Q19.835,24.005 20.182,23.066 Q21.069,20.666 22.939,19.259 Q22.827,19.174 22.719,19.086 Q11.017,20.762 11.516,32.59 Q12.037,44.918 24.046,47.094 Q34.552,48.997 44.009,45.583 Q53.179,42.274 52.465,30.368 Q51.784,19.004 41.454,19.336 Q43.247,20.732 44.111,23.066 Q44.457,24.005 44.162,24.648 Q43.866,25.291 42.928,25.638 Q42.74,25.707 42.543,25.739 Z M29.531,17.235 Q29.098,16.739 28.358,16.545 Q27.452,16.307 25.92,16.359 Q27.312,17.133 29.531,17.235 Z M38.373,16.359 Q36.84,16.307 35.935,16.545 Q35.195,16.739 34.761,17.235 Q36.981,17.133 38.373,16.359 Z M34.761,21.282 Q35.195,21.778 35.935,21.972 Q36.84,22.211 38.373,22.158 Q36.981,21.385 34.761,21.282 Z M29.531,21.282 Q27.312,21.385 25.92,22.158 Q27.452,22.211 28.358,21.972 Q29.098,21.778 29.531,21.282 Z"/></svg>