<svg xmlns="http://www.w3.org/2000/svg" width="64" height="64" viewBox="0 0 64 64"><defs/><path id="path10" fill="#000000" d="M14.759,31.889 Q15.433,31.204 12.518,24.796 Q11.343,22.212 11.982,21.244 Q12.759,20.066 14.107,20.483 Q15.96,21.056 19.919,20.432 Q21.076,20.25 22.015,20.119 Q23.225,12.714 30.851,6.832 Q32.008,5.94 33.159,6.841 Q39.362,11.695 41.237,19.599 Q43.945,19.483 47.912,19.496 Q49.08,19.5 49.72,19.5 Q50.08,19.501 50.414,19.634 Q52.162,20.329 51.467,22.076 Q50.812,23.724 50.297,27.396 Q49.858,30.532 49.291,32.059 Q55.361,36.215 59.71,46.436 L59.85,46.764 Q59.921,46.932 59.959,47.111 Q60.349,48.951 58.509,49.341 Q46.553,51.874 38.938,48.582 Q37.611,49.112 33.662,56.56 Q32.78,58.221 31.119,57.34 Q30.696,57.116 30.431,56.716 Q29.954,55.994 29.225,54.642 Q27.427,51.307 24.538,49.15 Q16.938,52.327 5.406,49.321 Q5.045,49.226 4.747,49.001 Q3.996,48.434 3.905,47.775 Q3.813,47.117 4.38,46.367 Q5.511,44.87 7.248,41.332 Q10.008,35.711 14.197,32.715 Q14.351,32.303 14.759,31.889 Z M30.63,38.808 Q29.146,38.472 28.073,37.238 Q26.756,35.723 26.682,33.574 Q26.665,33.09 26.714,32.637 Q26.488,32.79 26.19,32.914 Q25.85,33.055 25.482,33.057 Q15.47,33.121 10.625,42.989 Q9.697,44.88 8.901,46.272 Q24.184,49.367 30.393,39.15 Q30.507,38.961 30.63,38.808 Z M38.837,33.036 Q38.727,33.05 38.613,33.055 Q37.908,33.086 37.455,32.827 Q37.476,33.097 37.475,33.377 Q37.444,38.022 33.322,38.788 Q33.479,38.942 33.598,39.134 Q39.566,48.741 55.438,46.095 Q48.872,32.112 38.837,33.036 Z M25.642,22.377 Q25.441,26.189 27.208,30.456 Q27.257,30.575 27.295,30.69 Q27.544,30.216 27.893,29.789 Q29.405,27.939 32.01,27.953 Q34.553,27.966 36.103,29.677 Q36.448,30.058 36.706,30.479 Q36.904,29.714 37.701,29.438 Q37.867,29.037 37.998,28.343 Q38.436,26.013 38.032,22.96 Q37.985,22.601 37.929,22.251 Q37.87,22.031 37.847,21.77 Q36.627,15.012 31.977,10.764 Q26.232,15.703 25.68,21.844 Q25.69,22.133 25.642,22.377 Z M41.863,23.339 Q42.177,26.47 41.695,29.038 Q41.672,29.16 41.648,29.277 Q43.872,29.474 45.927,30.272 Q46.253,29.151 46.572,26.874 Q46.861,24.807 47.213,23.257 Q44.106,23.255 41.863,23.339 Z M35.675,46.767 Q33.648,45.351 32.028,43.388 Q30.268,45.625 28.078,47.185 Q30.349,49.195 31.975,51.877 Q33.967,48.535 35.675,46.767 Z M18.32,30.526 Q20.444,29.737 22.843,29.454 Q21.953,26.612 21.813,23.948 Q21.201,24.038 20.504,24.148 Q18.274,24.499 16.501,24.511 Q18.017,28.103 18.32,30.526 Z M31.91,35.169 Q33.701,35.083 33.713,33.353 Q33.718,32.647 33.314,32.202 Q32.877,31.719 31.99,31.714 Q31.181,31.71 30.806,32.17 Q30.414,32.649 30.441,33.443 Q30.47,34.261 30.912,34.77 Q31.285,35.198 31.91,35.169 Z M38.384,29.3 Q38.196,29.313 38.052,29.346 Q38.19,29.32 38.341,29.305 Q38.362,29.303 38.384,29.3 Z"/></svg>