<svg xmlns="http://www.w3.org/2000/svg" width="64" height="64" viewBox="0 0 64 64"><defs/><path id="path8" fill="#000000" d="M50.487,10.597 Q52.032,25.308 45.021,31.515 Q42.451,33.79 35.212,33.696 Q34.5,33.687 33.914,33.686 L34.085,47.4 Q43.746,36.717 54.678,41.158 Q56.534,41.912 55.78,43.769 Q55.743,43.86 55.697,43.948 Q55.492,44.338 55.083,45.119 Q47.847,58.973 39.038,59.626 Q37.02,59.775 34.55,59.232 Q33.219,58.94 32.31,58.846 Q32.117,58.847 31.942,58.827 Q31.004,58.84 28.466,59.351 Q24.823,60.085 23.29,59.978 Q18.764,59.664 13.556,53.654 Q8.385,47.688 8.076,42.443 Q7.972,40.674 9.715,40.354 Q22.138,38.074 30.065,46.463 L29.908,33.798 Q21.607,33.958 18.481,31.62 Q12.145,26.879 12.877,10.715 Q12.922,9.714 13.445,9.237 Q13.968,8.759 14.969,8.804 Q15.24,8.816 15.497,8.9 Q25.638,12.189 29.661,5.023 Q30.642,3.275 32.389,4.256 Q32.944,4.568 33.218,5.142 Q34.685,8.225 39.972,9.554 Q45.064,10.834 47.311,9.189 Q48.928,8.005 50.111,9.622 Q50.431,10.059 50.487,10.597 Z M46.716,13.787 Q43.534,14.582 38.995,13.441 Q34.046,12.197 31.437,9.504 Q26.337,15.621 16.808,13.422 Q16.676,25.265 20.881,28.41 Q23.227,30.165 31.796,29.719 Q32.953,29.659 35.264,29.689 Q40.954,29.763 42.364,28.515 Q47.211,24.224 46.716,13.787 Z M30.172,53.163 Q23.668,42.845 12.386,44.015 Q13.271,47.207 16.584,51.029 Q20.703,55.781 23.568,55.98 Q24.562,56.049 27.675,55.422 Q29.165,55.122 30.271,54.973 L30.172,53.163 Z M34.292,55.091 Q34.821,55.189 35.41,55.318 Q37.308,55.735 38.742,55.629 Q45.062,55.161 51.033,44.199 Q43.545,42.533 36.492,50.729 Q35.108,52.338 34.194,53.309 L34.292,55.091 Z"/></svg>