<svg xmlns="http://www.w3.org/2000/svg" width="64" height="64" viewBox="0 0 64 64"><defs/><path id="path1028" fill="#000000" d="M20.373,6.345 Q20.472,6.277 20.579,6.221 Q28.722,1.966 40.542,6.036 Q53.083,10.354 57.848,20.757 Q57.907,20.886 57.948,21.023 Q65.215,45.447 44.572,58.202 Q44.317,58.36 44.026,58.437 Q34.607,60.933 25.924,58.225 Q25.814,58.238 25.702,58.252 Q24.325,58.417 23.777,57.527 Q23.07,57.55 22.528,56.955 Q20.139,55.91 17.808,54.458 Q17.441,54.464 17.003,54.346 Q15.483,53.936 14.392,52.088 Q10.686,49.25 7.131,45.343 Q6.895,45.084 6.76,44.76 Q-2.687,22.133 20.373,6.345 Z M39.836,12.3 Q39.154,12.857 38.285,13.542 Q31.062,19.238 31.433,22.327 Q31.534,23.161 31.015,23.821 Q30.055,25.044 28.482,29.309 Q26.827,33.796 25.382,36.179 Q25.5,36.441 25.649,36.751 Q27.604,40.804 25.082,45.204 Q24.866,45.58 24.515,45.835 Q23.256,46.751 24.762,52.398 Q27.757,50.167 31.582,45.921 Q32.032,45.422 32.387,45.031 Q32.071,42.029 36.367,38.473 Q37.702,37.367 38.262,36.741 Q37.284,32.842 39.29,28.122 Q40.286,25.779 40.077,24.863 Q39.826,23.77 40.62,22.977 Q43.497,20.102 39.836,12.3 Z M29.706,53.566 Q40.321,51.66 41.253,47.666 Q41.53,46.476 42.712,46.166 Q45.15,45.526 48.718,38.008 Q48.75,37.941 48.78,37.879 Q48.24,34.862 48.807,30.174 Q49.261,26.421 48.663,25.47 Q48.221,24.768 48.399,23.957 Q49.925,16.997 44.353,12.537 Q47.599,20.713 44.153,25.092 Q44.167,27.009 43.02,29.708 Q41.373,33.583 42.383,36.376 Q42.662,37.146 42.326,37.894 Q41.68,39.336 38.952,41.595 Q36.088,43.965 36.44,44.649 Q37.093,45.917 36.12,46.96 Q35.626,47.488 34.593,48.634 Q32.002,51.511 29.706,53.566 Z M17.467,49.31 Q18.908,50.366 20.371,51.244 Q19.268,45.17 21.73,42.887 Q22.965,40.515 21.999,38.512 Q21.431,37.336 21.183,36.572 Q20.862,35.586 21.474,34.749 Q22.85,32.866 24.679,27.906 Q26.176,23.846 27.368,21.974 Q27.461,17.06 35.306,10.734 Q32.504,11.062 29.223,12.638 Q27.229,13.597 26.009,14.597 L25.428,13.84 Q25.723,14.496 25.538,15.192 Q24.646,18.539 19.855,23.999 Q16.508,27.813 14.964,30.313 Q15.125,31.316 15.947,33.539 Q17.915,38.86 17.151,41.495 Q17.121,41.597 17.081,41.696 Q16.026,44.28 16.981,47.719 Q17.25,48.687 17.467,49.31 Z M29.474,8.108 Q25.633,8.186 22.561,9.759 Q2.512,23.548 10.367,42.876 Q11.416,44.015 12.477,45.052 Q12.398,42.52 13.278,40.289 Q13.608,38.9 12.145,34.945 Q10.836,31.406 10.873,29.775 Q10.884,29.259 11.141,28.812 Q12.839,25.849 16.809,21.325 Q20.662,16.934 21.504,14.526 Q21.456,11.873 27.468,8.985 Q28.485,8.496 29.474,8.108 Z M37.989,55.426 Q40.32,55.202 42.698,54.595 Q60.342,43.513 54.104,22.317 Q53.513,21.048 52.779,19.885 Q52.909,21.908 52.498,24.132 Q53.352,26.356 52.831,30.66 Q52.281,35.211 52.873,37.659 Q53.043,38.362 52.729,39.013 Q52.618,39.245 52.38,39.747 Q48.576,47.759 44.86,49.654 Q43.406,53.21 37.989,55.426 Z"/></svg>