<svg xmlns="http://www.w3.org/2000/svg" width="64" height="64" viewBox="0 0 64 64" version="1.1">
	<path d="M 22.305 5.405 C 17.812 7.447, 10.321 14.596, 7.335 19.692 C 4.288 24.891, 3.275 33.618, 4.978 40 C 6.446 45.500, 14.802 54.098, 21.818 57.328 C 28.483 60.396, 41.034 60.383, 46 57.303 C 51.118 54.129, 55.607 49.119, 57.921 44 C 61.785 35.455, 59.980 22.033, 53.993 14.795 C 47.393 6.815, 30.327 1.758, 22.305 5.405 M 17.712 13.980 C 10.862 20.240, 7.523 27.335, 8.311 33.953 C 9.012 39.841, 10.729 44.286, 11.998 43.501 C 13.333 42.676, 13.263 39.013, 11.808 33.571 C 10.617 29.117, 10.619 29.109, 15.156 23.307 C 17.653 20.113, 20.267 16.375, 20.965 15 C 21.663 13.625, 23.194 11.723, 24.367 10.772 C 26.137 9.338, 26.216 9.041, 24.831 9.022 C 23.912 9.010, 20.709 11.241, 17.712 13.980 M 29.788 12.643 C 27.747 13.490, 25.814 15.010, 25.494 16.020 C 25.173 17.030, 22.663 20.669, 19.916 24.105 C 16.556 28.308, 15.150 30.868, 15.621 31.927 C 16.005 32.792, 16.522 36.875, 16.768 41 C 17.313 50.120, 19.073 53.273, 20.341 47.402 C 20.804 45.256, 21.313 41.475, 21.471 39 C 21.842 33.188, 28.254 17.388, 31.702 13.789 C 34.767 10.590, 34.755 10.582, 29.788 12.643 M 35.196 16.298 C 33.438 18.111, 32 20.094, 32 20.704 C 32 21.314, 30.620 24.889, 28.934 28.647 C 26.781 33.447, 26.034 36.377, 26.427 38.491 C 26.756 40.262, 26.371 42.678, 25.493 44.364 C 23.897 47.427, 23.571 50.238, 24.684 51.351 C 25.552 52.219, 32 46.039, 32 44.339 C 32 43.641, 33.350 41.532, 35 39.653 C 36.650 37.774, 38 35.183, 38 33.896 C 38 32.609, 38.929 28.612, 40.065 25.014 C 41.679 19.899, 41.903 17.874, 41.090 15.736 C 39.756 12.228, 39.078 12.293, 35.196 16.298 M 45.750 17.749 C 46.002 19.464, 45.237 23.516, 44.009 26.975 C 42.804 30.367, 42.075 34.161, 42.387 35.406 C 42.803 37.065, 42.160 38.430, 39.978 40.522 C 38.340 42.090, 37 43.949, 37 44.652 C 37 45.355, 35.603 47.521, 33.896 49.465 C 30.659 53.153, 31.028 53.700, 35.585 51.968 C 38.644 50.805, 45.057 44.697, 46.923 41.171 C 49.336 36.609, 49.066 19.840, 46.523 16.363 C 45.483 14.940, 45.368 15.146, 45.750 17.749 M 53.060 30 C 52.983 40.844, 51.869 43.526, 44.442 50.750 C 39.710 55.353, 39.627 55.761, 43.875 53.565 C 48.271 51.291, 53.788 44.502, 55.053 39.807 C 56.241 35.401, 55.755 27.060, 54.066 22.843 C 53.377 21.124, 53.109 23.029, 53.060 30" stroke="none" fill="#000000" fill-rule="evenodd"/>
</svg>