<svg xmlns="http://www.w3.org/2000/svg" width="64" height="64" viewBox="0 0 64 64"><defs/><path id="path1028" fill="#000000" d="M21.826,9.552 Q21.913,9.492 22.007,9.443 Q29.132,5.72 39.474,9.281 Q50.448,13.06 54.617,22.162 Q54.669,22.275 54.705,22.395 Q61.063,43.766 43,54.927 Q42.777,55.065 42.523,55.132 Q34.281,57.316 26.684,54.947 Q26.587,54.958 26.489,54.97 Q25.284,55.115 24.805,54.336 Q24.186,54.356 23.712,53.836 Q21.622,52.921 19.582,51.651 Q19.261,51.656 18.878,51.553 Q17.548,51.194 16.593,49.577 Q13.35,47.094 10.24,43.675 Q10.033,43.449 9.915,43.165 Q1.649,23.366 21.826,9.552 Z M38.856,14.762 Q38.26,15.25 37.499,15.849 Q31.179,20.833 31.504,23.536 Q31.592,24.266 31.138,24.843 Q30.298,25.913 28.922,29.645 Q27.474,33.572 26.209,35.657 Q26.312,35.886 26.443,36.157 Q28.153,39.703 25.947,43.553 Q25.758,43.882 25.451,44.106 Q24.349,44.907 25.667,49.848 Q28.287,47.896 31.634,44.181 Q32.028,43.744 32.339,43.402 Q32.062,40.775 35.821,37.664 Q36.989,36.696 37.479,36.148 Q36.624,32.737 38.379,28.607 Q39.25,26.557 39.067,25.755 Q38.848,24.799 39.542,24.105 Q42.06,21.589 38.856,14.762 Z M29.993,50.87 Q39.281,49.202 40.096,45.708 Q40.339,44.667 41.373,44.395 Q43.506,43.835 46.628,37.257 Q46.656,37.198 46.682,37.144 Q46.21,34.504 46.706,30.402 Q47.103,27.118 46.58,26.286 Q46.193,25.672 46.349,24.962 Q47.684,18.872 42.809,14.97 Q45.649,22.124 42.634,25.955 Q42.646,27.633 41.643,29.994 Q40.201,33.385 41.085,35.829 Q41.329,36.503 41.035,37.157 Q40.47,38.419 38.083,40.396 Q35.577,42.469 35.885,43.068 Q36.456,44.177 35.605,45.09 Q35.173,45.552 34.269,46.555 Q32.002,49.072 29.993,50.87 Z M19.284,47.146 Q20.545,48.07 21.825,48.839 Q20.859,43.524 23.014,41.526 Q24.094,39.451 23.249,37.698 Q22.752,36.669 22.535,36 Q22.254,35.138 22.79,34.405 Q23.994,32.758 25.594,28.418 Q26.904,24.865 27.947,23.227 Q28.028,18.927 34.893,13.392 Q32.441,13.679 29.57,15.058 Q27.825,15.897 26.758,16.772 L26.25,16.11 Q26.508,16.684 26.346,17.293 Q25.565,20.222 21.373,24.999 Q18.444,28.336 17.094,30.524 Q17.234,31.402 17.954,33.347 Q19.676,38.003 19.007,40.308 Q18.981,40.397 18.946,40.484 Q18.023,42.745 18.858,45.754 Q19.094,46.601 19.284,47.146 Z M29.79,11.094 Q26.429,11.163 23.741,12.539 Q6.198,24.604 13.071,41.516 Q13.989,42.513 14.917,43.42 Q14.848,41.205 15.618,39.253 Q15.907,38.038 14.627,34.577 Q13.482,31.48 13.514,30.053 Q13.523,29.602 13.748,29.211 Q15.234,26.618 18.708,22.659 Q22.079,18.817 22.816,16.71 Q22.774,14.389 28.035,11.862 Q28.924,11.434 29.79,11.094 Z M37.24,52.498 Q39.28,52.302 41.361,51.771 Q56.799,42.074 51.341,23.527 Q50.824,22.417 50.182,21.399 Q50.295,23.17 49.936,25.115 Q50.683,27.062 50.227,30.827 Q49.746,34.81 50.264,36.952 Q50.413,37.567 50.138,38.136 Q50.041,38.339 49.833,38.779 Q46.504,45.789 43.253,47.447 Q41.98,50.559 37.24,52.498 Z"/></svg>