<svg xmlns="http://www.w3.org/2000/svg" width="64" height="64" viewBox="0 0 64 64"><defs/><path id="path3" fill="#000000" d="M32.138,53.772 Q30.686,52.056 30.647,50.075 Q30.641,49.77 30.64,49.383 Q30.263,49.267 29.564,49.076 Q29.023,48.928 28.788,48.859 Q27.886,48.595 25.718,47.864 Q23.201,47.016 22.269,46.765 Q22.15,46.732 21.93,46.696 Q20.408,48.296 18.301,48.323 Q16.324,48.349 16.298,46.372 Q16.286,45.383 16.773,44.883 Q17.063,44.586 17.529,44.46 Q17.261,44.323 16.943,44.162 Q16.042,43.705 15.696,43.518 Q15.439,43.379 14.716,43.002 Q11.978,41.575 11.192,41.011 Q10.819,40.744 10.343,40.247 Q10.07,39.963 9.958,39.903 Q9.865,39.853 9.43,39.752 Q8.733,39.591 8.316,39.424 Q4.983,38.088 4.187,34.707 Q4.006,33.939 4.001,32.829 L4,32.778 Q3.994,31.608 4.178,30.76 Q5.04,26.793 8.694,23.212 Q11.612,20.353 14.278,19.637 Q15.504,19.307 16.155,19.977 Q16.412,18.85 17,17.747 Q20.488,11.201 27.977,9.049 Q29.217,8.692 30.393,8.707 Q31.46,8.721 32.45,9.064 Q34.721,9.85 36.382,11.356 Q36.747,11.686 37.296,12.384 Q37.76,12.974 37.982,13.151 Q38.164,13.296 38.541,13.435 Q39.65,13.844 40.465,14.54 Q40.731,14.767 41.291,15.168 Q41.37,15.225 41.446,15.281 Q42.394,14.516 43.445,14.147 Q45.31,13.491 45.966,15.357 Q46.294,16.289 45.991,16.92 Q45.689,17.55 44.756,17.878 Q44.428,17.993 44.095,18.232 Q44.819,18.673 45.26,19.094 Q46.291,20.077 46.976,20.837 Q47.127,21.005 47.414,21.325 Q48.432,22.462 48.988,23.023 Q49.662,23.702 50.856,25.086 Q51.001,25.255 51.106,25.377 Q51.823,26.206 53.302,28.08 Q53.757,28.657 53.968,28.922 Q54.328,29.373 54.953,30.205 Q55.626,31.101 56.01,31.576 Q57.551,33.481 58.36,34.929 Q59.242,36.506 59.727,38.5 Q59.741,38.555 59.767,38.659 Q59.981,39.519 59.998,40.143 Q60.023,41.025 59.656,42.206 L59.652,42.219 Q59.625,42.303 59.569,42.493 Q59.16,43.865 58.712,44.554 Q57.615,46.241 55.693,46.963 Q55.705,46.978 55.714,46.99 Q58.966,51.243 55.348,54.129 Q54.45,54.845 53.152,55.144 Q52.485,55.298 51.506,55.293 L51.277,55.292 L51.113,55.293 Q49.953,55.296 49.075,55.136 Q46.009,54.577 40.269,52.502 Q38.565,51.887 37.718,51.595 Q37.402,51.486 36.597,51.225 Q35.47,50.859 35.027,50.699 Q34.977,50.681 34.869,50.644 Q34.808,50.623 34.75,50.602 Q34.889,50.902 35.157,51.218 Q36.434,52.728 34.924,54.005 Q34.17,54.643 33.473,54.585 Q32.776,54.527 32.138,53.772 Z M50.247,35.567 L53.811,35.192 Q53.418,34.659 52.935,34.062 Q52.507,33.533 51.792,32.581 Q51.201,31.794 50.876,31.387 Q50.656,31.11 50.198,30.53 Q48.774,28.726 48.115,27.963 Q48.04,27.876 47.86,27.668 Q47.176,26.874 46.693,26.348 Q46.688,26.42 46.679,26.493 Q46.302,29.669 42.052,29.672 Q40.075,29.674 40.074,27.696 Q40.072,25.719 42.049,25.718 Q42.539,25.717 42.811,25.677 Q43.15,24.176 44.752,24.279 Q44.612,24.124 44.467,23.962 Q44.177,23.638 44.039,23.485 Q43.454,22.837 42.531,21.956 Q42.401,21.832 42.069,21.628 Q41.263,22.111 40.325,22.267 Q38.375,22.591 38.051,20.641 Q38.046,20.609 38.041,20.58 Q37.614,21.823 37.149,22.58 Q36.81,23.133 36.111,23.987 L36.079,24.027 Q33.77,26.853 30.116,28.405 Q28.375,29.145 26.526,29.395 Q28.228,31.025 31.413,33.622 Q31.838,33.969 32.688,34.684 Q34.514,36.221 35.415,36.867 Q41.555,41.271 47.855,42.831 Q48.15,42.904 48.417,42.963 Q48.4,42.936 48.383,42.91 Q47.311,41.249 48.972,40.176 Q49.802,39.64 50.486,39.787 Q51.169,39.934 51.705,40.765 Q52.473,41.954 52.722,43.54 Q54.711,43.453 55.396,42.4 Q55.534,42.188 55.78,41.363 Q55.842,41.152 55.875,41.046 L55.879,41.033 Q56.052,40.479 56.045,40.253 Q56.04,40.058 55.929,39.614 Q55.9,39.497 55.885,39.435 Q55.795,39.063 55.687,38.714 Q55.261,39.015 54.555,39.09 L50.661,39.499 Q49.678,39.603 49.135,39.163 Q48.591,38.723 48.488,37.74 Q48.281,35.774 50.247,35.567 Z M25.945,42.629 Q25.966,42.456 25.901,41.688 Q25.568,37.746 27.83,36.592 Q28.178,36.414 28.491,36.341 Q22.738,31.613 21.393,29.491 Q21.145,29.38 20.888,29.233 Q20.835,29.203 20.828,29.199 Q19.217,28.338 18.118,27.255 Q16.49,25.65 16.072,23.134 Q15.756,23.334 15.304,23.456 Q13.639,23.903 11.462,26.036 Q8.653,28.789 8.043,31.599 Q7.951,32.022 7.955,32.757 L7.955,32.809 Q7.958,33.47 8.036,33.801 Q8.361,35.182 9.788,35.754 Q9.92,35.807 10.319,35.899 Q10.59,35.962 10.829,36.031 Q11.254,35.749 11.698,35.541 Q12.583,35.127 13.038,34.807 Q13.913,34.19 14.605,33.484 Q15.339,32.735 17.069,30.438 Q17.548,29.802 17.741,29.554 Q18.956,27.995 20.516,29.21 Q21.295,29.818 21.381,30.512 Q21.467,31.205 20.86,31.985 Q20.687,32.206 20.228,32.816 Q18.343,35.319 17.429,36.251 Q16.485,37.215 15.315,38.039 Q15.011,38.253 14.63,38.474 Q15.373,38.886 16.544,39.496 Q17.291,39.886 17.575,40.039 Q17.878,40.202 18.73,40.634 Q20.407,41.484 20.957,41.825 Q21.22,41.988 21.644,42.317 Q22.046,42.629 22.218,42.713 Q22.289,42.748 22.516,42.784 Q22.971,42.858 23.3,42.947 Q24.154,43.178 26.058,43.809 Q25.862,43.329 25.945,42.629 Z M34.745,15.495 Q34.479,15.199 34.188,14.829 Q33.845,14.393 33.727,14.286 Q32.663,13.322 31.156,12.8 Q30.77,12.667 30.343,12.661 Q29.75,12.654 29.07,12.849 Q23.19,14.539 20.49,19.606 Q19.766,20.966 19.946,22.307 Q20.132,23.688 20.894,24.438 Q21.586,25.12 22.692,25.711 Q22.749,25.742 22.85,25.799 L22.986,25.896 Q23.316,25.93 23.702,25.833 Q24.601,25.605 25.49,25.531 Q27.081,25.398 28.57,24.766 Q31.326,23.596 33.017,21.525 L33.049,21.485 Q33.579,20.837 33.779,20.512 Q34.076,20.027 34.429,18.908 Q34.469,18.782 34.497,18.694 Q34.745,17.912 34.745,16.422 L34.745,15.495 Z M36.31,44.194 Q36.84,45.555 36.664,47.082 Q37.075,47.222 37.818,47.464 Q38.655,47.736 39.005,47.856 Q39.882,48.158 41.612,48.783 Q41.751,48.833 41.892,48.884 Q41.525,48.002 41.509,46.994 Q41.487,45.664 42.374,45.214 Q37.678,43.356 33.11,40.08 Q32.256,39.467 30.764,38.23 Q30.838,38.646 30.723,39 Q30.53,39.595 29.806,40.017 Q29.757,40.355 29.841,41.355 Q29.94,42.523 29.872,43.095 Q29.719,44.385 28.819,44.727 Q29.504,44.948 29.898,45.064 Q30.103,45.123 30.607,45.261 Q31.789,45.584 32.265,45.755 Q32.496,45.839 32.715,45.94 Q32.683,45.778 32.625,45.629 Q32.266,44.708 32.547,44.068 Q32.829,43.428 33.75,43.069 Q35.592,42.352 36.31,44.194 Z M41.616,37.634 L42.312,36.872 L42.752,33.199 Q42.87,32.217 43.419,31.785 Q43.969,31.353 44.95,31.471 Q46.914,31.706 46.678,33.669 L46.163,37.972 Q46.088,38.602 45.66,39.071 L44.535,40.301 Q43.202,41.761 41.742,40.428 Q40.282,39.094 41.616,37.634 Z M35.159,34.181 Q35.125,33.676 34.741,32.608 Q33.765,29.898 34.437,27.888 Q35.064,26.013 36.939,26.64 Q38.814,27.267 38.187,29.142 Q37.95,29.85 38.461,31.269 Q39.033,32.858 39.105,33.916 Q39.171,34.903 38.711,35.429 Q38.251,35.955 37.264,36.021 Q35.292,36.154 35.159,34.181 Z M19.306,38.012 Q20.157,37.121 19.661,36.307 Q18.633,34.619 20.321,33.59 Q22.01,32.561 23.038,34.25 Q25.114,37.658 22.164,40.744 Q20.798,42.173 19.369,40.807 Q17.939,39.441 19.306,38.012 Z M45.381,46.255 Q45.456,46.556 45.462,46.929 Q45.472,47.534 46.157,48.083 Q47.509,49.167 46.726,50.486 Q48.535,51.018 49.784,51.246 Q50.304,51.341 51.101,51.338 L51.271,51.338 L51.526,51.339 Q52.046,51.341 52.265,51.291 Q52.687,51.193 52.882,51.038 Q53.472,50.568 52.573,49.392 Q51.789,48.367 52.185,47.5 Q51.622,47.486 50.871,47.345 Q50.654,47.304 50.543,47.286 Q50,47.196 49.211,47.108 Q48.238,47 46.905,46.67 Q46.141,46.481 45.381,46.255 Z M38.514,18.855 Q38.767,18.632 39.147,18.499 Q39.07,18.442 38.988,18.383 Q38.792,18.242 38.617,18.112 Q38.576,18.502 38.514,18.855 Z"/></svg>