<?xml version="1.0" encoding="UTF-8" standalone="no"?>
<!-- Created with Inkscape (http://www.inkscape.org/) -->

<svg width="297mm" height="210mm" viewBox="0 0 297 210" version="1.1" id="svg1" xml:space="preserve" inkscape:version="1.4.2 (ebf0e940, 2025-05-08)" sodipodi:docname="icons.svg" xmlns:inkscape="http://www.inkscape.org/namespaces/inkscape" xmlns:sodipodi="http://sodipodi.sourceforge.net/DTD/sodipodi-0.dtd" xmlns="http://www.w3.org/2000/svg" xmlns:svg="http://www.w3.org/2000/svg"><sodipodi:namedview id="namedview1" pagecolor="#ffffff" bordercolor="#000000" borderopacity="0.25" inkscape:showpageshadow="2" inkscape:pageopacity="0.0" inkscape:pagecheckerboard="0" inkscape:deskcolor="#d1d1d1" inkscape:document-units="mm" inkscape:zoom="0.45590514" inkscape:cx="213.86028" inkscape:cy="224.82747" inkscape:current-layer="layer1" showgrid="true"><inkscape:grid id="grid1019" units="mm" originx="0" originy="0" spacingx="1" spacingy="1" empcolor="#0099e5" empopacity="0.30196078" color="#0099e5" opacity="0.14901961" empspacing="5" enabled="true" visible="true" snapvisiblegridlinesonly="true" /></sodipodi:namedview><defs id="defs1" /><g inkscape:label="Layer 1" inkscape:groupmode="layer" id="layer1" style="display:inline"><path id="path942-3-2" style="fill:none;stroke:#000000;stroke-width:1;stroke-linecap:round;stroke-linejoin:round;stroke-dasharray:none;stroke-opacity:1" d="M 274.38659,21.828623 C 273.21145,21.644713 271.8667,21.540609 271.8667,22.949129 273.55412,22.949129 273.92286,23.082939 274.38659,21.828623 Z M 269.34681,21.828623 C 270.52197,21.644713 271.8667,21.540609 271.8667,22.949129 270.1793,22.949129 269.81055,23.082939 269.34681,21.828623 Z M 274.38659,24.077904 C 273.21145,24.261814 271.8667,24.365918 271.8667,22.957398 273.55412,22.957398 273.92286,22.823588 274.38659,24.077904 Z M 269.34681,24.077904 C 270.52197,24.261814 271.8667,24.365918 271.8667,22.957398 270.1793,22.957398 269.81055,22.823588 269.34681,24.077904 Z M 274.07521,22.477022 C 278.45106,22.253137 278.36882,28.784123 274.99999,30.000001 274.01023,30.357229 271.8765,30.783392 269.75393,30.398936 265.29235,29.590853 264.8241,22.957398 269.60452,22.393764" inkscape:label="tomato" inkscape:export-filename="icons/tomato.svg" inkscape:export-xdpi="96" inkscape:export-ydpi="96" /><path id="path941" style="fill:none;stroke:#000000;stroke-width:1;stroke-linecap:round;stroke-linejoin:round;stroke-dasharray:none;stroke-opacity:1" d="M 129.73415,90.485262 C 130.79355,92.058072 131.07649,92.906712 129.17583,93.992712 128.78673,92.375002 127.97741,90.999192 129.73415,90.485262 Z M 133.22012,94.400692 C 131.97225,95.158062 130.79355,94.392422 129.17583,93.992712 130.79355,93.183852 132.41125,92.375002 133.22012,94.400692 Z M 125.94041,92.005962 C 124.9816,92.013252 123.47022,92.156092 122.31847,94.257522 121.16673,96.358942 120.92816,100.96274 121.89613,101.59756 122.8641,102.2324 125.07753,101.83092 127.55813,101.27242 130.81243,100.5397 132.90122,98.036992 129.17583,93.992712 128.41955,93.171702 127.55813,91.993662 125.94041,92.005962 Z M 128.95287,98.708952 129.39879,98.273902 M 127.10464,99.071322 127.49887,98.620382 M 124.61143,94.239652 125.09925,93.745772 M 123.83488,96.419282 124.3227,95.925392 M 126.30334,95.610422 126.74927,95.175392 M 127.97276,97.001972 128.36698,96.551042 M 124.88763,98.283932 125.37547,97.790072 M 122.57024,98.845852 123.2513,98.330492 M 124.56591,100.63005 125.01078,100.29707" inkscape:label="strowberry" inkscape:export-filename="icons/strowberry.svg" inkscape:export-xdpi="96" inkscape:export-ydpi="96" /><path id="path940" style="fill:none;stroke:#000000;stroke-width:1;stroke-linecap:round;stroke-linejoin:round;stroke-dasharray:none;stroke-opacity:1" d="M 27.317083,28.659331 C 27.600647,26.59739 27.470734,24.149248 29.282183,22.764029 30.566868,21.781616 31.247283,20.798928 34.194934,20.798928 35.739582,26.074397 29.282183,28.659331 27.317083,28.659331 26.446976,30.533447 27.866289,33.89813 27.317083,35.537181 M 27.099292,29.370913 C 23.16909,31.533524 18.884385,26.929826 19.456682,22.764029 22.942022,22.905024 26.116741,24.458162 27.099292,29.370913" inkscape:export-filename="icons/sprout.svg" inkscape:export-xdpi="96" inkscape:export-ydpi="96" inkscape:label="sprout" /><path id="path856" style="fill:none;stroke:#000000;stroke-width:1;stroke-linecap:round;stroke-linejoin:round;stroke-dasharray:none;stroke-opacity:1" d="M 190.1638,54.05753 C 190.2115,54.318489 189.10744,54.739826 189.26025,54.88823 190.13406,55.736791 190.84782,57.33252 189.26025,57.940746 L 188.55924,56.538721 186.95015,56.928737 187.15721,55.837709 186.08178,55.425906 C 186.79947,54.056311 187.96936,53.863897 189.26025,54.88823 M 186.4562,55.348192 C 184.7014,60.266144 178.91292,60.646878 177.56936,62.847832 180.46047,63.640817 187.22123,59.294499 189.0825,57.585249" inkscape:label="chili-pepper" inkscape:export-filename="icons/chili-pepper.svg" inkscape:export-xdpi="96" inkscape:export-ydpi="96" /><path id="path853" style="fill:none;stroke:#000000;stroke-width:1;stroke-linecap:round;stroke-linejoin:round;stroke-dasharray:none;stroke-opacity:1" d="M 273.15975,55.689461 C 274.72211,60.26344 272.94459,64.809246 266.15998,62.699578 264.15662,62.076636 263.6485,60.582407 263.67347,58.770995 263.69989,56.853945 265.13826,56.02796 266.19629,54.991976 267.43848,53.775684 267.94412,52.394077 269.68724,52.774927 271.81686,52.504718 272.53038,53.846953 273.15975,55.689461 Z M 270.41172,55.694547 H 270.75414 M 270.86052,60.109043 H 271.20294 M 269.91115,58.250151 H 270.25357 M 266.6451,57.064224 H 266.98751 M 265.96026,60.488417 H 266.30268" inkscape:label="potato" inkscape:export-filename="icons/potato.svg" inkscape:export-xdpi="96" inkscape:export-ydpi="96" /><path id="path850" style="fill:none;stroke:#000000;stroke-width:1;stroke-linecap:round;stroke-linejoin:round;stroke-dasharray:none;stroke-opacity:1" d="M 133.90259,54.391816 C 135.27471,61.09564 126.07905,66.760559 123.27617,66.760559 121.83893,66.760559 119.25486,66.347971 118.98815,64.891959 118.73087,63.487613 121.08562,61.919748 122.08924,61.154763 125.24023,58.753072 127.26012,58.165116 129.43423,54.949967 129.81448,54.387613 131.17413,53.306591 132.06663,53.003093 132.54146,51.213088 133.30703,51.979417 133.06835,53.1489 133.54567,53.314496 133.73529,53.574455 133.90259,54.391816 Z M 129.4781,58.603247 C 128.5281,58.378117 128.70058,56.734647 130.0888,56.495186 131.37946,56.286911 132.03371,58.882807 129.4781,58.603247 Z M 126.40266,61.394222 C 125.45268,61.169095 125.62514,59.525624 127.01337,59.286163 128.30404,59.07789 128.95829,61.673784 126.40266,61.394222 Z M 123.27617,63.58635 C 122.32618,63.361222 122.49866,61.717752 123.88688,61.478291 125.17756,61.270017 125.83179,63.865912 123.27617,63.58635 Z" inkscape:label="peapod" inkscape:export-filename="icons/peapod.svg" inkscape:export-xdpi="96" inkscape:export-ydpi="96" /><path id="path761" style="fill:none;stroke:#000000;stroke-width:1;stroke-linecap:round;stroke-linejoin:round;stroke-dasharray:none;stroke-opacity:1" d="M 240.44948,30.648116 C 237.587,28.531677 237.29714,26.489957 239.58498,24.628192 240.28095,24.061841 240.56402,22.766786 240.42001,21.758774 H 242.10329 C 242.27638,21.956865 242.86011,21.474128 243.04687,21.758774 243.42182,22.330291 243.44428,23.753048 244.06454,24.294622 246.05295,26.030778 248.77478,27.49761 244.99999,30.000001 242.99337,31.330234 240.85983,30.379309 238.61783,30.694013 235.01539,29.976658 234.44685,26.780256 236.27884,25.586463 236.99047,25.122751 239.18497,23.532491 239.49131,21.758774 239.52914,21.539795 240.35753,21.989935 240.42001,21.758774 M 242.10329,21.758774 C 242.2487,22.420491 241.89236,23.890924 242.69083,24.628192 244.52282,26.319757 244.65274,29.293349 241.90475,30.728058" inkscape:label="onion" inkscape:export-filename="icons/onion.svg" inkscape:export-xdpi="96" inkscape:export-ydpi="96" /><path id="path756" style="fill:none;stroke:#000000;stroke-width:1;stroke-linecap:round;stroke-linejoin:round;stroke-dasharray:none;stroke-opacity:1" d="M 99.361265,61.625675 C 99.361265,64.164065 93.266367,64.891947 92.20234,64.699968 90.863264,64.458341 87.551565,64.76206 86.494032,62.569898 85.551568,60.616246 88.016917,55.356401 91.807494,55.016122 96.001288,54.639661 99.361265,55.960345 99.361265,61.625675 Z M 89.919045,64.458341 C 89.919045,67.941557 95.584382,67.635119 95.632042,64.315367" inkscape:label="mushroom" inkscape:export-filename="icons/mushroom.svg" inkscape:export-xdpi="96" inkscape:export-ydpi="96" /><path id="path658" style="fill:none;stroke:#000000;stroke-width:1;stroke-linecap:round;stroke-linejoin:round;stroke-dasharray:none;stroke-opacity:1" d="M 62.379834,64.190748 C 60.010626,66.581346 53.850747,65.61145 53.651546,61.690749 53.347068,55.698164 59.889512,59.188684 63.626742,52.940745 65.141314,58.67412 63.622671,62.936688 62.379834,64.190748 Z M 54.898432,64.190748 C 56.582097,64.486728 60.441062,62.491495 61.132949,59.190748 M 53.651546,67.940746 C 53.373081,66.41224 53.426031,65.77828 54.898432,64.190748" inkscape:label="leaf" inkscape:export-filename="icons/leaf.svg" inkscape:export-xdpi="96" inkscape:export-ydpi="96" /><path id="path12" style="display:inline;fill:none;stroke:#000000;stroke-width:1;stroke-linecap:round;stroke-linejoin:round;stroke-opacity:1" d="M 128.44506,126.73974 C 128.44506,126.73974 131.63426,124.77314 133.42046,126.55833 135.50513,128.64183 133.21714,131.36119 133.21714,131.36119 133.21714,131.36119 135.33766,135.05847 133.37895,136.68587 131.37856,138.34792 128.56723,136.1356 128.56723,136.1356 128.56723,136.1356 125.1102,138.22362 123.524,136.3746 121.90936,134.49243 123.9185,131.42579 123.9185,131.42579 123.9185,131.42579 121.32235,129.25542 123.26722,126.87065 125.2121,124.48587 128.44506,126.73974 128.44506,126.73974 Z M 127.74185,130.08278 C 129.41359,129.2058 130.75931,131.66074 128.97993,132.6965 127.43766,133.59425 126.15442,130.91553 127.74185,130.08278" inkscape:label="flower" inkscape:export-filename="icons/flower.svg" inkscape:export-xdpi="96" inkscape:export-ydpi="96" /><path id="path10" style="display:inline;fill:none;stroke:#000000;stroke-width:0.999998;stroke-linecap:round;stroke-linejoin:round;stroke-opacity:1" d="M 161.82993,136.69463 C 161.33069,136.68482 160.31311,138.35801 159.92395,139.09185 159.47183,138.40851 159.38282,137.78585 158.18813,136.91794 M 155.69687,133.11872 C 156.27042,132.5365 154.95404,130.31314 155.01977,130.21353 155.85689,130.47233 156.42164,130.23206 157.74185,130.08278 M 152.98067,136.91794 C 156.02154,137.71083 158.5158,137.27493 159.92395,134.95765 161.1001,136.85089 163.414,137.64962 166.86724,136.91794 165.94764,134.75833 164.92646,132.24945 161.65978,132.57838 162.22662,132.55336 162.64064,128.6293 159.92395,126.503 157.61944,128.2803 157.29094,130.41183 158.18813,132.57838 154.21016,132.60389 154.28195,135.19602 152.98067,136.91794 Z M 164.0164,132.72441 C 164.32737,132.05844 164.25341,130.93218 164.63419,129.97465 163.60701,129.97391 162.92416,129.95802 161.97545,130.02393 M 159.92395,134.13916 C 158.77283,134.19407 158.63762,132.21488 159.92395,132.22153 161.21019,132.22818 161.18533,134.07901 159.92395,134.13916 Z" sodipodi:nodetypes="ccccccccccccccccsss" inkscape:label="trillium" inkscape:export-filename="icons/trillium.svg" inkscape:export-xdpi="96" inkscape:export-ydpi="96" /><path id="path9" style="display:inline;fill:none;stroke:#000000;stroke-width:1;stroke-linecap:round;stroke-linejoin:round;stroke-opacity:1" d="M 191.37243,126.45219 C 193.10797,128.32238 190.71066,129.73145 190.71066,129.73145 190.71066,129.73145 193.04744,131.7649 191.37243,133.71338 189.69743,135.66186 187.74184,133.2134 187.74184,133.2134 187.74184,133.2134 186.00123,135.43107 184.11124,133.71338 182.22125,131.99571 184.63258,130.08278 184.63258,130.08278 184.63258,130.08278 182.35976,128.4965 183.90733,126.68886 185.4549,124.88123 187.74184,127.05363 187.74184,127.05363 187.74184,127.05363 189.6369,124.582 191.37243,126.45219 Z M 187.74184,130.08278 V 130.08278 M 187.57376,134.07139 C 187.57376,135.78438 187.33152,136.36948 187.74184,137.34398 189.00693,136.34523 190.77618,134.79062 193.12386,135.77912 192.72119,137.30927 191.33055,139.20884 189.28148,139.55034 188.50341,139.68003 188.31631,139.19457 187.57376,139.19457 186.76738,139.19457 186.66634,139.68079 185.86603,139.6215 183.82601,139.47038 182.62712,137.69012 182.02365,135.77912 184.7449,134.63333 186.92312,136.51999 187.57376,138.76763" inkscape:label="daffodil" inkscape:export-filename="icons/daffodil.svg" inkscape:export-xdpi="96" inkscape:export-ydpi="96" /><path style="display:inline;fill:none;stroke:#000000;stroke-width:1;stroke-opacity:1" d="M 244.0214,91.774692 C 244.22249,91.737602 244.42875,91.771162 244.60479,91.855712 244.69027,91.896782 244.75964,91.953612 244.82703,92.014292 244.88805,92.069242 244.91899,92.114692 244.99372,92.137882 245.07395,92.162812 245.16179,92.117522 245.24372,92.085022 245.51073,91.979132 245.76116,91.932562 246.04936,91.993712 246.33887,92.055152 246.62488,92.247442 246.77885,92.512792 246.8558,92.645412 246.8256,92.752132 246.9427,92.821472 247.02509,92.870242 247.16685,92.841702 247.29947,92.846682 247.71495,92.862212 248.15085,93.090252 248.31538,93.485102 248.39544,93.677252 248.43647,93.875142 248.40644,94.096272 248.38472,94.256162 248.31646,94.407982 248.24438,94.540762 248.19672,94.628572 248.16306,94.680192 248.18046,94.790772 248.20592,94.952502 248.31931,95.089352 248.34792,95.263042 248.36528,95.368442 248.3528,95.519952 248.3847,95.624182 248.41871,95.735282 248.47959,95.773512 248.57736,95.857872 248.8316,96.077262 249.05787,96.386962 249.1556,96.707612 249.2561,97.037352 249.31287,97.449922 249.22389,97.791052 249.16371,98.021842 248.98583,98.285062 249.00564,98.513332 249.01414,98.611282 249.07479,98.669812 249.12989,98.735582 249.2092,98.830282 249.31046,98.959452 249.37668,99.068932 249.66292,99.542102 249.71708,100.13104 249.55777,100.65241 249.42303,101.09341 249.14341,101.49317 248.74404,101.75372 248.6463,101.81749 248.54469,101.87258 248.43846,101.91873 248.34004,101.96149 248.23698,102.00217 248.13288,102.031 248.05033,102.05387 247.96249,102.05578 247.89559,102.11744 247.78255,102.22163 247.77049,102.44607 247.70898,102.59704 247.62011,102.81517 247.42992,103.03993 247.24391,103.20434 247.07869,103.35037 246.86376,103.4583 246.66052,103.53256 246.53306,103.57913 246.33239,103.61 246.21604,103.62118 246.1105,103.63131 246.03101,103.62902 245.88449,103.60226 245.79554,103.58603 245.699,103.3977 245.60436,103.33617 245.41476,103.21287 245.10817,102.97948 244.94201,102.79149 244.34935,102.12096 244.2142,101.23594 244.21586,100.37461 244.21612,100.23976 244.23229,100.0586 244.25097,99.930132 244.26191,99.854922 244.26928,99.758992 244.32223,99.689622 244.40593,99.579952 244.53715,99.629522 244.68812,99.585182 245.0294,99.484982 245.38209,99.251312 245.57285,98.930042 245.70967,98.699612 245.74639,98.383802 245.70866,98.124402 245.67865,97.918032 245.50332,97.691402 245.5088,97.485462 245.51122,97.394952 245.55158,97.335542 245.596,97.263222 245.66511,97.150712 245.71354,97.064402 245.75792,96.929852 245.85009,96.650462 245.80815,96.372922 245.77156,96.096452 245.75849,95.997632 245.77169,95.963392 245.73104,95.885652 245.68953,95.806242 245.58428,95.772352 245.51035,95.651952 245.37615,95.433432 245.55714,95.244182 245.57543,95.013022 245.6047,94.642812 245.56784,94.294842 245.35421,93.985152 245.11797,93.642672 244.75111,93.453122 244.35476,93.380792 244.24492,93.360762 244.16359,93.372932 244.0884,93.305302 244.00773,93.232732 243.94683,93.083372 243.86938,92.985052 243.66876,92.730402 243.46614,92.701022 243.3094,92.503922 243.24714,92.425612 243.3102,92.273272 243.37538,92.179432 243.46986,92.043432 243.57939,91.953082 243.71582,91.877712 243.81317,91.823922 243.91702,91.793932 244.0214,91.774692 M 245.79934,103.6249 C 245.75955,103.67178 245.73038,103.72482 245.63214,103.77294 245.4141,103.87971 244.9361,103.90681 244.66035,103.94682 244.04757,104.03571 243.29119,103.98911 242.68795,103.8618 241.96163,103.70852 241.29147,103.4104 240.65999,103.0491 239.58333,102.4331 238.67878,101.34958 238.25289,100.18014 238.13296,99.850882 238.06616,99.524622 238.01378,99.180062 237.90226,98.446382 237.86897,97.625262 238.0453,96.902072 238.08699,96.731102 238.16645,96.544682 238.26266,96.402032 238.30818,96.334522 238.34742,96.285312 238.36824,96.207572 238.40094,96.085482 238.37272,95.941522 238.35795,95.790872 238.32111,95.414822 238.40869,95.051892 238.61004,94.735222 238.76788,94.486962 238.98036,94.295322 239.24319,94.175882 239.34878,94.127902 239.48011,94.125592 239.55083,94.034802 239.6221,93.943302 239.61883,93.848052 239.63971,93.735122 239.66001,93.625282 239.69991,93.526072 239.75133,93.429552 239.82963,93.282602 239.92352,93.136892 240.04934,93.014512 240.34174,92.730092 240.80069,92.543282 241.21559,92.603462 241.40709,92.631252 241.59487,92.702102 241.7712,92.675112 241.94108,92.649092 242.13077,92.482562 242.29902,92.442702 242.4585,92.404922 242.88027,92.424442 243.02131,92.429452 243.11333,92.432732 243.16546,92.442512 243.24356,92.457232 M 241.60452,95.318602 C 241.53075,95.460162 241.32305,95.857112 241.23875,96.040882 241.18911,96.149102 241.13931,96.304672 241.12132,96.402032 241.09645,96.536592 241.09117,96.594832 241.07669,96.652052 241.24464,96.694902 241.27714,96.659372 241.41006,96.590972 241.53713,96.525572 241.83419,96.294062 241.96566,96.179792 M 245.77156,95.818642 C 246.00095,95.756242 246.18726,95.575642 246.43828,95.484132 246.78027,95.359442 247.13232,95.333662 247.49393,95.378012 247.65091,95.397282 247.92085,95.487432 248.04954,95.526052 248.14261,95.553992 248.17655,95.558792 248.26869,95.566952 248.30983,95.570592 248.3489,95.568542 248.35512,95.568632 M 240.15994,96.013112 C 240.25396,96.186322 240.49491,96.643052 240.55413,96.790962 240.60102,96.908042 240.64735,97.013712 240.79888,97.013712 240.86974,97.013712 240.93302,96.968892 240.97303,96.920852 241.0249,96.858572 241.08863,96.736042 241.13225,96.679842 M 240.77111,97.040982 C 240.77731,97.263992 240.79504,97.369882 240.76738,97.652142 240.75662,97.761872 240.74333,97.921322 240.74333,98.041062 240.74333,98.338242 240.77004,98.908212 240.83709,99.152272 240.87887,99.304362 240.94004,99.347652 241.02113,99.430082 241.07964,99.378352 241.14226,99.346612 241.21817,99.235112 241.30465,99.108072 241.52609,98.787882 241.66008,98.652242 M 239.99326,99.374522 C 240.18968,99.475802 240.43598,99.639162 240.60443,99.710452 240.72892,99.763142 240.76159,99.796312 240.90937,99.787242 240.97174,99.783402 241.00478,99.744992 241.01508,99.705572 241.036,99.625642 241.02113,99.507252 241.02113,99.430082 M 241.02113,99.819002 C 241.14237,100.19444 241.38076,100.68506 241.72825,101.15246 241.79554,101.24299 241.86583,101.33846 241.93801,101.43026 242.24965,101.82662 242.61714,102.15421 242.99353,102.48591" id="path7" inkscape:label="lettus" inkscape:export-filename="icons/lettuce.svg" inkscape:export-xdpi="96" inkscape:export-ydpi="96" /><path id="path105" style="display:inline;fill:none;stroke:#0f0a0b;stroke-width:1;stroke-linecap:round;stroke-linejoin:round" d="M 213.12024,99.927462 C 213.56673,100.13418 213.994,100.37976 214.44108,100.58525 214.78589,100.62906 215.18434,100.85845 215.35019,101.14093 215.38592,101.50612 215.57219,101.816 215.79289,102.09989 216.14594,102.61058 216.55053,103.08423 216.98996,103.52218 217.26072,103.7774 217.04209,104.25503 216.67132,104.03299 214.74357,103.74891 213.02187,102.45429 212.15487,100.7172 211.617,99.646802 211.36133,98.421022 211.47553,97.225802 211.62454,95.680492 212.34008,94.195062 213.48599,93.142512 214.46002,92.234582 215.72129,91.620352 217.0538,91.499312 218.09721,91.385302 219.20212,91.426202 220.16592,91.879642 220.5346,92.068392 220.57452,92.531982 220.7223,92.877862 220.74592,93.240342 220.88312,93.578632 221.09698,93.872232 221.31331,94.178932 221.47451,94.536392 221.44791,94.919432 221.47023,95.468452 221.20557,95.965152 220.97304,96.443262 220.72933,97.003472 220.70609,97.637472 220.86589,98.223452 220.98259,98.815012 221.00268,99.537512 220.51493,99.976012 220.10788,100.35059 219.52164,100.60319 219.36451,101.18259 219.18124,101.75122 219.39012,102.39673 219.07113,102.93086 218.92728,103.28484 218.52542,103.51824 218.50046,103.91789 218.63716,104.18281 219.02907,103.93313 219.27261,103.92373 220.05852,103.70713 220.79484,103.3272 221.46844,102.8728 221.73688,102.6876 221.99847,102.4876 222.21707,102.24403 222.29958,101.85216 222.77597,101.74425 222.91526,101.37403 223.17289,101.08976 223.13453,100.68139 223.36398,100.38654 223.61387,100.03504 223.63245,99.591982 223.71784,99.183802 223.84817,98.662372 223.19076,98.646652 223.05792,98.213392 222.78452,97.819552 222.45791,97.464582 222.12233,97.123202 M 220.7202,92.693272 C 221.12467,92.717712 221.46815,92.954062 221.73905,93.238462 222.96514,94.352722 223.82229,95.937942 223.8428,97.617192 223.85114,97.972132 223.85988,98.335882 223.78449,98.683212 223.76628,98.717622 223.73898,98.746732 223.70736,98.769182 M 214.82718,100.63869 C 214.79638,99.985232 214.40888,99.397662 214.43495,98.737402 214.36605,98.420362 214.24364,98.112702 214.26627,97.781282 214.24563,97.301282 214.30795,96.822912 214.33136,96.345982 214.37081,95.995552 214.74429,95.817492 214.60763,95.452962 214.69346,94.894012 215.00291,94.388382 215.36137,93.960052 215.79378,93.468372 216.3749,93.087352 217.02183,92.957442 M 214.66462,95.782022 C 215.17194,95.651362 215.54338,95.258362 216.01877,95.058282 216.81123,94.671242 217.69249,94.521802 218.56621,94.481502 M 213.14056,95.416252 C 213.56916,95.562812 213.92656,95.869962 214.36772,95.984702 214.37863,95.991652 214.38953,95.998602 214.40044,96.005562 M 214.40044,98.403412 C 214.77157,98.320782 215.07562,98.089532 215.35107,97.840852 216.40466,97.055072 217.71485,96.620482 219.02625,96.593422 L 219.08075,96.594482 219.13518,96.594862 M 212.53093,97.549942 C 212.97272,97.752392 213.39054,98.001672 213.80848,98.246722 213.97407,98.324852 214.15338,98.392032 214.33948,98.383082 M 215.31488,100.96382 C 215.71321,100.80024 215.92048,100.38862 216.26406,100.14662 217.07694,99.457252 218.113,99.053532 219.17582,98.992712 M 221.89881,99.114632 C 222.2572,99.505182 222.63519,99.882312 222.92997,100.32526 223.00848,100.41246 223.11248,100.47188 223.21966,100.51677 M 221.51271,100.78093 C 221.83923,101.11627 222.01418,101.57008 222.34587,101.89858 M 217.14375,103.95097 C 217.52468,104.21369 218.03174,104.16752 218.44428,104.01193" inkscape:label="cabege" inkscape:export-filename="icons/cabbage.svg" inkscape:export-xdpi="96" inkscape:export-ydpi="96" /><path style="display:inline;fill:none;stroke:#000000;stroke-width:1;stroke-linecap:round;stroke-linejoin:round;stroke-opacity:1" d="M 94.400477,135.60109 C 94.463697,135.76345 94.476807,135.96596 94.455897,136.11942 94.444267,136.20487 94.404357,136.31952 94.453507,136.42225 94.508147,136.53648 94.584647,136.5486 94.711467,136.5943 94.895097,136.66047 95.190227,136.7513 95.385277,136.81842 96.317177,137.13912 97.225327,137.51979 98.18419,137.69477 98.37597,137.72976 98.46356,137.72648 98.65068,137.7262 98.79451,137.72597 98.88156,137.73188 99.0135,137.70149 99.1422,137.67184 99.26322,137.62566 99.36913,137.54118 99.76856,137.22259 99.63338,136.7666 99.37632,136.43041 M 94.193137,137.51887 C 93.977557,137.26404 93.939247,137.15194 93.934227,136.89689 93.930367,136.70088 93.933987,136.56145 93.933987,136.43041 H 94.400477 M 97.043887,136.79322 C 96.865737,136.65034 96.686827,136.47292 96.681067,136.11942 M 93.933987,136.43041 C 93.864737,136.38192 93.825077,136.33917 93.674347,136.28499 93.522117,136.23026 93.273457,136.16877 93.104667,136.11942 92.623867,135.97881 91.905257,135.71095 91.446057,135.58694 91.292597,135.54549 91.219177,135.56076 91.083237,135.49431 90.936007,135.42234 90.832847,135.31522 90.720417,135.24547 90.528907,135.12666 90.113567,134.9289 89.891097,134.80874 89.621057,134.66288 89.033167,134.37139 88.805747,134.20835 88.670137,134.11113 88.607657,133.9843 88.438857,133.89376 88.292397,133.81523 88.132137,133.81297 87.973327,133.7493 87.603477,133.60106 87.317627,133.27951 87.229687,132.90584 87.197897,132.7708 87.196537,132.68 87.195847,132.54302 87.195077,132.38912 87.193507,132.29381 87.229447,132.12837 87.365517,131.50193 87.792077,130.90254 88.232727,130.47071 88.544697,130.165 89.042037,129.79505 89.424617,129.69227 M 90.305757,135.96392 C 90.744787,135.95826 90.904227,135.6809 91.031407,135.49743 M 91.497887,131.40272 C 91.742557,131.83828 92.514467,132.48311 93.312007,133.13356 93.651057,133.41009 93.995947,133.72 94.348637,133.97296 95.319467,134.66924 96.477027,135.26584 97.665877,135.56031 97.8156,135.59739 98.04664,135.64431 98.18419,135.65964 98.30422,135.67303 98.40711,135.68507 98.54702,135.70812 98.67912,135.72989 98.76819,135.7554 98.90984,135.75611 99.37297,135.75843 99.86193,135.62346 100.11229,135.23827 100.20084,135.10204 100.24598,134.91928 100.29178,134.77179 100.32872,134.65286 100.36098,134.55042 100.35705,134.40896 100.35374,134.28968 100.32948,134.20851 100.30258,134.09797 100.2452,133.86225 100.13121,133.54407 100.00623,133.3205 99.83741,133.01853 99.67009,132.80333 99.4596,132.54302 99.26609,132.30372 99.12531,132.10028 98.94103,131.86921 98.7252,131.59854 98.46238,131.25681 98.23003,130.98807 98.06242,130.79421 97.899,130.60056 97.717707,130.41791 97.527667,130.22647 97.366907,130.04121 97.192427,129.84777 97.059127,129.69999 96.931957,129.57448 96.784727,129.43407 96.579647,129.23848 96.380687,129.24137 96.273377,128.96567 96.147257,128.64165 95.879127,128.54536 95.592597,128.30073 95.331717,128.078 95.209677,128.14527 94.977587,127.96023 94.797727,127.81683 94.688867,127.61256 94.549007,127.48582 94.307407,127.2669 94.038987,127.11626 93.726657,127.00805 93.584457,126.9588 93.508167,126.94727 93.363837,126.94543 93.185517,126.94316 93.080867,126.95963 92.897347,127.01238 91.871887,127.30711 90.929647,128.01858 90.424537,128.96662 90.268837,129.25886 90.188737,129.6241 90.232807,129.95143 90.274977,130.26458 90.401407,130.56735 90.616997,130.77978 90.813817,130.97372 91.029377,131.10229 91.186897,131.18651 91.238627,131.21418 91.333197,131.27812 91.446057,131.2897 91.754547,131.32136 91.758177,131.23274 92.171707,131.19827 92.434987,131.17633 92.837407,131.08024 93.104667,130.96671 93.605507,130.75398 94.080397,130.42012 94.420867,130.00326 94.506077,129.89895 94.582067,129.80691 94.652427,129.69227 94.769207,129.50202 94.811777,129.35137 94.884467,129.12213 94.935937,128.95986 94.970617,128.54393 94.970617,128.39648 94.970617,128.21035 94.970617,128.15337 94.970617,128.08549 M 98.54702,135.65292 C 98.5461,135.38208 98.52271,135.107 98.3397,134.82362 M 92.741847,135.08278 C 92.780567,134.75667 92.565377,134.13821 92.949177,133.94248 M 90.927737,134.20164 C 91.205027,133.91156 91.326197,133.56382 91.083237,133.16501 M 96.577407,134.09797 96.861757,133.78674 96.992057,132.69851 M 88.543477,133.89065 C 88.617227,133.8289 88.691147,133.76077 88.854467,133.68428 88.972397,133.62905 89.149647,133.53857 89.269127,133.4544 89.444037,133.33117 89.582577,133.21628 89.734637,133.0611 90.009337,132.78081 90.374547,132.26892 90.564917,132.02471 M 98.44336,133.73515 99.42815,133.63149 M 95.074287,132.85401 C 95.039707,132.3393 94.680307,132.0126 94.866957,131.45455 M 96.318247,131.24723 C 96.643497,131.247 96.954717,131.19885 96.992057,130.88441 M 95.799937,129.38129 C 96.067157,129.33687 96.136087,129.24158 96.266417,129.12213 M 96.214587,128.7593 C 96.377797,128.58001 96.500257,128.411 96.836567,128.29282" id="path3" inkscape:label="yam" inkscape:export-filename="icons/yam.svg" inkscape:export-xdpi="96" inkscape:export-ydpi="96" /><path style="display:inline;fill:none;stroke:#000000;stroke-width:1;stroke-linecap:round;stroke-linejoin:round;stroke-opacity:1" d="M 274.90311,99.728032 C 275.17039,100.67172 275.24248,100.76623 274.97383,101.68806 274.71164,102.51427 274.34693,103.32909 273.78058,103.99272 273.07865,104.67791 271.91242,104.81258 271.08508,104.27608 270.69784,104.06551 270.42405,103.6406 270.4885,103.18983 270.56559,102.44818 270.92646,101.77329 271.03012,101.03571 271.14323,100.44365 271.26175,100.62912 271.02174,100.06607 270.73268,99.905462 270.42174,99.890762 270.09669,99.835142 268.9813,99.740932 266.97497,99.658552 266.20038,98.781062 265.62476,98.162392 266.01048,96.365152 266.19069,95.541442 266.43448,94.213232 267.23725,93.016312 268.30283,92.201032 269.588,91.240322 271.17524,90.675022 272.78014,90.624492 274.36398,90.572512 275.9149,91.289492 276.99215,92.434462 277.771,93.266752 278.46333,94.290102 278.52162,95.463772 278.60109,96.460542 278.59437,98.387692 277.7599,98.924252 M 268.47192,93.727702 C 268.5591,94.097442 268.70571,94.470572 269.02572,94.701182 269.65442,95.174572 270.46192,95.335942 271.23037,95.408172 271.66862,95.431472 272.1153,95.468762 272.54958,95.385962 M 268.00491,96.569322 C 267.95651,96.720922 267.827,96.831762 267.91401,97.000752 M 276.13781,93.357192 C 276.30016,93.893082 276.02505,94.475742 275.55559,94.757082 275.23897,94.972322 274.86877,95.083812 274.51183,95.211422 M 270.01393,97.175662 C 270.01854,97.341092 270.02314,97.506522 270.02775,97.671962 M 272.418,97.175662 C 272.44155,97.398622 272.4651,97.621582 272.48865,97.844542 M 276.74695,96.333392 C 276.83857,96.448492 276.93018,96.563572 277.02179,96.678662 M 274.90311,97.175662 274.98542,97.591942 M 271.02174,100.06607 C 271.34711,99.991392 272.39495,99.919802 272.72743,99.913452 273.27465,99.906862 274.35948,99.787552 274.90311,99.728032 275.42547,99.667112 277.36259,99.121412 277.7599,98.924252" id="path1" sodipodi:nodetypes="cccccccccccccccccccccccccccccccccccc" inkscape:label="shiitake" inkscape:export-filename="icons/shiitake.svg" inkscape:export-xdpi="96" inkscape:export-ydpi="96" /><path id="path154" style="display:inline;fill:none;stroke:#000000;stroke-width:1;stroke-linecap:round;stroke-linejoin:round;stroke-dasharray:none;stroke-opacity:1" d="M 21.923269,133.61778 C 20.942759,133.32372 19.629039,131.15352 20.752849,129.20953 21.090449,129.17408 21.515279,129.75263 21.842629,129.81623 22.422359,129.04966 22.656739,129.8021 22.999009,129.98278 24.078199,128.90808 24.601419,129.73531 24.999999,130 26.128729,129.65088 27.361699,129.32568 27.033759,131.2853 27.287339,131.42716 29.521839,131.20167 29.052709,131.47031 29.912249,133.03608 25.024289,134.02992 21.923269,133.61778 M 26.119979,136.29378 C 25.222769,136.54838 23.890619,136.74479 22.651739,135.02187 M 22.651739,135.02187 C 21.621959,135.06492 22.070399,133.8577 21.502819,133.48724 20.884619,132.6944 20.345169,134.06111 19.836599,134.51032 19.310319,133.44769 19.151519,132.39658 18.219139,133.52995 17.308919,134.62511 16.366149,133.01392 15.674899,132.28376 15.515909,131.82785 16.177409,131.81102 16.466419,131.71285 16.361369,130.60511 16.729569,130.55554 17.455079,131.38303 17.733269,131.10733 16.863469,130.61374 17.251959,130.49185 18.507119,128.06579 19.792909,130.78687 20.208869,130.82051 M 17.562229,131.2746 C 18.226799,131.37726 19.247729,131.15565 20.501989,131.96684 M 21.923269,133.61778 C 22.651329,133.9641 26.128929,131.29253 27.033759,131.2853 M 23.715609,136.15759 C 22.989169,137.73545 21.936569,137.67343 20.557849,135.97169 M 18.009239,133.73581 17.741849,135.08278 C 18.577309,136.672 18.847579,135.93995 19.241359,136.15759 20.390689,136.41722 21.409469,135.35215 21.047069,134.90315 M 21.047069,134.90315 C 21.382469,134.90662 21.720139,134.88696 22.053009,134.93908 M 20.335749,141.28364 C 20.665549,141.08925 20.722019,140.24262 20.773479,139.93157 20.828529,138.96026 20.954019,137.95944 20.678719,137.00919 20.482709,136.52757 20.373369,136.58317 20.247109,136.07025 M 17.454439,135.33427 C 17.538269,135.26242 17.622099,135.19057 17.705929,135.11872 M 23.870329,136.25677 C 23.803319,136.86364 23.326099,137.32462 23.252169,137.93074 23.156579,138.63545 23.545709,139.28491 23.617869,139.97385 23.658539,140.25162 23.916409,141.0029 24.201649,141.16968 M 27.951499,132.98967 C 28.275249,133.74071 29.052709,133.48905 28.750899,134.59918 28.580179,135.4923 28.181699,135.91981 27.115939,136.15759 26.845559,136.32461 25.367729,136.22295 25.222769,136.54838 25.094749,136.90339 25.443269,136.23487 25.222769,136.54838 24.946409,137.05923 24.717409,137.61631 24.736959,138.20805 24.749209,138.85811 24.702179,139.51107 24.563959,140.14696 24.554139,140.59908 24.384889,140.86041 24.201649,141.16968 24.060699,141.54849 23.635419,141.69586 23.386049,142.02779 23.078379,142.48721 22.614059,142.99186 22.008649,142.95014 21.523899,142.90772 21.224369,142.46104 20.993099,142.08116 20.781949,141.73813 20.473699,141.65663 20.335749,141.28364 20.165869,141.02204 19.939429,140.70929 19.871979,140.35042 19.598219,139.6073 19.636189,138.79493 19.396079,138.04198 19.239199,137.41393 18.843329,136.87523 18.349439,136.46745 18.145479,136.24391 17.990809,135.97743 17.756219,135.78003 17.568739,135.56634 18.079619,136.21941 17.777879,136.15759 17.457519,136.08384 15.516059,137.03726 15.313279,136.78507 15.563259,136.04273 14.508979,134.38908 13.981149,134.35581 13.759529,134.26025 15.499209,132.7661 15.586269,132.28053" sodipodi:nodetypes="ccccccccccccccccccccccccccccccccccccccccccccccccccccccccccccc" inkscape:label="maitake" inkscape:export-filename="icons/maitake.svg" inkscape:export-xdpi="96" inkscape:export-ydpi="96" /><path id="path8" style="display:inline;fill:none;stroke:#000000;stroke-width:1;stroke-linecap:round;stroke-linejoin:round;stroke-opacity:1" d="M 219.93125,125.28984 C 220.09114,126.81257 219.89356,129.05538 218.73301,130.08278 218.06708,130.67231 216.86201,130.45247 215.79068,130.50826 214.76102,130.56187 213.38188,130.56162 212.74184,130.08278 211.44617,129.11343 211.4653,127.01853 211.54361,125.28984 212.95195,125.7466 214.91748,125.42859 215.66805,124.09161 216.31394,125.44839 218.97379,125.99073 219.93125,125.28984 Z M 215.79068,130.79006 215.85168,135.70394 C 217.17892,134.39109 218.25607,132.09549 221.28591,133.32633 220.36555,135.07502 219.56922,136.82175 217.53478,136.97245 216.82713,137.02488 216.58793,136.83856 215.91062,136.77584 215.36083,136.72494 214.30078,137.10359 213.67713,137.06027 212.46664,136.97621 210.43603,134.6952 210.34537,133.15427 212.60789,132.73908 214.44888,133.39433 215.85168,135.70394 M 215.85168,135.70394 215.91062,136.77584" sodipodi:nodetypes="csssccccccssscccc" inkscape:label="tulip" inkscape:export-filename="icons/tulip.svg" inkscape:export-xdpi="96" inkscape:export-ydpi="96" /><path id="path142-3-5-4-5" style="display:inline;fill:none;stroke:#000000;stroke-width:0.700002;stroke-linecap:round;stroke-linejoin:round;stroke-miterlimit:0;stroke-dasharray:none;stroke-opacity:1" d="M 57.152438,140.82695 55.543088,141.29864 56.116268,141.92645 Z M 59.925278,136.78789 58.315928,137.25958 58.889118,137.8874 Z M 56.160968,137.04339 56.100788,138.71936 55.351008,138.31874 Z M 58.748508,133.59017 58.688338,135.26615 57.938548,134.86554 Z M 62.767468,130.45668 C 62.698438,130.0942 62.580448,129.72764 62.573388,129.3604 62.714968,129.07213 63.023848,128.90192 63.294408,128.74529 63.560138,128.58991 64.024998,128.59299 64.108708,128.95758 64.187598,129.38853 64.070988,129.85224 63.847978,130.22409 63.551358,130.43507 63.142308,130.30864 62.818858,130.45148 62.512578,130.62958 62.364738,130.97351 62.145898,131.24065 61.995818,131.46086 61.867378,130.91769 61.749748,130.81531 61.597758,130.52442 61.506728,130.19082 61.285918,129.94287 60.896738,129.6756 60.701548,130.25263 60.516698,130.49269 60.301898,130.8598 60.093558,131.28385 60.163808,131.71894 60.275708,132.10904 60.674658,132.29161 60.972338,132.51969 61.365248,132.63724 61.447788,132.07553 61.692108,131.87595 61.820618,131.71208 61.965078,131.56118 62.086848,131.392 M 61.355218,129.93994 C 61.554968,129.67868 61.731998,129.40029 61.928498,129.13807 62.134648,128.91468 62.376998,129.15129 62.552118,129.27812 M 63.888318,130.25042 C 64.246788,130.38227 64.444818,130.81577 64.070848,131.07004 63.787428,131.31584 63.644188,131.63375 63.806378,131.98989 63.657568,132.31454 63.405998,132.59007 63.164408,132.85206 62.876808,133.1424 62.461388,133.38709 62.040488,133.25991 61.784898,133.25471 61.719828,133.55736 61.571378,133.7153 61.046168,134.44226 60.510798,135.16213 59.992268,135.89372 59.859758,136.192 59.813768,136.53604 59.508548,136.73039 M 62.144548,131.38291 C 62.629748,131.53211 63.139248,131.55937 63.635828,131.65058 M 60.361428,132.078 C 60.031028,132.52358 59.718038,132.98303 59.373648,133.4175 59.035698,133.65972 58.790868,134.0312 58.740648,134.44853 58.779618,134.87521 58.286088,134.82395 58.136008,135.13505 57.688128,135.74235 57.258868,136.36431 56.794768,136.95905 56.525968,137.17504 56.279468,137.43218 56.181128,137.77299 56.120048,138.06433 56.101438,138.47684 55.725898,138.51905 55.419668,138.79245 55.225088,139.16857 54.969358,139.48778 54.705958,139.85637 54.428708,140.21663 54.173808,140.59026 54.064898,141.00459 54.644958,141.11433 54.864228,141.36223 55.147838,141.51574 55.562608,142.08535 55.829688,141.61255 56.692318,140.41563 57.560778,139.22253 58.434268,138.03346 58.612508,137.7751 58.930318,137.4938 58.765468,137.15 M 61.163148,132.66138 C 61.419248,132.84775 61.675348,133.03412 61.931458,133.22047 M 53.866868,138.80069 52.384598,139.58511 53.071888,140.08542 Z M 55.774658,134.28816 54.292388,135.07259 54.979678,135.5729 Z M 52.137758,135.29235 52.414458,136.94642 51.599618,136.70406 Z M 53.981348,131.3909 54.258028,133.04497 53.443188,132.80261 Z M 57.291348,127.51601 C 57.151128,127.17469 56.962118,126.83919 56.881658,126.48081 56.962638,126.17002 57.231168,125.94141 57.464878,125.73378 57.694118,125.52833 58.150168,125.43823 58.305188,125.77868 58.468788,126.18511 58.447418,126.66276 58.303388,127.07175 58.055028,127.33786 57.628948,127.29592 57.340648,127.50063 57.076238,127.73647 57.000278,128.10301 56.839358,128.40857 56.736418,128.65438 56.501818,128.14794 56.366068,128.07118 56.158898,127.81663 56.002908,127.50801 55.736908,127.3093 55.302098,127.12539 55.226428,127.72983 55.093408,128.00204 54.956458,128.40472 54.837248,128.86191 54.993228,129.27412 55.180968,129.63392 55.608408,129.73288 55.945718,129.89673 56.354208,129.93321 56.322588,129.36635 56.521998,129.12188 56.615078,128.93561 56.726398,128.75883 56.811818,128.56869 M 55.804218,127.29258 C 55.947608,126.9966 56.065288,126.68838 56.205298,126.39212 56.362538,126.13199 56.647358,126.31527 56.844328,126.40444 M 58.348178,127.08947 C 58.725788,127.14686 59.006638,127.53191 58.691148,127.85594 58.462718,128.1535 58.386028,128.49367 58.616258,128.81011 58.535488,129.15799 58.344188,129.47831 58.159958,129.78337 57.936318,130.12541 57.578328,130.44835 57.140498,130.40805 56.889028,130.45413 56.885878,130.76368 56.772078,130.94816 56.403098,131.76556 56.022728,132.57807 55.661218,133.39869 55.591128,133.71745 55.614958,134.06374 55.354848,134.31528 M 56.866548,128.54823 C 57.371778,128.59724 57.876438,128.52191 58.381228,128.51183 M 55.258758,129.58633 C 55.024278,130.08905 54.809638,130.60187 54.559208,131.09652 54.276638,131.4015 54.111158,131.81448 54.145528,132.23342 54.269148,132.64366 53.775358,132.69227 53.690628,133.02712 53.373448,133.71183 53.077428,134.40715 52.741848,135.08278 52.521728,135.34823 52.331738,135.64951 52.303638,136.00313 52.302128,136.30079 52.366518,136.70867 52.007028,136.82524 51.761768,137.15442 51.646448,137.56189 51.459828,137.92584 51.275558,138.33971 51.076098,138.7482 50.901178,139.16532 50.877458,139.59306 51.467738,139.58442 51.732218,139.78338 52.040808,139.87698 52.561258,140.352 52.728228,139.83527 53.333698,138.48987 53.945618,137.14699 54.563298,135.80708 54.686188,135.51827 54.941208,135.17903 54.710858,134.8752 M 56.161058,129.99735 C 56.449288,130.12863 56.737528,130.25994 57.025758,130.39123" inkscape:label="asparagus" inkscape:export-filename="icons/asparagus.svg" inkscape:export-xdpi="96" inkscape:export-ydpi="96" /><path id="path206" style="display:inline;fill:none;stroke:#000000;stroke-width:1;stroke-linecap:round;stroke-linejoin:round;stroke-miterlimit:0;stroke-dasharray:none;stroke-opacity:1" d="M 183.55054,99.034042 192.45989,103.87857 M 185.28504,95.044282 193.4016,102.57799 M 188.12449,93.154652 194.9346,101.09079 M 188.19895,104.93018 194.75533,96.527672 M 193.4016,95.044282 184.95004,102.94114 M 191.51818,93.624092 183.58612,98.371222 M 192.07111,90.874602 193.04274,92.219142 H 194.80655 M 192.10756,93.677132 193.04274,92.219142 M 195.28503,99.034042 C 195.28503,102.363 192.65818,105.06167 189.41778,105.06167 186.1774,105.06167 183.55054,102.363 183.55053,99.034042 183.55053,95.705072 186.17739,93.006402 189.41778,93.006402 192.65818,93.006402 195.28504,95.705072 195.28503,99.034042 Z" sodipodi:nodetypes="cccccccccccccccccsssss" inkscape:label="meron" inkscape:export-filename="icons/meron.svg" inkscape:export-xdpi="96" inkscape:export-ydpi="96" /><path id="path655" style="fill:none;stroke:#000000;stroke-width:1;stroke-linecap:round;stroke-linejoin:round;stroke-dasharray:none;stroke-opacity:1" d="M 178.96504,29.663758 C 179.23523,29.104693 176.85122,26.920994 177.28406,25.27575 177.6764,23.784479 179.31688,21.845292 181.13902,23.485592 M 177.82206,31.99716 C 178.22636,31.531733 178.78394,30.924927 179.02223,30.162632 179.26215,29.395152 179.30649,28.751314 179.54132,28.025418 179.96859,26.704596 179.98001,24.527744 181.13902,23.485592 182.66931,22.109598 185.97686,21.630979 187.1142,22.768317 187.74106,23.395175 187.39223,26.261659 187.1142,27.365022 186.7471,28.821901 184.89236,29.234697 183.35305,29.663758 181.74921,30.110806 180.15548,30.043392 178.96504,30.543683 180.03849,29.440514 181.87195,28.76497 181.83178,25.902608 M 185.59199,23.395175 C 183.98931,25.730265 181.97604,27.74992 180.57257,29.139491 M 178.96504,25.693453 C 179.23563,26.554644 179.98425,26.745219 179.5919,27.783183 M 183.97991,23.788527 C 184.2505,24.649718 184.21263,24.648661 183.82028,25.686626 M 182.55818,27.196453 C 183.41937,26.925872 184.19566,26.336877 185.23362,26.729228" inkscape:label="spinach" inkscape:export-filename="icons/spinach.svg" inkscape:export-xdpi="96" inkscape:export-ydpi="96" /><path id="path653" style="fill:none;stroke:#000000;stroke-width:1;stroke-linecap:round;stroke-linejoin:round;stroke-dasharray:none;stroke-opacity:1" d="M 58.904669,23.193315 C 58.481557,25.219038 55.096248,27.39675 54.496411,28.018171 52.541041,30.043895 53.509114,35.571079 59.455605,33.865276 57.433508,33.08248 56.734228,32.876111 56.41702,30.826691 55.946728,27.788105 57.886439,27.31137 59.037678,24.74952 59.520206,23.675767 58.442744,22.723796 58.442744,21.12878 59.455605,21.12878 62.494191,20.698073 64.089205,21.227281 64.519914,21.710935 63.384496,23.876245 64.519914,24.74952 66.545638,26.307553 70.246878,29.309296 68.132448,32.34788 66.473806,34.731488 61.481329,33.445984 60.468467,33.865276 M 61.481329,21.089969 C 61.654569,22.09458 60.897374,24.831483 61.481329,25.308089 64.519914,27.788105 65.532776,31.839553 61.481329,33.865276 M 57.92353,34.128859 60.468467,33.865276" inkscape:label="garlic" inkscape:export-filename="icons/garic.svg" inkscape:export-xdpi="96" inkscape:export-ydpi="96" /><path id="path545" style="fill:none;stroke:#000000;stroke-width:1;stroke-linecap:round;stroke-linejoin:round;stroke-dasharray:none;stroke-opacity:1" d="M 214.75245,24.249812 214.00226,22.749435 213.25207,23.116795 212.92274,21.999246 H 211.75169 V 21.249057 L 211.0015,20.881697 C 212.2796,20.503819 211.75982,20.527149 213.25207,20.498868 213.59031,20.492459 213.90283,19.761968 214.32911,19.748679 213.84655,20.251693 213.89331,20.748932 214.46941,21.240398 Z M 211.75169,21.249057 C 208.75094,23.499624 205.85992,23.329727 204.99999,25.000001 203.88965,27.156632 205.41824,30.156568 207.91483,30.2748 210.51556,30.397963 213.62716,26.500379 214.37735,23.499624" inkscape:label="eggplant" inkscape:export-filename="icons/eggplant.svg" inkscape:export-xdpi="96" inkscape:export-ydpi="96" /><path id="path544" style="fill:none;stroke:#000000;stroke-width:1;stroke-linecap:round;stroke-linejoin:round;stroke-dasharray:none;stroke-opacity:1" d="M 132.77957,26.332852 C 130.01711,29.007796 127.10908,32.763772 125.77319,33.431716 122.71902,34.958802 118.13776,34.195259 122.35264,29.613999 124.15845,27.651231 125.77319,28.086913 129.04098,24.70594 131.11799,20.451483 135.69925,23.505655 132.77957,26.332852 Z M 129.40484,25.796284 H 129.77698 M 122.34688,32.91411 H 122.71902 M 123.11042,30.843664 H 123.48256 M 133.40862,23.346583 133.82269,22.893643 133.51866,22.585506 132.98519,22.99369 M 131.11799,25.032741 H 131.49012 M 128.06382,29.119167 H 128.43595 M 128.06382,27.306684 H 128.43595 M 130.16839,27.077431 H 130.54052 M 125.12118,32.095346 H 125.49332 M 125.16012,29.42299 H 125.53226 M 126.92814,30.139598 H 127.30027" inkscape:label="cucumber" inkscape:export-filename="icons/cucumber.svg" inkscape:export-xdpi="96" inkscape:export-ydpi="96" /><path id="path450" style="fill:none;stroke:#000000;stroke-width:0.999996;stroke-linecap:round;stroke-linejoin:round;stroke-dasharray:none;stroke-opacity:1" d="M 157.80747,21.752783 C 158.28561,22.159507 159.74539,21.408414 160.37975,22.159507 161.10584,23.019202 160.59822,23.70382 160.86469,24.311921 161.25257,25.197034 162.58409,25.079882 162.58409,26.457984 162.58409,28.021112 161.2132,27.468359 160.48995,28.177376 159.8846,28.770813 160.47458,29.896768 159.14531,30.256251 158.18518,30.515908 157.75192,29.024591 156.56621,29.037072 155.47074,29.048601 154.84682,30.756463 153.54425,30.323005 152.19231,29.873119 153.02706,29.583847 151.92706,28.628256 151.40804,28.177376 149.68864,28.177376 149.68864,26.457984 149.68864,25.249613 150.58233,25.615273 150.99925,24.738594 151.40804,23.878897 150.60214,22.96541 151.40804,22.159507 152.26774,21.29981 153.0534,22.240395 153.98713,21.75069 154.84682,21.29981 154.18001,19.65839 156.56621,20.063813 157.09774,20.296227 157.42572,21.428038 157.80747,21.752783 Z M 154.84682,29.896768 C 155.1334,31.678961 154.84684,32.825228 153.98713,33.33555 H 158.64437 C 158.34165,32.263488 157.75365,32.844998 157.77459,29.896768 M 159.24556,24.498745 C 159.57635,23.586087 157.77823,22.963311 157.42591,23.878897 M 155.00901,23.921211 C 154.82867,22.967356 152.96412,23.347581 153.12743,24.314928 M 159.14531,27.034285 C 158.99364,26.075441 157.11854,26.399558 157.25276,27.371369 M 154.84682,27.673777 C 155.29772,26.814081 153.60006,25.954386 153.12743,26.814081" inkscape:label="broccoli" inkscape:export-filename="icons/broccoli.svg" inkscape:export-xdpi="96" inkscape:export-ydpi="96" /><path id="path449" style="fill:none;stroke:#000000;stroke-width:1;stroke-linecap:round;stroke-linejoin:round;stroke-dasharray:none;stroke-opacity:1" d="M 96.193857,96.973502 C 96.306817,95.726012 97.479117,94.764082 99.098557,94.764082 101.74959,94.764082 102.98767,97.863272 101.43203,99.615122 100.46415,100.70509 98.770207,100.94039 97.753317,100.39295 M 92.267697,98.837302 H 94.382857 M 93.325277,97.779712 V 99.894872 M 98.621237,96.503842 H 100.17689 M 99.399061,95.726012 V 97.281662 M 92.735517,96.486132 C 97.208167,94.925112 99.976001,101.52699 95.126067,103.26577 90.680574,104.85953 88.402218,97.998512 92.735517,96.486132" inkscape:label="blueberrie" inkscape:export-filename="icons/blueberrie.svg" inkscape:export-xdpi="96" inkscape:export-ydpi="96" /><path id="path447" style="fill:none;stroke:#000000;stroke-width:1;stroke-linecap:round;stroke-linejoin:round;stroke-dasharray:none;stroke-opacity:1" d="M 28.107222,55.062012 C 30.250963,54.28769 33.094765,55.74159 32.857351,58.255209 32.582321,61.167027 29.085531,66.708217 26.316868,67.693958 22.486126,69.057842 19.267946,64.484884 20.244711,60.940749 20.972215,58.301107 25.707942,55.928641 28.107222,55.062012 M 24.999999,60.000001 C 28.461893,58.692229 28.347925,63.291195 25.851665,64.413364 22.850365,65.762552 22.583967,60.912692 24.999999,60.000001" inkscape:label="avocado" inkscape:export-filename="icons/avocado.svg" inkscape:export-xdpi="96" inkscape:export-ydpi="96" /><path id="path446" style="fill:none;stroke:#000000;stroke-width:1;stroke-linecap:round;stroke-linejoin:round;stroke-dasharray:none;stroke-opacity:1" d="M 26.351348,90.000002 C 26.377671,92.551062 26.065972,93.837892 23.996603,93.471272 23.77241,91.982612 23.996603,90.710642 26.351348,90.000002 M 24.17583,103.99271 C 23.261813,104.04349 21.926548,104.32588 21.235971,103.95132 18.069867,102.23408 17.176017,96.653932 20.315762,94.391482 21.211741,93.745862 22.956075,94.773002 24.401086,94.966612 25.421099,94.835812 27.680318,93.646462 28.597655,94.391482 30.863706,96.231902 30.475747,102.66358 26.757234,104.14771 26.255772,104.34786 24.792809,103.95843 24.17583,103.99271 Z" inkscape:label="apple" inkscape:export-filename="apple.svg" inkscape:export-xdpi="96" inkscape:export-ydpi="96" /><path id="path445" style="fill:none;stroke:#000000;stroke-width:1;stroke-linecap:round;stroke-linejoin:round;stroke-dasharray:none;stroke-opacity:1" d="M 58.879781,92.932472 C 58.199675,91.956322 59.528532,89.027872 61.128134,89.634372 62.104287,90.548812 59.718901,93.213842 58.879781,92.932472 Z M 59.465824,94.424892 C 61.066187,94.397732 62.024164,93.149452 63.733741,93.908622 61.128134,96.246392 60.764166,100.23273 63.779561,102.69399 64.538832,103.31373 60.431474,104.32972 59.175829,103.99271 57.896521,104.45601 53.93625,103.52709 54.568816,102.69399 56.786889,99.772842 57.844766,97.550412 54.295064,93.908622 56.247369,93.047972 58.031719,94.449222 59.465824,94.424892 Z" inkscape:label="apple-seed" inkscape:export-filename="apple-seed.svg" inkscape:export-xdpi="96" inkscape:export-ydpi="96" /><path id="path444" style="fill:none;stroke:#000000;stroke-width:1;stroke-linecap:round;stroke-linejoin:round;stroke-dasharray:none;stroke-opacity:1" d="M 95.856777,19.661703 C 96.931467,20.896337 96.791207,22.011261 96.432987,22.769671 97.459997,22.466154 98.718277,22.35467 99.601897,23.845121 98.261857,25.826921 95.856777,23.845121 95.020097,23.845121 95.020097,23.008437 93.716277,20.806233 95.856777,19.661703 Z M 94.183417,29.426285 C 92.330257,30.668976 89.592417,31.871317 86.97103,32.519804 87.513617,30.525619 88.608797,27.191855 89.633417,25.185471 90.590747,23.310837 92.510047,21.668172 95.020097,23.845121 97.983367,26.355171 95.020097,28.865222 94.183417,29.426285 Z M 89.163317,25.980836 C 89.594327,26.983539 89.924077,27.499816 90.436727,27.671753 M 93.828057,26.043184 C 94.139677,26.714457 94.807647,27.276034 95.831997,27.727913 M 89.999997,30.000001 C 90.181507,30.391008 90.570597,30.718118 91.167267,30.981332" inkscape:label="carrot" inkscape:export-filename="icons/carrot.svg" inkscape:export-xdpi="96" inkscape:export-ydpi="96" /><text xml:space="preserve" style="font-size:2.82222px;font-family:'UD Digi Kyokasho N-R';-inkscape-font-specification:'UD Digi Kyokasho N-R';text-align:center;letter-spacing:0px;writing-mode:lr-tb;direction:ltr;text-anchor:middle;fill:none;fill-opacity:1;stroke:#000000;stroke-width:0.2;stroke-linecap:round;stroke-linejoin:round;stroke-miterlimit:0;stroke-dasharray:none;stroke-opacity:1" x="58.356327" y="109.90743" id="text1019"><tspan sodipodi:role="line" id="tspan1019" style="font-size:2.82222px;fill:none;stroke:#000000;stroke-width:0.2;stroke-opacity:1" x="58.356327" y="109.90743">apple-seed</tspan></text><text xml:space="preserve" style="font-size:2.82222px;font-family:'UD Digi Kyokasho N-R';-inkscape-font-specification:'UD Digi Kyokasho N-R';text-align:center;letter-spacing:0px;writing-mode:lr-tb;direction:ltr;text-anchor:middle;fill:none;fill-opacity:1;stroke:#000000;stroke-width:0.2;stroke-linecap:round;stroke-linejoin:round;stroke-miterlimit:0;stroke-dasharray:none;stroke-opacity:1" x="59.722725" y="41.247173" id="text1019-50"><tspan sodipodi:role="line" id="tspan1019-0" style="font-size:2.82222px;fill:none;stroke:#000000;stroke-width:0.2;stroke-opacity:1" x="59.722725" y="41.247173">garlic</tspan></text><text xml:space="preserve" style="font-size:2.82222px;font-family:'UD Digi Kyokasho N-R';-inkscape-font-specification:'UD Digi Kyokasho N-R';text-align:center;letter-spacing:0px;writing-mode:lr-tb;direction:ltr;text-anchor:middle;fill:none;fill-opacity:1;stroke:#000000;stroke-width:0.2;stroke-linecap:round;stroke-linejoin:round;stroke-miterlimit:0;stroke-dasharray:none;stroke-opacity:1" x="122.98384" y="73.779198" id="text1019-50-2"><tspan sodipodi:role="line" id="tspan1019-0-4" style="font-size:2.82222px;fill:none;stroke:#000000;stroke-width:0.2;stroke-opacity:1" x="122.98384" y="73.779198">peapod</tspan></text><text xml:space="preserve" style="font-size:2.82222px;font-family:'UD Digi Kyokasho N-R';-inkscape-font-specification:'UD Digi Kyokasho N-R';text-align:center;letter-spacing:0px;writing-mode:lr-tb;direction:ltr;text-anchor:middle;white-space:pre;inline-size:19;display:inline;fill:none;fill-opacity:1;stroke:#000000;stroke-width:0.2;stroke-linecap:round;stroke-linejoin:round;stroke-miterlimit:0;stroke-dasharray:none;stroke-opacity:1" x="92" y="205.5" id="text1019-50-2-1" transform="translate(-64.565015,-162.03731)"><tspan x="92" y="205.5" id="tspan1">sprout</tspan></text><text xml:space="preserve" style="font-size:2.82222px;font-family:'UD Digi Kyokasho N-R';-inkscape-font-specification:'UD Digi Kyokasho N-R';text-align:center;letter-spacing:0px;writing-mode:lr-tb;direction:ltr;text-anchor:middle;white-space:pre;inline-size:19;display:inline;fill:none;fill-opacity:1;stroke:#000000;stroke-width:0.2;stroke-linecap:round;stroke-linejoin:round;stroke-miterlimit:0;stroke-dasharray:none;stroke-opacity:1" x="92" y="205.5" id="text1019-50-2-1-0" transform="translate(33.126063,-96.234222)"><tspan x="92" y="205.5" id="tspan2">strowberry</tspan></text><text xml:space="preserve" style="font-size:2.82222px;font-family:'UD Digi Kyokasho N-R';-inkscape-font-specification:'UD Digi Kyokasho N-R';text-align:center;letter-spacing:0px;writing-mode:lr-tb;direction:ltr;text-anchor:middle;white-space:pre;inline-size:19;display:inline;fill:none;fill-opacity:1;stroke:#000000;stroke-width:0.2;stroke-linecap:round;stroke-linejoin:round;stroke-miterlimit:0;stroke-dasharray:none;stroke-opacity:1" x="92" y="205.5" id="text1019-50-2-1-0-0" transform="translate(178.93065,-167.46004)"><tspan x="92" y="205.5" id="tspan3">tomato</tspan></text><text xml:space="preserve" style="font-size:2.82222px;font-family:'UD Digi Kyokasho N-R';-inkscape-font-specification:'UD Digi Kyokasho N-R';text-align:center;letter-spacing:0px;writing-mode:lr-tb;direction:ltr;text-anchor:middle;white-space:pre;inline-size:19;display:inline;fill:none;fill-opacity:1;stroke:#000000;stroke-width:0.2;stroke-linecap:round;stroke-linejoin:round;stroke-miterlimit:0;stroke-dasharray:none;stroke-opacity:1" x="92" y="205.5" id="text1019-50-2-1-0-0-6" transform="translate(67.590081,-96.349925)"><tspan x="92" y="205.5" id="tspan4">watermeron</tspan></text><text xml:space="preserve" style="font-size:2.82222px;font-family:'UD Digi Kyokasho N-R';-inkscape-font-specification:'UD Digi Kyokasho N-R';text-align:center;letter-spacing:0px;writing-mode:lr-tb;direction:ltr;text-anchor:middle;white-space:pre;inline-size:19;display:inline;fill:none;fill-opacity:1;stroke:#000000;stroke-width:0.2;stroke-linecap:round;stroke-linejoin:round;stroke-miterlimit:0;stroke-dasharray:none;stroke-opacity:1" x="92" y="205.5" id="text1019-50-2-1-0-0-6-5" transform="translate(117.26025,-132.55926)"><tspan x="92" y="205.5" id="tspan5">coriander</tspan></text><text xml:space="preserve" style="font-size:2.82222px;font-family:'UD Digi Kyokasho N-R';-inkscape-font-specification:'UD Digi Kyokasho N-R';text-align:center;letter-spacing:0px;writing-mode:lr-tb;direction:ltr;text-anchor:middle;fill:none;fill-opacity:1;stroke:#000000;stroke-width:0.2;stroke-linecap:round;stroke-linejoin:round;stroke-miterlimit:0;stroke-dasharray:none;stroke-opacity:1" x="154.26025" y="72.940742" id="text1019-50-2-2"><tspan sodipodi:role="line" id="tspan1019-0-4-9" style="font-size:2.82222px;fill:none;stroke:#000000;stroke-width:0.2;stroke-opacity:1" x="154.26025" y="72.940742">sweet-pepper</tspan></text><text xml:space="preserve" style="font-size:2.82222px;font-family:'UD Digi Kyokasho N-R';-inkscape-font-specification:'UD Digi Kyokasho N-R';text-align:center;letter-spacing:0px;writing-mode:lr-tb;direction:ltr;text-anchor:middle;fill:none;fill-opacity:1;stroke:#000000;stroke-width:0.2;stroke-linecap:round;stroke-linejoin:round;stroke-miterlimit:0;stroke-dasharray:none;stroke-opacity:1" x="184.26025" y="72.940742" id="text1019-50-2-2-5"><tspan sodipodi:role="line" id="tspan1019-0-4-9-0" style="font-size:2.82222px;fill:none;stroke:#000000;stroke-width:0.2;stroke-opacity:1" x="184.26025" y="72.940742">chili-pepper</tspan></text><text xml:space="preserve" style="font-size:2.82222px;font-family:'UD Digi Kyokasho N-R';-inkscape-font-specification:'UD Digi Kyokasho N-R';text-align:center;letter-spacing:0px;writing-mode:lr-tb;direction:ltr;text-anchor:middle;fill:none;fill-opacity:1;stroke:#000000;stroke-width:0.2;stroke-linecap:round;stroke-linejoin:round;stroke-miterlimit:0;stroke-dasharray:none;stroke-opacity:1" x="268.28137" y="72.6045" id="text1019-50-2-2-5-6"><tspan sodipodi:role="line" id="tspan1019-0-4-9-0-1" style="font-size:2.82222px;fill:none;stroke:#000000;stroke-width:0.2;stroke-opacity:1" x="268.28137" y="72.6045">potato</tspan></text><text xml:space="preserve" style="font-size:2.82222px;font-family:'UD Digi Kyokasho N-R';-inkscape-font-specification:'UD Digi Kyokasho N-R';text-align:center;letter-spacing:0px;writing-mode:lr-tb;direction:ltr;text-anchor:middle;fill:none;fill-opacity:1;stroke:#000000;stroke-width:0.2;stroke-linecap:round;stroke-linejoin:round;stroke-miterlimit:0;stroke-dasharray:none;stroke-opacity:1" x="239.26025" y="72.940742" id="text1019-50-2-2-5-6-4"><tspan sodipodi:role="line" id="tspan1019-0-4-9-0-1-7" style="font-size:2.82222px;fill:none;stroke:#000000;stroke-width:0.2;stroke-opacity:1" x="239.26025" y="72.940742">pumpkin</tspan></text><text xml:space="preserve" style="font-size:2.82222px;font-family:'UD Digi Kyokasho N-R';-inkscape-font-specification:'UD Digi Kyokasho N-R';text-align:center;letter-spacing:0px;writing-mode:lr-tb;direction:ltr;text-anchor:middle;fill:none;fill-opacity:1;stroke:#000000;stroke-width:0.2;stroke-linecap:round;stroke-linejoin:round;stroke-miterlimit:0;stroke-dasharray:none;stroke-opacity:1" x="23.916288" y="109.99999" id="text1019-5"><tspan sodipodi:role="line" id="tspan1019-3" style="font-size:2.82222px;fill:none;stroke:#000000;stroke-width:0.2;stroke-opacity:1" x="23.916288" y="109.99999">apple</tspan></text><text xml:space="preserve" style="font-size:2.82222px;font-family:'UD Digi Kyokasho N-R';-inkscape-font-specification:'UD Digi Kyokasho N-R';text-align:center;letter-spacing:0px;writing-mode:lr-tb;direction:ltr;text-anchor:middle;fill:none;fill-opacity:1;stroke:#000000;stroke-width:0.2;stroke-linecap:round;stroke-linejoin:round;stroke-miterlimit:0;stroke-dasharray:none;stroke-opacity:1" x="26.260256" y="73.940742" id="text1019-5-4"><tspan sodipodi:role="line" id="tspan1019-3-1" style="font-size:2.82222px;fill:none;stroke:#000000;stroke-width:0.2;stroke-opacity:1" x="26.260256" y="73.940742">avocado</tspan></text><text xml:space="preserve" style="font-size:2.82222px;font-family:'UD Digi Kyokasho N-R';-inkscape-font-specification:'UD Digi Kyokasho N-R';text-align:center;letter-spacing:0px;writing-mode:lr-tb;direction:ltr;text-anchor:middle;fill:none;fill-opacity:1;stroke:#000000;stroke-width:0.2;stroke-linecap:round;stroke-linejoin:round;stroke-miterlimit:0;stroke-dasharray:none;stroke-opacity:1" x="96.12606" y="109.26577" id="text1019-5-4-1-7"><tspan sodipodi:role="line" id="tspan1019-3-1-0-8" style="font-size:2.82222px;fill:none;stroke:#000000;stroke-width:0.2;stroke-opacity:1" x="96.12606" y="109.26577">blueberrie</tspan></text><text xml:space="preserve" style="font-size:2.82222px;font-family:'UD Digi Kyokasho N-R';-inkscape-font-specification:'UD Digi Kyokasho N-R';text-align:center;letter-spacing:0px;writing-mode:lr-tb;direction:ltr;text-anchor:middle;fill:none;fill-opacity:1;stroke:#000000;stroke-width:0.2;stroke-linecap:round;stroke-linejoin:round;stroke-miterlimit:0;stroke-dasharray:none;stroke-opacity:1" x="156.00031" y="40.179558" id="text1019-5-4-1-7-1"><tspan sodipodi:role="line" id="tspan1019-3-1-0-8-8" style="font-size:2.82222px;fill:none;stroke:#000000;stroke-width:0.2;stroke-opacity:1" x="156.00031" y="40.179558">broccoli</tspan></text><text xml:space="preserve" style="font-size:2.82222px;font-family:'UD Digi Kyokasho N-R';-inkscape-font-specification:'UD Digi Kyokasho N-R';text-align:center;letter-spacing:0px;writing-mode:lr-tb;direction:ltr;text-anchor:middle;fill:none;fill-opacity:1;stroke:#000000;stroke-width:0.2;stroke-linecap:round;stroke-linejoin:round;stroke-miterlimit:0;stroke-dasharray:none;stroke-opacity:1" x="91.482391" y="39.466244" id="text1019-5-4-1-7-1-7"><tspan sodipodi:role="line" id="tspan1019-3-1-0-8-8-8" style="font-size:2.82222px;fill:none;stroke:#000000;stroke-width:0.2;stroke-opacity:1" x="91.482391" y="39.466244">carrot</tspan></text><text xml:space="preserve" style="font-size:2.82222px;font-family:'UD Digi Kyokasho N-R';-inkscape-font-specification:'UD Digi Kyokasho N-R';text-align:center;letter-spacing:0px;writing-mode:lr-tb;direction:ltr;text-anchor:middle;fill:none;fill-opacity:1;stroke:#000000;stroke-width:0.2;stroke-linecap:round;stroke-linejoin:round;stroke-miterlimit:0;stroke-dasharray:none;stroke-opacity:1" x="126.11421" y="41.139595" id="text1019-5-4-1-7-1-7-4"><tspan sodipodi:role="line" id="tspan1019-3-1-0-8-8-8-6" style="font-size:2.82222px;fill:none;stroke:#000000;stroke-width:0.2;stroke-opacity:1" x="126.11421" y="41.139595">cucumber</tspan></text><text xml:space="preserve" style="font-size:2.82222px;font-family:'UD Digi Kyokasho N-R';-inkscape-font-specification:'UD Digi Kyokasho N-R';text-align:center;letter-spacing:0px;writing-mode:lr-tb;direction:ltr;text-anchor:middle;fill:none;fill-opacity:1;stroke:#000000;stroke-width:0.2;stroke-linecap:round;stroke-linejoin:round;stroke-miterlimit:0;stroke-dasharray:none;stroke-opacity:1" x="210.96996" y="37.429985" id="text1019-5-4-1-7-1-7-4-5"><tspan sodipodi:role="line" id="tspan1019-3-1-0-8-8-8-6-5" style="font-size:2.82222px;fill:none;stroke:#000000;stroke-width:0.2;stroke-opacity:1" x="210.96996" y="37.429985">eggplant</tspan></text><text xml:space="preserve" style="font-size:2.82222px;font-family:'UD Digi Kyokasho N-R';-inkscape-font-specification:'UD Digi Kyokasho N-R';text-align:center;letter-spacing:0px;writing-mode:lr-tb;direction:ltr;text-anchor:middle;fill:none;fill-opacity:1;stroke:#000000;stroke-width:0.2;stroke-linecap:round;stroke-linejoin:round;stroke-miterlimit:0;stroke-dasharray:none;stroke-opacity:1" x="56.622688" y="72.980705" id="text1019-50-9"><tspan sodipodi:role="line" id="tspan1019-0-9" style="font-size:2.82222px;fill:none;stroke:#000000;stroke-width:0.2;stroke-opacity:1" x="56.622688" y="72.980705">leaf</tspan></text><text xml:space="preserve" style="font-size:2.82222px;font-family:'UD Digi Kyokasho N-R';-inkscape-font-specification:'UD Digi Kyokasho N-R';text-align:center;letter-spacing:0px;writing-mode:lr-tb;direction:ltr;text-anchor:middle;fill:none;fill-opacity:1;stroke:#000000;stroke-width:0.2;stroke-linecap:round;stroke-linejoin:round;stroke-miterlimit:0;stroke-dasharray:none;stroke-opacity:1" x="181.11421" y="40.139595" id="text1019-50-9-9"><tspan sodipodi:role="line" id="tspan1019-0-9-6" style="font-size:2.82222px;fill:none;stroke:#000000;stroke-width:0.2;stroke-opacity:1" x="181.11421" y="40.139595">spinach</tspan></text><text xml:space="preserve" style="font-size:2.82222px;font-family:'UD Digi Kyokasho N-R';-inkscape-font-specification:'UD Digi Kyokasho N-R';text-align:center;letter-spacing:0px;writing-mode:lr-tb;direction:ltr;text-anchor:middle;fill:none;fill-opacity:1;stroke:#000000;stroke-width:0.2;stroke-linecap:round;stroke-linejoin:round;stroke-miterlimit:0;stroke-dasharray:none;stroke-opacity:1" x="93.742592" y="72.980705" id="text1019-50-9-2"><tspan sodipodi:role="line" id="tspan1019-0-9-8" style="font-size:2.82222px;fill:none;stroke:#000000;stroke-width:0.2;stroke-opacity:1" x="93.742592" y="72.980705">mushroom</tspan></text><text xml:space="preserve" style="font-size:2.82222px;font-family:'UD Digi Kyokasho N-R';-inkscape-font-specification:'UD Digi Kyokasho N-R';text-align:center;letter-spacing:0px;writing-mode:lr-tb;direction:ltr;text-anchor:middle;fill:none;fill-opacity:1;stroke:#000000;stroke-width:0.2;stroke-linecap:round;stroke-linejoin:round;stroke-miterlimit:0;stroke-dasharray:none;stroke-opacity:1" x="240.68306" y="38.039959" id="text1019-50-9-3"><tspan sodipodi:role="line" id="tspan1019-0-9-2" style="font-size:2.82222px;fill:none;stroke:#000000;stroke-width:0.2;stroke-opacity:1" x="240.68306" y="38.039959">onion</tspan></text><path id="path1022" style="fill:none;fill-opacity:1;stroke:#000000;stroke-width:1;stroke-linecap:round;stroke-linejoin:round;stroke-miterlimit:0;stroke-dasharray:none;stroke-opacity:1" d="M 160.32059,56.876714 C 160.92792,58.106685 159.05488,60.503595 159.51346,63.149871 M 157.26026,57.875242 C 156.65144,59.233592 157.58136,61.12554 157.26026,62.940746 M 154.014,57.340129 C 154.72273,60.047464 153.95464,61.799123 154.61398,63.514774 M 157.1063,55.575945 C 156.73807,55.575998 156.58364,55.855904 156.12764,55.792799 155.67708,55.730471 155.28357,55.197404 154.81809,55.222579 154.16127,55.258109 154.28846,55.856591 153.7319,55.856591 153.4367,55.856591 153.08925,55.16175 152.60441,55.359092 152.18976,55.527854 151.56105,55.923489 151.34778,57.657118 151.14343,59.318204 151.60838,62.540786 152.8498,64.829251 153.57337,66.163116 154.60212,65.229492 155.9097,65.27896 156.28726,65.293249 156.41997,65.646739 156.89805,65.73299 157.42261,65.82762 158.00141,65.305616 158.48317,65.27896 158.95827,65.252674 160.21716,65.646369 160.78863,65.27896 161.72516,64.676861 161.63376,62.181917 161.95136,61.260465 162.83554,58.695165 163.42626,57.60534 162.5881,56.622212 162.19001,56.155268 161.86922,55.493981 161.19354,55.377916 160.72252,55.29701 160.45077,55.700143 159.90654,55.767288 159.4178,55.827605 158.89586,55.320861 158.53311,55.275627 157.91383,55.19841 157.21411,55.779479 157.1063,55.575945 156.49317,54.418375 157.26026,54.360633 157.26026,54.360633" inkscape:label="sweet-pepper" inkscape:export-filename="icons/sweet-pepper.svg" inkscape:export-xdpi="96" inkscape:export-ydpi="96" /><path id="path1023" style="fill:none;fill-opacity:1;stroke:#000000;stroke-width:1;stroke-linecap:round;stroke-linejoin:round;stroke-miterlimit:0;stroke-dasharray:none;stroke-opacity:1" d="M 237.60073,55.183691 C 238.13718,54.779036 238.4427,53.979213 238.51726,52.784222 L 241.00515,52.73034 C 241.06286,53.818447 241.23333,54.825152 241.74241,54.983412 V 54.983412 M 237.13876,55.393958 C 237.13876,55.393958 236.20267,54.442555 234.37657,54.970067 230.90393,55.973195 232.33637,63.598762 235.2973,63.271512 235.78391,63.21774 236.37564,63.271512 237.13876,62.841823 237.48356,63.07481 238.40048,63.448395 239.34985,63.433175 240.15355,63.420303 241.01931,63.454287 241.74241,62.807083 242.66315,63.555372 244.5844,63.494904 245.03172,62.975836 247.65378,59.933225 246.63558,54.606203 243.58389,54.606203 242.19404,54.606203 241.74241,55.128863 241.1996,55.393958 240.95457,55.278662 240.16863,54.875647 239.43685,54.875647 237.97788,54.875647 237.13876,55.393958 237.13876,55.393958 Z" inkscape:label="pumpkin" inkscape:export-filename="icons/pumpkin.svg" inkscape:export-xdpi="96" inkscape:export-ydpi="96" /><path id="path1028" style="fill:none;fill-opacity:1;stroke:#000000;stroke-width:1;stroke-linecap:round;stroke-linejoin:round;stroke-miterlimit:0;stroke-dasharray:none;stroke-opacity:1" d="M 162.28068,91.881132 C 163.48763,92.594092 164.28747,94.502132 164.04643,95.601742 164.5196,96.353912 163.83323,97.576022 164.17583,98.992712 163.79483,99.785122 163.17345,101.22359 162.28182,101.45759 161.98305,102.73901 159.84973,103.22515 157.89858,103.45952 M 161.77845,92.159502 C 162.24915,93.099922 162.93454,94.664642 161.99213,95.606462 162.20303,96.527552 161.06155,97.230112 161.60355,98.728632 161.30325,99.398192 159.73146,99.990152 160.16301,100.82864 159.44797,101.59421 158.67742,102.58128 157.51275,103.25278 M 161.53994,91.881142 C 160.54708,92.797452 158.71333,93.799262 158.87583,95.152162 158.28293,95.906992 158.05353,97.446832 157.31863,98.452302 157.53886,99.129302 158.01046,99.373402 157.37141,100.48806 156.82008,100.88882 157.09273,102.15206 157.35065,103.02097 M 161.16908,91.748342 C 159.47469,91.481072 157.28542,92.871832 157.43443,93.203422 157.09611,94.474122 155.69642,95.375792 154.79934,96.941112 154.78291,97.675692 155.61338,98.836882 155.36811,99.682372 154.89349,100.84575 155.53565,102.39976 155.9422,102.50955 M 156.92578,91.561832 C 152.83167,94.364912 152.49241,97.431502 153.74615,100.43459 155.58368,102.45382 157.84065,104.71363 162.35114,103.51826 164.97386,101.89775 166.85586,99.689492 165.4348,94.913292 163.90964,91.583882 159.18805,90.379822 156.92578,91.561832 Z" inkscape:label="watermeron" inkscape:export-filename="icons/watermeron.svg" inkscape:export-xdpi="96" inkscape:export-ydpi="96" /><path id="path1029" style="display:inline;fill:none;fill-opacity:1;stroke:#000000;stroke-width:1;stroke-linecap:round;stroke-linejoin:round;stroke-miterlimit:0;stroke-dasharray:none;stroke-opacity:1" d="M 214.3271,53.558335 C 211.63325,56.004408 206.49827,58.746848 206.48833,61.870694 M 212.40909,58.742061 C 211.20427,59.862938 209.85225,59.732886 209.64917,57.99487 210.64537,57.330163 211.97966,57.150467 212.40909,58.742061 Z M 208.75261,54.69365 C 210.15867,55.548616 210.40085,56.885094 208.7834,57.552755 207.87304,56.774631 207.33758,55.539369 208.75261,54.69365 Z M 213.98953,56.804144 C 212.7847,57.925022 211.43268,57.794961 211.22961,56.056945 212.22579,55.392247 213.56007,55.212535 213.98953,56.804144 Z M 210.33304,52.755725 C 211.7391,53.610691 211.98129,54.947179 210.36382,55.614838 209.45346,54.836715 208.91799,53.601445 210.33304,52.755725 Z M 216.20395,55.401802 C 214.99912,56.522695 213.6471,56.392626 213.44401,54.654626 214.4402,53.989912 215.77449,53.810208 216.20395,55.401802 Z M 212.54747,51.353415 C 213.95352,52.208357 214.1957,53.544869 212.57826,54.212512 211.66788,53.43438 211.13243,52.199126 212.54747,51.353415 Z M 216.47897,51.67556 C 216.74391,53.299663 215.88618,54.352808 214.3271,53.558335 214.32613,52.360739 214.91628,51.150613 216.47897,51.67556 Z" inkscape:label="coriander" inkscape:export-filename="icons/coriander.svg" inkscape:export-xdpi="96" inkscape:export-ydpi="96" /></g></svg>
